%TF.GenerationSoftware,KiCad,Pcbnew,(6.0.2)*%
%TF.CreationDate,2022-12-26T11:42:45-08:00*%
%TF.ProjectId,discrete_op_amp,64697363-7265-4746-955f-6f705f616d70,rev?*%
%TF.SameCoordinates,Original*%
%TF.FileFunction,Copper,L1,Top*%
%TF.FilePolarity,Positive*%
%FSLAX46Y46*%
G04 Gerber Fmt 4.6, Leading zero omitted, Abs format (unit mm)*
G04 Created by KiCad (PCBNEW (6.0.2)) date 2022-12-26 11:42:45*
%MOMM*%
%LPD*%
G01*
G04 APERTURE LIST*
G04 Aperture macros list*
%AMRoundRect*
0 Rectangle with rounded corners*
0 $1 Rounding radius*
0 $2 $3 $4 $5 $6 $7 $8 $9 X,Y pos of 4 corners*
0 Add a 4 corners polygon primitive as box body*
4,1,4,$2,$3,$4,$5,$6,$7,$8,$9,$2,$3,0*
0 Add four circle primitives for the rounded corners*
1,1,$1+$1,$2,$3*
1,1,$1+$1,$4,$5*
1,1,$1+$1,$6,$7*
1,1,$1+$1,$8,$9*
0 Add four rect primitives between the rounded corners*
20,1,$1+$1,$2,$3,$4,$5,0*
20,1,$1+$1,$4,$5,$6,$7,0*
20,1,$1+$1,$6,$7,$8,$9,0*
20,1,$1+$1,$8,$9,$2,$3,0*%
G04 Aperture macros list end*
%TA.AperFunction,ComponentPad*%
%ADD10C,2.000000*%
%TD*%
%TA.AperFunction,SMDPad,CuDef*%
%ADD11R,7.000000X2.400000*%
%TD*%
%TA.AperFunction,ComponentPad*%
%ADD12R,3.000000X3.000000*%
%TD*%
%TA.AperFunction,ComponentPad*%
%ADD13C,3.000000*%
%TD*%
%TA.AperFunction,SMDPad,CuDef*%
%ADD14RoundRect,0.150000X-0.587500X-0.150000X0.587500X-0.150000X0.587500X0.150000X-0.587500X0.150000X0*%
%TD*%
%TA.AperFunction,SMDPad,CuDef*%
%ADD15RoundRect,0.250000X0.450000X-0.262500X0.450000X0.262500X-0.450000X0.262500X-0.450000X-0.262500X0*%
%TD*%
%TA.AperFunction,SMDPad,CuDef*%
%ADD16RoundRect,0.150000X0.587500X0.150000X-0.587500X0.150000X-0.587500X-0.150000X0.587500X-0.150000X0*%
%TD*%
%TA.AperFunction,ComponentPad*%
%ADD17O,1.905000X2.000000*%
%TD*%
%TA.AperFunction,ComponentPad*%
%ADD18R,1.905000X2.000000*%
%TD*%
%TA.AperFunction,SMDPad,CuDef*%
%ADD19RoundRect,0.250000X0.262500X0.450000X-0.262500X0.450000X-0.262500X-0.450000X0.262500X-0.450000X0*%
%TD*%
%TA.AperFunction,SMDPad,CuDef*%
%ADD20RoundRect,0.250000X-0.450000X0.262500X-0.450000X-0.262500X0.450000X-0.262500X0.450000X0.262500X0*%
%TD*%
%TA.AperFunction,ComponentPad*%
%ADD21C,3.800000*%
%TD*%
%TA.AperFunction,SMDPad,CuDef*%
%ADD22RoundRect,0.250000X-0.475000X0.250000X-0.475000X-0.250000X0.475000X-0.250000X0.475000X0.250000X0*%
%TD*%
%TA.AperFunction,SMDPad,CuDef*%
%ADD23RoundRect,0.150000X-0.150000X0.587500X-0.150000X-0.587500X0.150000X-0.587500X0.150000X0.587500X0*%
%TD*%
%TA.AperFunction,SMDPad,CuDef*%
%ADD24RoundRect,0.250000X0.250000X0.475000X-0.250000X0.475000X-0.250000X-0.475000X0.250000X-0.475000X0*%
%TD*%
%TA.AperFunction,SMDPad,CuDef*%
%ADD25RoundRect,0.150000X0.150000X-0.587500X0.150000X0.587500X-0.150000X0.587500X-0.150000X-0.587500X0*%
%TD*%
%TA.AperFunction,ComponentPad*%
%ADD26R,1.050000X1.500000*%
%TD*%
%TA.AperFunction,ComponentPad*%
%ADD27O,1.050000X1.500000*%
%TD*%
%TA.AperFunction,SMDPad,CuDef*%
%ADD28RoundRect,0.250000X-0.250000X-0.475000X0.250000X-0.475000X0.250000X0.475000X-0.250000X0.475000X0*%
%TD*%
%TA.AperFunction,SMDPad,CuDef*%
%ADD29R,1.500000X1.000000*%
%TD*%
%TA.AperFunction,ViaPad*%
%ADD30C,0.600000*%
%TD*%
%TA.AperFunction,ViaPad*%
%ADD31C,0.800000*%
%TD*%
%TA.AperFunction,Conductor*%
%ADD32C,0.600000*%
%TD*%
%TA.AperFunction,Conductor*%
%ADD33C,2.000000*%
%TD*%
%TA.AperFunction,Conductor*%
%ADD34C,0.400000*%
%TD*%
%TA.AperFunction,Conductor*%
%ADD35C,1.200000*%
%TD*%
%TA.AperFunction,Conductor*%
%ADD36C,1.000000*%
%TD*%
%TA.AperFunction,Conductor*%
%ADD37C,1.600000*%
%TD*%
%TA.AperFunction,Conductor*%
%ADD38C,1.400000*%
%TD*%
%TA.AperFunction,Conductor*%
%ADD39C,0.254000*%
%TD*%
%TA.AperFunction,Conductor*%
%ADD40C,0.800000*%
%TD*%
G04 APERTURE END LIST*
D10*
%TO.P,RV1,1,1*%
%TO.N,/Vout*%
X182509000Y-122809000D03*
%TO.P,RV1,2,2*%
%TO.N,/Vin*%
X180009000Y-125309000D03*
%TO.P,RV1,3,3*%
%TO.N,Net-(R19-Pad2)*%
X177509000Y-122809000D03*
%TD*%
D11*
%TO.P,C8,1*%
%TO.N,/SPKR+*%
X187126000Y-99469000D03*
%TO.P,C8,2*%
%TO.N,Net-(C7-Pad2)*%
X178126000Y-99469000D03*
%TD*%
D12*
%TO.P,J1,1,Pin_1*%
%TO.N,+15V*%
X114300000Y-97790000D03*
D13*
%TO.P,J1,2,Pin_2*%
%TO.N,GND*%
X114300000Y-102870000D03*
%TO.P,J1,3,Pin_3*%
%TO.N,-15V*%
X114300000Y-107950000D03*
%TD*%
D14*
%TO.P,Q13,1,B*%
%TO.N,/Vip*%
X129848500Y-109949000D03*
%TO.P,Q13,2,E*%
%TO.N,Net-(Q13-Pad2)*%
X129848500Y-111849000D03*
%TO.P,Q13,3,C*%
%TO.N,Net-(C6-Pad2)*%
X131723500Y-110899000D03*
%TD*%
D15*
%TO.P,R18,1*%
%TO.N,-15V*%
X160401000Y-120546500D03*
%TO.P,R18,2*%
%TO.N,Net-(Q21-Pad3)*%
X160401000Y-118721500D03*
%TD*%
D16*
%TO.P,Q10,1,B*%
%TO.N,Net-(C6-Pad2)*%
X143280500Y-107531000D03*
%TO.P,Q10,2,E*%
%TO.N,+15V*%
X143280500Y-105631000D03*
%TO.P,Q10,3,C*%
%TO.N,Net-(C6-Pad1)*%
X141405500Y-106581000D03*
%TD*%
%TO.P,Q2,1,B*%
%TO.N,Net-(Q2-Pad1)*%
X130707500Y-107404000D03*
%TO.P,Q2,2,E*%
%TO.N,+15V*%
X130707500Y-105504000D03*
%TO.P,Q2,3,C*%
%TO.N,Net-(C6-Pad2)*%
X128832500Y-106454000D03*
%TD*%
D17*
%TO.P,Q23,3,E*%
%TO.N,-15V*%
X168512000Y-93639000D03*
%TO.P,Q23,2,C*%
%TO.N,Net-(Q17-Pad1)*%
X165972000Y-93639000D03*
D18*
%TO.P,Q23,1,B*%
%TO.N,Net-(Q21-Pad3)*%
X163432000Y-93639000D03*
%TD*%
D15*
%TO.P,R1,1*%
%TO.N,Net-(Q6-Pad2)*%
X146661000Y-107493500D03*
%TO.P,R1,2*%
%TO.N,+15V*%
X146661000Y-105668500D03*
%TD*%
D16*
%TO.P,Q3,1,B*%
%TO.N,Net-(Q2-Pad1)*%
X134644500Y-107404000D03*
%TO.P,Q3,2,E*%
%TO.N,+15V*%
X134644500Y-105504000D03*
%TO.P,Q3,3,C*%
%TO.N,Net-(Q14-Pad3)*%
X132769500Y-106454000D03*
%TD*%
D19*
%TO.P,R20,1*%
%TO.N,Net-(R19-Pad2)*%
X177141000Y-120650000D03*
%TO.P,R20,2*%
%TO.N,GND*%
X175316000Y-120650000D03*
%TD*%
D20*
%TO.P,R11,1*%
%TO.N,Net-(Q17-Pad1)*%
X175006000Y-105259500D03*
%TO.P,R11,2*%
%TO.N,/Vout*%
X175006000Y-107084500D03*
%TD*%
D12*
%TO.P,J3,1,Pin_1*%
%TO.N,/Vip*%
X114300000Y-114300000D03*
D13*
%TO.P,J3,2,Pin_2*%
%TO.N,/Vin*%
X114300000Y-119380000D03*
%TD*%
D21*
%TO.P,H4,1,1*%
%TO.N,GND*%
X109117000Y-125730000D03*
%TD*%
%TO.P,H3,1,1*%
%TO.N,GND*%
X198223000Y-92484000D03*
%TD*%
D14*
%TO.P,Q14,1,B*%
%TO.N,/Vin*%
X133912500Y-109949000D03*
%TO.P,Q14,2,E*%
%TO.N,Net-(Q14-Pad2)*%
X133912500Y-111849000D03*
%TO.P,Q14,3,C*%
%TO.N,Net-(Q14-Pad3)*%
X135787500Y-110899000D03*
%TD*%
D15*
%TO.P,R13,1*%
%TO.N,Net-(Q20-Pad3)*%
X133756400Y-115212500D03*
%TO.P,R13,2*%
%TO.N,Net-(Q14-Pad2)*%
X133756400Y-113387500D03*
%TD*%
D22*
%TO.P,C2,1*%
%TO.N,+15V*%
X122785000Y-107790000D03*
%TO.P,C2,2*%
%TO.N,GND*%
X122785000Y-109690000D03*
%TD*%
D11*
%TO.P,C4,1*%
%TO.N,GND*%
X141526000Y-97818000D03*
%TO.P,C4,2*%
%TO.N,-15V*%
X150526000Y-97818000D03*
%TD*%
D23*
%TO.P,Q12,1,B*%
%TO.N,Net-(Q12-Pad1)*%
X150556000Y-114251500D03*
%TO.P,Q12,2,E*%
%TO.N,/Vout*%
X148656000Y-114251500D03*
%TO.P,Q12,3,C*%
%TO.N,Net-(Q11-Pad2)*%
X149606000Y-116126500D03*
%TD*%
D24*
%TO.P,C3,1*%
%TO.N,+15V*%
X122719000Y-105946000D03*
%TO.P,C3,2*%
%TO.N,-15V*%
X120819000Y-105946000D03*
%TD*%
D20*
%TO.P,R6,1*%
%TO.N,/Vout*%
X170942000Y-108815500D03*
%TO.P,R6,2*%
%TO.N,Net-(Q12-Pad1)*%
X170942000Y-110640500D03*
%TD*%
D11*
%TO.P,C7,1*%
%TO.N,/Vout*%
X178126000Y-113058000D03*
%TO.P,C7,2*%
%TO.N,Net-(C7-Pad2)*%
X187126000Y-113058000D03*
%TD*%
D16*
%TO.P,Q8,1,B*%
%TO.N,/VBP*%
X126897500Y-110960000D03*
%TO.P,Q8,2,E*%
%TO.N,Net-(Q1-Pad1)*%
X126897500Y-109060000D03*
%TO.P,Q8,3,C*%
%TO.N,/VBP*%
X125022500Y-110010000D03*
%TD*%
%TO.P,Q1,1,B*%
%TO.N,Net-(Q1-Pad1)*%
X126770500Y-107404000D03*
%TO.P,Q1,2,E*%
%TO.N,+15V*%
X126770500Y-105504000D03*
%TO.P,Q1,3,C*%
%TO.N,Net-(Q1-Pad1)*%
X124895500Y-106454000D03*
%TD*%
D15*
%TO.P,R14,1*%
%TO.N,-15V*%
X138533000Y-119685500D03*
%TO.P,R14,2*%
%TO.N,Net-(Q16-Pad2)*%
X138533000Y-117860500D03*
%TD*%
%TO.P,R17,1*%
%TO.N,-15V*%
X135636000Y-119685500D03*
%TO.P,R17,2*%
%TO.N,Net-(Q20-Pad2)*%
X135636000Y-117860500D03*
%TD*%
D11*
%TO.P,C1,1*%
%TO.N,+15V*%
X124254000Y-97691000D03*
%TO.P,C1,2*%
%TO.N,GND*%
X133254000Y-97691000D03*
%TD*%
D14*
%TO.P,Q15,1,B*%
%TO.N,/VBN*%
X125022500Y-116144000D03*
%TO.P,Q15,2,E*%
%TO.N,Net-(Q15-Pad2)*%
X125022500Y-118044000D03*
%TO.P,Q15,3,C*%
%TO.N,/VBN*%
X126897500Y-117094000D03*
%TD*%
D25*
%TO.P,Q16,1,B*%
%TO.N,/VBN*%
X137607000Y-114475500D03*
%TO.P,Q16,2,E*%
%TO.N,Net-(Q16-Pad2)*%
X139507000Y-114475500D03*
%TO.P,Q16,3,C*%
%TO.N,Net-(C6-Pad1)*%
X138557000Y-112600500D03*
%TD*%
D18*
%TO.P,Q5,1,B*%
%TO.N,Net-(Q4-Pad2)*%
X169521000Y-124492500D03*
D17*
%TO.P,Q5,2,C*%
%TO.N,Net-(Q12-Pad1)*%
X166981000Y-124492500D03*
%TO.P,Q5,3,E*%
%TO.N,+15V*%
X164441000Y-124492500D03*
%TD*%
D19*
%TO.P,R19,1*%
%TO.N,/Vin*%
X180697000Y-120650000D03*
%TO.P,R19,2*%
%TO.N,Net-(R19-Pad2)*%
X178872000Y-120650000D03*
%TD*%
D25*
%TO.P,Q18,1,B*%
%TO.N,Net-(C6-Pad1)*%
X141086800Y-113967500D03*
%TO.P,Q18,2,E*%
%TO.N,Net-(Q17-Pad3)*%
X142986800Y-113967500D03*
%TO.P,Q18,3,C*%
%TO.N,Net-(C6-Pad1)*%
X142036800Y-112092500D03*
%TD*%
D20*
%TO.P,R12,1*%
%TO.N,Net-(Q13-Pad2)*%
X131548000Y-113387500D03*
%TO.P,R12,2*%
%TO.N,Net-(Q20-Pad3)*%
X131548000Y-115212500D03*
%TD*%
%TO.P,R3,1*%
%TO.N,/VBP*%
X126849000Y-112653500D03*
%TO.P,R3,2*%
%TO.N,/VBN*%
X126849000Y-114478500D03*
%TD*%
%TO.P,R4,1*%
%TO.N,/Vout*%
X175006000Y-108815500D03*
%TO.P,R4,2*%
%TO.N,Net-(Q12-Pad1)*%
X175006000Y-110640500D03*
%TD*%
D23*
%TO.P,Q17,1,B*%
%TO.N,Net-(Q17-Pad1)*%
X154493000Y-117045500D03*
%TO.P,Q17,2,E*%
%TO.N,/Vout*%
X152593000Y-117045500D03*
%TO.P,Q17,3,C*%
%TO.N,Net-(Q17-Pad3)*%
X153543000Y-118920500D03*
%TD*%
D26*
%TO.P,Q22,1,E*%
%TO.N,-15V*%
X164568000Y-99448000D03*
D27*
%TO.P,Q22,2,B*%
%TO.N,Net-(Q21-Pad3)*%
X165838000Y-99448000D03*
%TO.P,Q22,3,C*%
%TO.N,Net-(Q17-Pad1)*%
X167108000Y-99448000D03*
%TD*%
D23*
%TO.P,Q7,1,B*%
%TO.N,Net-(Q14-Pad3)*%
X139507000Y-107675500D03*
%TO.P,Q7,2,E*%
%TO.N,Net-(Q2-Pad1)*%
X137607000Y-107675500D03*
%TO.P,Q7,3,C*%
%TO.N,-15V*%
X138557000Y-109550500D03*
%TD*%
D25*
%TO.P,Q20,1,B*%
%TO.N,/VBN*%
X131614000Y-118920500D03*
%TO.P,Q20,2,E*%
%TO.N,Net-(Q20-Pad2)*%
X133514000Y-118920500D03*
%TO.P,Q20,3,C*%
%TO.N,Net-(Q20-Pad3)*%
X132564000Y-117045500D03*
%TD*%
D16*
%TO.P,Q6,1,B*%
%TO.N,/VBP*%
X146709500Y-111087000D03*
%TO.P,Q6,2,E*%
%TO.N,Net-(Q6-Pad2)*%
X146709500Y-109187000D03*
%TO.P,Q6,3,C*%
%TO.N,Net-(Q11-Pad2)*%
X144834500Y-110137000D03*
%TD*%
D21*
%TO.P,H2,1,1*%
%TO.N,GND*%
X198120000Y-125730000D03*
%TD*%
D20*
%TO.P,R8,1*%
%TO.N,Net-(Q17-Pad1)*%
X168910000Y-105259500D03*
%TO.P,R8,2*%
%TO.N,/Vout*%
X168910000Y-107084500D03*
%TD*%
D25*
%TO.P,Q9,1,B*%
%TO.N,Net-(Q11-Pad2)*%
X148656000Y-112189500D03*
%TO.P,Q9,2,E*%
%TO.N,Net-(Q12-Pad1)*%
X150556000Y-112189500D03*
%TO.P,Q9,3,C*%
%TO.N,Net-(Q4-Pad2)*%
X149606000Y-110314500D03*
%TD*%
D20*
%TO.P,R10,1*%
%TO.N,Net-(Q17-Pad1)*%
X172946000Y-105259500D03*
%TO.P,R10,2*%
%TO.N,/Vout*%
X172946000Y-107084500D03*
%TD*%
D14*
%TO.P,Q19,1,B*%
%TO.N,Net-(Q15-Pad2)*%
X125022500Y-119644000D03*
%TO.P,Q19,2,E*%
%TO.N,-15V*%
X125022500Y-121544000D03*
%TO.P,Q19,3,C*%
%TO.N,Net-(Q15-Pad2)*%
X126897500Y-120594000D03*
%TD*%
D19*
%TO.P,R15,1*%
%TO.N,/Vout*%
X184149500Y-120650000D03*
%TO.P,R15,2*%
%TO.N,/Vin*%
X182324500Y-120650000D03*
%TD*%
D16*
%TO.P,Q11,1,B*%
%TO.N,Net-(C6-Pad1)*%
X146709500Y-114516000D03*
%TO.P,Q11,2,E*%
%TO.N,Net-(Q11-Pad2)*%
X146709500Y-112616000D03*
%TO.P,Q11,3,C*%
%TO.N,Net-(C6-Pad1)*%
X144834500Y-113566000D03*
%TD*%
D28*
%TO.P,C6,1*%
%TO.N,Net-(C6-Pad1)*%
X141139000Y-109629000D03*
%TO.P,C6,2*%
%TO.N,Net-(C6-Pad2)*%
X143039000Y-109629000D03*
%TD*%
D29*
%TO.P,JP1,1,A*%
%TO.N,/SPKR+*%
X193548000Y-116698000D03*
%TO.P,JP1,2,B*%
%TO.N,/Vout*%
X193548000Y-117998000D03*
%TD*%
D16*
%TO.P,Q21,1,B*%
%TO.N,Net-(Q17-Pad3)*%
X158163500Y-119342000D03*
%TO.P,Q21,2,E*%
%TO.N,Net-(Q17-Pad1)*%
X158163500Y-117442000D03*
%TO.P,Q21,3,C*%
%TO.N,Net-(Q21-Pad3)*%
X156288500Y-118392000D03*
%TD*%
D26*
%TO.P,Q4,1,C*%
%TO.N,Net-(Q12-Pad1)*%
X168632000Y-114300000D03*
D27*
%TO.P,Q4,2,B*%
%TO.N,Net-(Q4-Pad2)*%
X167362000Y-114300000D03*
%TO.P,Q4,3,E*%
%TO.N,+15V*%
X166092000Y-114300000D03*
%TD*%
D21*
%TO.P,H1,1,1*%
%TO.N,GND*%
X109220000Y-92484000D03*
%TD*%
D12*
%TO.P,J2,1,Pin_1*%
%TO.N,/SPKR+*%
X195580000Y-106680000D03*
D13*
%TO.P,J2,2,Pin_2*%
%TO.N,GND*%
X195580000Y-111760000D03*
%TD*%
D15*
%TO.P,R2,1*%
%TO.N,Net-(Q4-Pad2)*%
X148820000Y-107493500D03*
%TO.P,R2,2*%
%TO.N,+15V*%
X148820000Y-105668500D03*
%TD*%
D20*
%TO.P,R16,1*%
%TO.N,Net-(Q17-Pad3)*%
X140946000Y-117860500D03*
%TO.P,R16,2*%
%TO.N,-15V*%
X140946000Y-119685500D03*
%TD*%
%TO.P,R7,1*%
%TO.N,/Vout*%
X168910000Y-108815500D03*
%TO.P,R7,2*%
%TO.N,Net-(Q12-Pad1)*%
X168910000Y-110640500D03*
%TD*%
D22*
%TO.P,C5,1*%
%TO.N,GND*%
X122785000Y-111346000D03*
%TO.P,C5,2*%
%TO.N,-15V*%
X122785000Y-113246000D03*
%TD*%
D20*
%TO.P,R9,1*%
%TO.N,Net-(Q17-Pad1)*%
X170942000Y-105259500D03*
%TO.P,R9,2*%
%TO.N,/Vout*%
X170942000Y-107084500D03*
%TD*%
%TO.P,R5,1*%
%TO.N,/Vout*%
X172974000Y-108815500D03*
%TO.P,R5,2*%
%TO.N,Net-(Q12-Pad1)*%
X172974000Y-110640500D03*
%TD*%
D30*
%TO.N,GND*%
X187325000Y-104648000D03*
X189865000Y-104648000D03*
X130556000Y-102616000D03*
X125476000Y-102616000D03*
%TO.N,/VBP*%
X137287000Y-115951000D03*
X134239000Y-116840000D03*
D31*
%TO.N,Net-(Q21-Pad3)*%
X157607000Y-105918000D03*
D30*
%TO.N,GND*%
X164846000Y-108331000D03*
X165354000Y-106426000D03*
X162687000Y-118110000D03*
X112776000Y-125349000D03*
X117856000Y-125349000D03*
D31*
%TO.N,Net-(Q4-Pad2)*%
X155448000Y-107569000D03*
X151892000Y-107569000D03*
D30*
%TO.N,-15V*%
X149709000Y-100358000D03*
X151741000Y-100358000D03*
X147677000Y-100358000D03*
X150725000Y-100358000D03*
X148693000Y-100358000D03*
D31*
%TO.N,/Vout*%
X167132000Y-109728000D03*
D30*
X158345000Y-115090000D03*
%TO.N,GND*%
X150725000Y-102644000D03*
X171553000Y-114328000D03*
X135485000Y-102644000D03*
X160528000Y-102644000D03*
X122785000Y-93246000D03*
X175363000Y-92484000D03*
X185523000Y-92484000D03*
X132945000Y-93246000D03*
X153265000Y-93246000D03*
X177903000Y-95786000D03*
X176784000Y-104648000D03*
X125730000Y-124460000D03*
X182983000Y-95786000D03*
X191770000Y-121920000D03*
X125071000Y-111534000D03*
X143105000Y-93246000D03*
X120650000Y-110490000D03*
X127865000Y-93246000D03*
X120650000Y-111760000D03*
X130810000Y-124460000D03*
X158345000Y-93246000D03*
X151130000Y-123190000D03*
X173482000Y-119126000D03*
X138025000Y-93246000D03*
X124563000Y-112550000D03*
X145645000Y-102644000D03*
X186690000Y-121920000D03*
X140970000Y-123190000D03*
X155805000Y-102644000D03*
X196850000Y-121920000D03*
X197358000Y-117348000D03*
X180443000Y-92484000D03*
X135890000Y-123190000D03*
X148185000Y-93246000D03*
X179324000Y-104648000D03*
X146050000Y-123190000D03*
X176022000Y-119126000D03*
X140565000Y-102644000D03*
X178562000Y-119126000D03*
%TO.N,/Vip*%
X128627000Y-110391000D03*
%TO.N,/Vin*%
X132588000Y-109982000D03*
%TO.N,Net-(Q14-Pad3)*%
X134342000Y-106503500D03*
X135866000Y-110010000D03*
%TO.N,/VBP*%
X129413000Y-115189000D03*
D31*
X145415000Y-111125000D03*
D30*
%TO.N,Net-(Q11-Pad2)*%
X147169000Y-113566000D03*
D31*
X148590000Y-115824000D03*
%TO.N,Net-(Q17-Pad1)*%
X167108000Y-105739000D03*
D30*
X160123000Y-115090000D03*
D31*
%TO.N,Net-(Q21-Pad3)*%
X156337000Y-117348000D03*
D30*
%TO.N,Net-(C6-Pad2)*%
X136247000Y-108740000D03*
X142089000Y-108486000D03*
%TD*%
D32*
%TO.N,/Vin*%
X178572000Y-126746000D02*
X121666000Y-126746000D01*
X180009000Y-125309000D02*
X178572000Y-126746000D01*
D33*
%TO.N,/Vout*%
X178126000Y-113058000D02*
X178126000Y-112196000D01*
X178126000Y-112196000D02*
X179959000Y-110363000D01*
%TO.N,/SPKR+*%
X187126000Y-99469000D02*
X188369000Y-99469000D01*
X188369000Y-99469000D02*
X195580000Y-106680000D01*
%TO.N,Net-(C7-Pad2)*%
X187126000Y-108259000D02*
X187126000Y-113058000D01*
X178336000Y-99469000D02*
X187126000Y-108259000D01*
X178126000Y-99469000D02*
X178336000Y-99469000D01*
D32*
%TO.N,Net-(R19-Pad2)*%
X177141000Y-122441000D02*
X177509000Y-122809000D01*
X177141000Y-120650000D02*
X177141000Y-122441000D01*
%TO.N,/Vin*%
X180009000Y-121338000D02*
X180697000Y-120650000D01*
X180009000Y-125309000D02*
X180009000Y-121338000D01*
D34*
%TO.N,/Vout*%
X184149500Y-118012500D02*
X184135000Y-117998000D01*
D32*
X184149500Y-120650000D02*
X184149500Y-118012500D01*
D33*
X184135000Y-117998000D02*
X190866000Y-117998000D01*
X181161000Y-117998000D02*
X184135000Y-117998000D01*
D34*
X184149500Y-121168500D02*
X184149500Y-120650000D01*
D32*
X182509000Y-122809000D02*
X184149500Y-121168500D01*
D35*
X193548000Y-117998000D02*
X190866000Y-117998000D01*
D33*
X178126000Y-113058000D02*
X178126000Y-114963000D01*
X178126000Y-114963000D02*
X181161000Y-117998000D01*
D34*
%TO.N,/VBP*%
X134239000Y-116840000D02*
X136398000Y-116840000D01*
X136398000Y-116840000D02*
X137287000Y-115951000D01*
D36*
%TO.N,Net-(Q21-Pad3)*%
X158496000Y-104902000D02*
X157607000Y-105791000D01*
X162134000Y-104902000D02*
X158496000Y-104902000D01*
X162896000Y-104140000D02*
X162134000Y-104902000D01*
X157607000Y-105791000D02*
X157607000Y-105918000D01*
X165838000Y-101198000D02*
X162896000Y-104140000D01*
X165838000Y-99448000D02*
X165838000Y-101198000D01*
%TO.N,Net-(Q4-Pad2)*%
X148820000Y-107493500D02*
X151892000Y-107569000D01*
X155448000Y-107569000D02*
X161780000Y-107569000D01*
D37*
%TO.N,+15V*%
X161544000Y-112268000D02*
X161671000Y-112141000D01*
D33*
X161671000Y-112141000D02*
X163830000Y-114300000D01*
X156718000Y-112268000D02*
X161544000Y-112268000D01*
X153670000Y-109220000D02*
X156718000Y-112268000D01*
X153670000Y-105156000D02*
X153670000Y-109220000D01*
D37*
X152781000Y-104267000D02*
X153670000Y-105156000D01*
X148844000Y-104267000D02*
X152781000Y-104267000D01*
D32*
%TO.N,/Vin*%
X114300000Y-119380000D02*
X121666000Y-126746000D01*
D36*
%TO.N,Net-(Q12-Pad1)*%
X166981000Y-119321478D02*
X166981000Y-124492500D01*
D37*
%TO.N,-15V*%
X168512000Y-97283000D02*
X168512000Y-93639000D01*
X168259000Y-97536000D02*
X168512000Y-97283000D01*
X163118500Y-97536000D02*
X168259000Y-97536000D01*
D34*
%TO.N,Net-(Q4-Pad2)*%
X161780000Y-107569000D02*
X161855500Y-107493500D01*
D32*
%TO.N,+15V*%
X141916500Y-104267000D02*
X143280500Y-105631000D01*
X132969000Y-105029000D02*
X133444000Y-105504000D01*
D37*
X125349000Y-104267000D02*
X128905000Y-104267000D01*
D32*
X122785000Y-106012000D02*
X122719000Y-105946000D01*
D37*
X132969000Y-104267000D02*
X141224000Y-104267000D01*
D32*
X148844000Y-105644500D02*
X148820000Y-105668500D01*
D33*
X122719000Y-105946000D02*
X122719000Y-104992000D01*
D32*
X141224000Y-104267000D02*
X141916500Y-104267000D01*
D37*
X128905000Y-104267000D02*
X132969000Y-104267000D01*
D33*
X122719000Y-104992000D02*
X122719000Y-99226000D01*
X124155000Y-97790000D02*
X124254000Y-97691000D01*
D37*
X141224000Y-104267000D02*
X145796000Y-104267000D01*
X145796000Y-104267000D02*
X148844000Y-104267000D01*
D32*
X132969000Y-104267000D02*
X132969000Y-105029000D01*
D35*
X122785000Y-107790000D02*
X122785000Y-106012000D01*
D32*
X130707500Y-105504000D02*
X130142000Y-105504000D01*
X148844000Y-104267000D02*
X148844000Y-105644500D01*
D33*
X122719000Y-99226000D02*
X124254000Y-97691000D01*
D37*
X122719000Y-105946000D02*
X122719000Y-105881000D01*
D32*
X122719000Y-105946000D02*
X123161000Y-105504000D01*
X145796000Y-104267000D02*
X145796000Y-104803500D01*
X145796000Y-104803500D02*
X146661000Y-105668500D01*
X126586000Y-105504000D02*
X125349000Y-104267000D01*
D37*
X123444000Y-104267000D02*
X125349000Y-104267000D01*
D32*
X133444000Y-105504000D02*
X134644500Y-105504000D01*
D38*
X163830000Y-114300000D02*
X165937480Y-114300000D01*
D32*
X130142000Y-105504000D02*
X128905000Y-104267000D01*
D33*
X114300000Y-97790000D02*
X124155000Y-97790000D01*
D32*
X126770500Y-105504000D02*
X126586000Y-105504000D01*
D39*
%TO.N,-15V*%
X136985500Y-117399500D02*
X138360520Y-116024480D01*
D33*
X117098000Y-107950000D02*
X117832000Y-107216000D01*
D37*
X117856000Y-120142000D02*
X122428000Y-120142000D01*
D36*
X119102000Y-105946000D02*
X120819000Y-105946000D01*
D38*
X119864000Y-114074000D02*
X121957000Y-114074000D01*
X151638000Y-120650000D02*
X160297500Y-120650000D01*
X117832000Y-107216000D02*
X119102000Y-105946000D01*
X121957000Y-114074000D02*
X122785000Y-113246000D01*
X135104000Y-119685500D02*
X140946000Y-119685500D01*
D33*
X150526000Y-97818000D02*
X162938000Y-97818000D01*
D37*
X124333000Y-122047000D02*
X132742500Y-122047000D01*
D38*
X117832000Y-113312000D02*
X117832000Y-114276000D01*
D39*
X138455100Y-109550500D02*
X137668000Y-110337600D01*
D38*
X133123500Y-121666000D02*
X135104000Y-119685500D01*
X140946000Y-119685500D02*
X150673500Y-119685500D01*
D39*
X137668000Y-110337600D02*
X137668000Y-113125099D01*
D37*
X148693000Y-99651000D02*
X150526000Y-97818000D01*
X148693000Y-100358000D02*
X148693000Y-99651000D01*
X117856000Y-113336000D02*
X117856000Y-120142000D01*
D39*
X137668000Y-113125099D02*
X138360520Y-113817619D01*
D33*
X114300000Y-107950000D02*
X117098000Y-107950000D01*
D39*
X138360520Y-113817619D02*
X138360520Y-116024480D01*
D37*
X117832000Y-113312000D02*
X117832000Y-107216000D01*
D38*
X117832000Y-113312000D02*
X117856000Y-113336000D01*
X150673500Y-119685500D02*
X151638000Y-120650000D01*
X160297500Y-120650000D02*
X160401000Y-120546500D01*
D37*
X132742500Y-122047000D02*
X133123500Y-121666000D01*
D39*
X136985500Y-119685500D02*
X136985500Y-117399500D01*
D36*
X162938000Y-97818000D02*
X164568000Y-99448000D01*
D38*
X119864000Y-114074000D02*
X118594000Y-114074000D01*
X118594000Y-114074000D02*
X117832000Y-113312000D01*
D37*
X122428000Y-120142000D02*
X124333000Y-122047000D01*
D39*
X138557000Y-109550500D02*
X138455100Y-109550500D01*
%TO.N,/Vout*%
X148656000Y-114251500D02*
X149144599Y-114251500D01*
D34*
X168044500Y-108815500D02*
X167132000Y-109728000D01*
X154548500Y-115090000D02*
X152593000Y-117045500D01*
D39*
X149144599Y-114251500D02*
X151938599Y-117045500D01*
D34*
X168910000Y-108815500D02*
X168044500Y-108815500D01*
X158345000Y-115090000D02*
X154548500Y-115090000D01*
D39*
X151938599Y-117045500D02*
X152593000Y-117045500D01*
D32*
%TO.N,/Vip*%
X129069000Y-109949000D02*
X128627000Y-110391000D01*
X129848500Y-109949000D02*
X129069000Y-109949000D01*
%TO.N,/Vin*%
X133912500Y-109949000D02*
X132621000Y-109949000D01*
D34*
X132621000Y-109949000D02*
X132588000Y-109982000D01*
D32*
X180697000Y-120650000D02*
X182324500Y-120650000D01*
D34*
%TO.N,Net-(Q1-Pad1)*%
X125022500Y-106454000D02*
X125947500Y-106454000D01*
X125947500Y-106454000D02*
X126897500Y-107404000D01*
X126897500Y-107404000D02*
X126897500Y-109060000D01*
%TO.N,Net-(Q2-Pad1)*%
X137184500Y-107404000D02*
X137456000Y-107675500D01*
X130707500Y-107404000D02*
X137184500Y-107404000D01*
%TO.N,Net-(Q14-Pad3)*%
X132769500Y-106454000D02*
X134292500Y-106454000D01*
X135866000Y-110883000D02*
X135850000Y-110899000D01*
X135866000Y-110010000D02*
X135866000Y-110883000D01*
X134342000Y-106503500D02*
X138184000Y-106503500D01*
X134292500Y-106454000D02*
X134342000Y-106503500D01*
X138184000Y-106503500D02*
X139356000Y-107675500D01*
%TO.N,/VBP*%
X129413000Y-115189000D02*
X129031500Y-114836000D01*
X129031500Y-114836000D02*
X126849000Y-112653500D01*
X125947500Y-110010000D02*
X126897500Y-110960000D01*
X146671500Y-111125000D02*
X146709500Y-111087000D01*
X125022500Y-110010000D02*
X125947500Y-110010000D01*
X145415000Y-111125000D02*
X146671500Y-111125000D01*
X126897500Y-110960000D02*
X126897500Y-112605000D01*
X126897500Y-112605000D02*
X126849000Y-112653500D01*
D32*
%TO.N,Net-(Q6-Pad2)*%
X146709500Y-107542000D02*
X146661000Y-107493500D01*
X146709500Y-109187000D02*
X146709500Y-107542000D01*
D39*
%TO.N,Net-(Q11-Pad2)*%
X149303500Y-115824000D02*
X149606000Y-116126500D01*
X146709500Y-113106500D02*
X147169000Y-113566000D01*
X144688489Y-110283011D02*
X144688489Y-111425932D01*
X145878557Y-112616000D02*
X146709500Y-112616000D01*
X144688489Y-111425932D02*
X145878557Y-112616000D01*
X148590000Y-115824000D02*
X149303500Y-115824000D01*
X144834500Y-110137000D02*
X144688489Y-110283011D01*
X146709500Y-112616000D02*
X148229500Y-112616000D01*
X148229500Y-112616000D02*
X148656000Y-112189500D01*
X146709500Y-112616000D02*
X146709500Y-113106500D01*
D34*
%TO.N,Net-(Q13-Pad2)*%
X129848500Y-111849000D02*
X130009500Y-111849000D01*
X130009500Y-111849000D02*
X131548000Y-113387500D01*
%TO.N,Net-(Q14-Pad2)*%
X133912500Y-113231400D02*
X133756400Y-113387500D01*
X133912500Y-111849000D02*
X133912500Y-113231400D01*
%TO.N,/VBN*%
X137558980Y-114300480D02*
X130682520Y-114300480D01*
D32*
X130810000Y-117094000D02*
X131614000Y-117898000D01*
X131614000Y-117898000D02*
X131614000Y-118920500D01*
X126897500Y-117094000D02*
X130175000Y-117094000D01*
D34*
X130682520Y-114300480D02*
X130175000Y-114808000D01*
D32*
X130175000Y-117094000D02*
X130810000Y-117094000D01*
D34*
X130175000Y-114808000D02*
X130175000Y-117094000D01*
%TO.N,Net-(Q15-Pad2)*%
X125022500Y-119644000D02*
X125947500Y-119644000D01*
X125947500Y-119644000D02*
X126897500Y-120594000D01*
X125022500Y-119644000D02*
X125022500Y-117945000D01*
%TO.N,Net-(Q16-Pad2)*%
X139507000Y-116525000D02*
X139507000Y-114475500D01*
X138533000Y-117499000D02*
X139507000Y-116525000D01*
X138533000Y-117860500D02*
X138533000Y-117499000D01*
%TO.N,Net-(Q17-Pad3)*%
X141268020Y-118182520D02*
X152805020Y-118182520D01*
X141168700Y-117860500D02*
X142986800Y-116042400D01*
X140946000Y-117860500D02*
X141168700Y-117860500D01*
X142986800Y-116042400D02*
X142986800Y-113967500D01*
X140946000Y-117860500D02*
X141268020Y-118182520D01*
X153543000Y-118920500D02*
X153964500Y-119342000D01*
X153964500Y-119342000D02*
X158163500Y-119342000D01*
X152805020Y-118182520D02*
X153543000Y-118920500D01*
%TO.N,Net-(Q20-Pad2)*%
X134574000Y-117860500D02*
X133514000Y-118920500D01*
X135636000Y-117860500D02*
X134574000Y-117860500D01*
%TO.N,Net-(Q20-Pad3)*%
X133756400Y-115212500D02*
X133756400Y-115853100D01*
X131548000Y-115967000D02*
X132564000Y-116983000D01*
X131548000Y-115212500D02*
X133756400Y-115212500D01*
X131548000Y-115212500D02*
X131548000Y-115967000D01*
X133756400Y-115853100D02*
X132564000Y-117045500D01*
D36*
%TO.N,Net-(Q12-Pad1)*%
X168632000Y-110918500D02*
X168910000Y-110640500D01*
X166981000Y-119321478D02*
X166981000Y-120133000D01*
D34*
X160938000Y-114090000D02*
X150717500Y-114090000D01*
D38*
X168910000Y-110640500D02*
X175006000Y-110640500D01*
D36*
X168632000Y-117670478D02*
X166981000Y-119321478D01*
X168632000Y-114300000D02*
X168632000Y-110918500D01*
D34*
X150717500Y-114090000D02*
X150556000Y-114251500D01*
D36*
X168632000Y-114300000D02*
X168632000Y-117670478D01*
D34*
X150556000Y-112189500D02*
X150556000Y-114251500D01*
X160938000Y-114090000D02*
X166981000Y-120133000D01*
%TO.N,Net-(Q4-Pad2)*%
X149606000Y-108279500D02*
X148820000Y-107493500D01*
D36*
X167362000Y-113000000D02*
X167362000Y-114300000D01*
D34*
X149606000Y-110314500D02*
X149606000Y-108279500D01*
D36*
X161855500Y-107493500D02*
X167362000Y-113000000D01*
D34*
%TO.N,Net-(Q17-Pad1)*%
X154493000Y-117033000D02*
X155194000Y-116332000D01*
X159131000Y-116332000D02*
X159202250Y-116403250D01*
X160123000Y-115482500D02*
X159202250Y-116403250D01*
X159202250Y-116403250D02*
X158163500Y-117442000D01*
X155194000Y-116332000D02*
X159131000Y-116332000D01*
D38*
X167282500Y-105259500D02*
X167108000Y-105434000D01*
D34*
X154493000Y-117045500D02*
X154493000Y-117033000D01*
X160123000Y-115090000D02*
X160123000Y-115482500D01*
D36*
X167108000Y-105434000D02*
X167108000Y-105739000D01*
D38*
X175006000Y-105259500D02*
X167282500Y-105259500D01*
D36*
X167108000Y-99448000D02*
X167108000Y-105434000D01*
D34*
%TO.N,Net-(Q21-Pad3)*%
X160071500Y-118392000D02*
X160401000Y-118721500D01*
D40*
X156337000Y-117348000D02*
X156337000Y-118343500D01*
D34*
X156288500Y-118392000D02*
X160071500Y-118392000D01*
D38*
%TO.N,/SPKR+*%
X193803000Y-106855000D02*
X192053489Y-108604511D01*
X193348480Y-116498480D02*
X193548000Y-116498480D01*
X192053489Y-108604511D02*
X192053489Y-115203489D01*
X192053489Y-115203489D02*
X193348480Y-116498480D01*
D32*
%TO.N,Net-(R19-Pad2)*%
X178872000Y-120650000D02*
X177141000Y-120650000D01*
D34*
%TO.N,Net-(C6-Pad2)*%
X131723500Y-110899000D02*
X131723500Y-110062500D01*
X142899500Y-109489500D02*
X143039000Y-109629000D01*
X142089000Y-108486000D02*
X142851000Y-108486000D01*
D39*
X142851000Y-108486000D02*
X142899500Y-108534500D01*
D34*
X128832500Y-106454000D02*
X128832500Y-107945500D01*
X142899500Y-108534500D02*
X142899500Y-109489500D01*
X142899500Y-107531000D02*
X142899500Y-108534500D01*
X130401000Y-108740000D02*
X136247000Y-108740000D01*
X129627000Y-108740000D02*
X130401000Y-108740000D01*
X131723500Y-110062500D02*
X130401000Y-108740000D01*
X128832500Y-107945500D02*
X129627000Y-108740000D01*
%TO.N,Net-(C6-Pad1)*%
X138684000Y-112600500D02*
X138684000Y-112084000D01*
X141986000Y-112092500D02*
X143361000Y-112092500D01*
X138684000Y-112600500D02*
X141478000Y-112600500D01*
X141139000Y-109629000D02*
X141139000Y-106847500D01*
X145759500Y-113566000D02*
X146709500Y-114516000D01*
X141139000Y-106847500D02*
X141405500Y-106581000D01*
X141478000Y-112600500D02*
X141986000Y-112092500D01*
X141086800Y-113967500D02*
X141139000Y-109629000D01*
X143361000Y-112092500D02*
X144834500Y-113566000D01*
X138684000Y-112084000D02*
X141139000Y-109629000D01*
X141986000Y-112092500D02*
X141086800Y-113967500D01*
X144834500Y-113566000D02*
X145759500Y-113566000D01*
X141139000Y-111245500D02*
X141986000Y-112092500D01*
%TD*%
%TA.AperFunction,Conductor*%
%TO.N,/Vout*%
G36*
X182921589Y-106192002D02*
G01*
X182942563Y-106208905D01*
X183097095Y-106363437D01*
X183131121Y-106425749D01*
X183134000Y-106452532D01*
X183134000Y-111698848D01*
X183127922Y-111732380D01*
X183128855Y-111732602D01*
X183127027Y-111740290D01*
X183124255Y-111747684D01*
X183117500Y-111809866D01*
X183117500Y-114306134D01*
X183124255Y-114368316D01*
X183127027Y-114375710D01*
X183128855Y-114383398D01*
X183127922Y-114383620D01*
X183134000Y-114417152D01*
X183134000Y-116206000D01*
X183113998Y-116274121D01*
X183060342Y-116320614D01*
X183008000Y-116332000D01*
X174624000Y-116332000D01*
X174555879Y-116311998D01*
X174509386Y-116258342D01*
X174498000Y-116206000D01*
X174498000Y-114892000D01*
X174518002Y-114823879D01*
X174571658Y-114777386D01*
X174624000Y-114766000D01*
X177607885Y-114766000D01*
X177623124Y-114761525D01*
X177624329Y-114760135D01*
X177626000Y-114752452D01*
X177626000Y-114747884D01*
X178626000Y-114747884D01*
X178630475Y-114763123D01*
X178631865Y-114764328D01*
X178639548Y-114765999D01*
X181670669Y-114765999D01*
X181677490Y-114765629D01*
X181728352Y-114760105D01*
X181743604Y-114756479D01*
X181864054Y-114711324D01*
X181879649Y-114702786D01*
X181981724Y-114626285D01*
X181994285Y-114613724D01*
X182070786Y-114511649D01*
X182079324Y-114496054D01*
X182124478Y-114375606D01*
X182128105Y-114360351D01*
X182133631Y-114309486D01*
X182134000Y-114302672D01*
X182134000Y-113576115D01*
X182129525Y-113560876D01*
X182128135Y-113559671D01*
X182120452Y-113558000D01*
X178644115Y-113558000D01*
X178628876Y-113562475D01*
X178627671Y-113563865D01*
X178626000Y-113571548D01*
X178626000Y-114747884D01*
X177626000Y-114747884D01*
X177626000Y-112539885D01*
X178626000Y-112539885D01*
X178630475Y-112555124D01*
X178631865Y-112556329D01*
X178639548Y-112558000D01*
X182115884Y-112558000D01*
X182131123Y-112553525D01*
X182132328Y-112552135D01*
X182133999Y-112544452D01*
X182133999Y-111813331D01*
X182133629Y-111806510D01*
X182128105Y-111755648D01*
X182124479Y-111740396D01*
X182079324Y-111619946D01*
X182070786Y-111604351D01*
X181994285Y-111502276D01*
X181981724Y-111489715D01*
X181879649Y-111413214D01*
X181864054Y-111404676D01*
X181743606Y-111359522D01*
X181728351Y-111355895D01*
X181677486Y-111350369D01*
X181670672Y-111350000D01*
X178644115Y-111350001D01*
X178628876Y-111354476D01*
X178627671Y-111355866D01*
X178626000Y-111363549D01*
X178626000Y-112539885D01*
X177626000Y-112539885D01*
X177626000Y-111368116D01*
X177621525Y-111352877D01*
X177620135Y-111351672D01*
X177612452Y-111350001D01*
X176656000Y-111350001D01*
X176587879Y-111329999D01*
X176541386Y-111276343D01*
X176530000Y-111224001D01*
X176530000Y-109728000D01*
X176171482Y-109728000D01*
X176103361Y-109707998D01*
X176056868Y-109654342D01*
X176046764Y-109584068D01*
X176064222Y-109535884D01*
X176143816Y-109406757D01*
X176149963Y-109393576D01*
X176170157Y-109332694D01*
X176170646Y-109318601D01*
X176164435Y-109315500D01*
X168536000Y-109315500D01*
X168467879Y-109295498D01*
X168421386Y-109241842D01*
X168410000Y-109189500D01*
X168410000Y-108297385D01*
X169410000Y-108297385D01*
X169414475Y-108312624D01*
X169415865Y-108313829D01*
X169423548Y-108315500D01*
X170423885Y-108315500D01*
X170439124Y-108311025D01*
X170440329Y-108309635D01*
X170442000Y-108301952D01*
X170442000Y-108297385D01*
X171442000Y-108297385D01*
X171446475Y-108312624D01*
X171447865Y-108313829D01*
X171455548Y-108315500D01*
X172455885Y-108315500D01*
X172471124Y-108311025D01*
X172472329Y-108309635D01*
X172474000Y-108301952D01*
X172474000Y-108163115D01*
X172462084Y-108122533D01*
X172451105Y-108105450D01*
X172446000Y-108069949D01*
X172446000Y-107736885D01*
X173446000Y-107736885D01*
X173457916Y-107777467D01*
X173468895Y-107794550D01*
X173474000Y-107830051D01*
X173474000Y-108297385D01*
X173478475Y-108312624D01*
X173479865Y-108313829D01*
X173487548Y-108315500D01*
X174487885Y-108315500D01*
X174503124Y-108311025D01*
X174504329Y-108309635D01*
X174506000Y-108301952D01*
X174506000Y-108297385D01*
X175506000Y-108297385D01*
X175510475Y-108312624D01*
X175511865Y-108313829D01*
X175519548Y-108315500D01*
X176157748Y-108315500D01*
X176171279Y-108311527D01*
X176172260Y-108304701D01*
X176149412Y-108236216D01*
X176143239Y-108223038D01*
X176057937Y-108085193D01*
X176048901Y-108073792D01*
X176014184Y-108039136D01*
X175980104Y-107976853D01*
X175985107Y-107906033D01*
X176014028Y-107860944D01*
X176049739Y-107825171D01*
X176058751Y-107813760D01*
X176143816Y-107675757D01*
X176149963Y-107662576D01*
X176170157Y-107601694D01*
X176170646Y-107587601D01*
X176164435Y-107584500D01*
X175524115Y-107584500D01*
X175508876Y-107588975D01*
X175507671Y-107590365D01*
X175506000Y-107598048D01*
X175506000Y-108297385D01*
X174506000Y-108297385D01*
X174506000Y-107602615D01*
X174501525Y-107587376D01*
X174500135Y-107586171D01*
X174492452Y-107584500D01*
X173464115Y-107584500D01*
X173448876Y-107588975D01*
X173447671Y-107590365D01*
X173446000Y-107598048D01*
X173446000Y-107736885D01*
X172446000Y-107736885D01*
X172446000Y-107602615D01*
X172441525Y-107587376D01*
X172440135Y-107586171D01*
X172432452Y-107584500D01*
X171460115Y-107584500D01*
X171444876Y-107588975D01*
X171443671Y-107590365D01*
X171442000Y-107598048D01*
X171442000Y-108297385D01*
X170442000Y-108297385D01*
X170442000Y-107602615D01*
X170437525Y-107587376D01*
X170436135Y-107586171D01*
X170428452Y-107584500D01*
X169428115Y-107584500D01*
X169412876Y-107588975D01*
X169411671Y-107590365D01*
X169410000Y-107598048D01*
X169410000Y-108297385D01*
X168410000Y-108297385D01*
X168410000Y-106710500D01*
X168430002Y-106642379D01*
X168483658Y-106595886D01*
X168536000Y-106584500D01*
X176157748Y-106584500D01*
X176171279Y-106580527D01*
X176172260Y-106573701D01*
X176149412Y-106505216D01*
X176143239Y-106492038D01*
X176064193Y-106364303D01*
X176045355Y-106295852D01*
X176066516Y-106228082D01*
X176120957Y-106182511D01*
X176171337Y-106172000D01*
X182853468Y-106172000D01*
X182921589Y-106192002D01*
G37*
%TD.AperFunction*%
%TD*%
%TA.AperFunction,Conductor*%
%TO.N,/VBN*%
G36*
X125591952Y-113967002D02*
G01*
X125638445Y-114020658D01*
X125649175Y-114085841D01*
X125641328Y-114162435D01*
X125641000Y-114168855D01*
X125641000Y-114206385D01*
X125645475Y-114221624D01*
X125646865Y-114222829D01*
X125654548Y-114224500D01*
X126977000Y-114224500D01*
X127045121Y-114244502D01*
X127091614Y-114298158D01*
X127103000Y-114350500D01*
X127103000Y-115480884D01*
X127107475Y-115496123D01*
X127108865Y-115497328D01*
X127116548Y-115498999D01*
X127346095Y-115498999D01*
X127352614Y-115498662D01*
X127448206Y-115488743D01*
X127461600Y-115485851D01*
X127615784Y-115434412D01*
X127628958Y-115428241D01*
X127672696Y-115401174D01*
X127741148Y-115382336D01*
X127808918Y-115403497D01*
X127854489Y-115457937D01*
X127865000Y-115508318D01*
X127865000Y-116201377D01*
X127844998Y-116269498D01*
X127791342Y-116315991D01*
X127721068Y-116326095D01*
X127703846Y-116322374D01*
X127594935Y-116290731D01*
X127582333Y-116288430D01*
X127553916Y-116286193D01*
X127548986Y-116286000D01*
X127169615Y-116286000D01*
X127154376Y-116290475D01*
X127153171Y-116291865D01*
X127151500Y-116299548D01*
X127151500Y-117222000D01*
X127131498Y-117290121D01*
X127077842Y-117336614D01*
X127025500Y-117348000D01*
X126769500Y-117348000D01*
X126701379Y-117327998D01*
X126654886Y-117274342D01*
X126643500Y-117222000D01*
X126643500Y-116304116D01*
X126639025Y-116288877D01*
X126637635Y-116287672D01*
X126629952Y-116286001D01*
X126326115Y-116286001D01*
X126310876Y-116290476D01*
X126309671Y-116291866D01*
X126308167Y-116298781D01*
X126274143Y-116361094D01*
X126211831Y-116395120D01*
X126185046Y-116398000D01*
X124894500Y-116398000D01*
X124826379Y-116377998D01*
X124779886Y-116324342D01*
X124768500Y-116272000D01*
X124768500Y-115871885D01*
X125276500Y-115871885D01*
X125280975Y-115887124D01*
X125282365Y-115888329D01*
X125290048Y-115890000D01*
X126246878Y-115890000D01*
X126260409Y-115886027D01*
X126261544Y-115878129D01*
X126220893Y-115738210D01*
X126214648Y-115723779D01*
X126191609Y-115684822D01*
X126174150Y-115616006D01*
X126196667Y-115548675D01*
X126252011Y-115504205D01*
X126312905Y-115495339D01*
X126345438Y-115498672D01*
X126351854Y-115499000D01*
X126576885Y-115499000D01*
X126592124Y-115494525D01*
X126593329Y-115493135D01*
X126595000Y-115485452D01*
X126595000Y-114750615D01*
X126590525Y-114735376D01*
X126589135Y-114734171D01*
X126581452Y-114732500D01*
X125659116Y-114732500D01*
X125643877Y-114736975D01*
X125642672Y-114738365D01*
X125641001Y-114746048D01*
X125641001Y-114788095D01*
X125641338Y-114794614D01*
X125651257Y-114890206D01*
X125654149Y-114903600D01*
X125705588Y-115057784D01*
X125711762Y-115070963D01*
X125756771Y-115143697D01*
X125775609Y-115212149D01*
X125754448Y-115279919D01*
X125700007Y-115325490D01*
X125649627Y-115336000D01*
X125294615Y-115336000D01*
X125279376Y-115340475D01*
X125278171Y-115341865D01*
X125276500Y-115349548D01*
X125276500Y-115871885D01*
X124768500Y-115871885D01*
X124768500Y-115354116D01*
X124764025Y-115338877D01*
X124762635Y-115337672D01*
X124754952Y-115336001D01*
X124371017Y-115336001D01*
X124366080Y-115336195D01*
X124337664Y-115338430D01*
X124325069Y-115340730D01*
X124179210Y-115383107D01*
X124164775Y-115389354D01*
X124118138Y-115416934D01*
X124049322Y-115434393D01*
X123981991Y-115411876D01*
X123937522Y-115356531D01*
X123928000Y-115308480D01*
X123928000Y-114073000D01*
X123948002Y-114004879D01*
X124001658Y-113958386D01*
X124054000Y-113947000D01*
X125523831Y-113947000D01*
X125591952Y-113967002D01*
G37*
%TD.AperFunction*%
%TD*%
%TA.AperFunction,Conductor*%
%TO.N,-15V*%
G36*
X150968121Y-97338002D02*
G01*
X151014614Y-97391658D01*
X151026000Y-97444000D01*
X151026000Y-99507884D01*
X151030475Y-99523123D01*
X151031865Y-99524328D01*
X151039548Y-99525999D01*
X152377000Y-99525999D01*
X152445121Y-99546001D01*
X152491614Y-99599657D01*
X152503000Y-99651999D01*
X152503000Y-101502000D01*
X152482998Y-101570121D01*
X152429342Y-101616614D01*
X152377000Y-101628000D01*
X146533000Y-101628000D01*
X146464879Y-101607998D01*
X146418386Y-101554342D01*
X146407000Y-101502000D01*
X146407000Y-99417414D01*
X146427002Y-99349293D01*
X146480658Y-99302800D01*
X146550932Y-99292696D01*
X146615512Y-99322190D01*
X146633826Y-99341849D01*
X146657715Y-99373724D01*
X146670276Y-99386285D01*
X146772351Y-99462786D01*
X146787946Y-99471324D01*
X146908394Y-99516478D01*
X146923649Y-99520105D01*
X146974514Y-99525631D01*
X146981328Y-99526000D01*
X150007885Y-99525999D01*
X150023124Y-99521524D01*
X150024329Y-99520134D01*
X150026000Y-99512451D01*
X150026000Y-97444000D01*
X150046002Y-97375879D01*
X150099658Y-97329386D01*
X150152000Y-97318000D01*
X150900000Y-97318000D01*
X150968121Y-97338002D01*
G37*
%TD.AperFunction*%
%TD*%
%TA.AperFunction,Conductor*%
%TO.N,GND*%
G36*
X107911038Y-90472002D02*
G01*
X107932012Y-90488905D01*
X109207188Y-91764081D01*
X109221132Y-91771695D01*
X109222965Y-91771564D01*
X109229580Y-91767313D01*
X110507988Y-90488905D01*
X110570300Y-90454879D01*
X110597083Y-90452000D01*
X196845917Y-90452000D01*
X196914038Y-90472002D01*
X196935012Y-90488905D01*
X198210188Y-91764081D01*
X198224132Y-91771695D01*
X198225965Y-91771564D01*
X198232580Y-91767313D01*
X199510988Y-90488905D01*
X199573300Y-90454879D01*
X199600083Y-90452000D01*
X200026000Y-90452000D01*
X200094121Y-90472002D01*
X200140614Y-90525658D01*
X200152000Y-90578000D01*
X200152000Y-91209917D01*
X200131998Y-91278038D01*
X200115095Y-91299012D01*
X198942919Y-92471188D01*
X198935305Y-92485132D01*
X198935436Y-92486965D01*
X198939687Y-92493580D01*
X200115095Y-93668988D01*
X200149121Y-93731300D01*
X200152000Y-93758083D01*
X200152000Y-124352917D01*
X200131998Y-124421038D01*
X200115095Y-124442012D01*
X198839919Y-125717188D01*
X198832305Y-125731132D01*
X198832436Y-125732965D01*
X198836687Y-125739580D01*
X200115095Y-127017988D01*
X200149121Y-127080300D01*
X200152000Y-127107083D01*
X200152000Y-127636000D01*
X200131998Y-127704121D01*
X200078342Y-127750614D01*
X200026000Y-127762000D01*
X199497083Y-127762000D01*
X199428962Y-127741998D01*
X199407988Y-127725095D01*
X198132812Y-126449919D01*
X198118868Y-126442305D01*
X198117035Y-126442436D01*
X198110420Y-126446687D01*
X196832012Y-127725095D01*
X196769700Y-127759121D01*
X196742917Y-127762000D01*
X178870835Y-127762000D01*
X178802714Y-127741998D01*
X178756221Y-127688342D01*
X178746117Y-127618068D01*
X178775611Y-127553488D01*
X178829051Y-127517651D01*
X178831510Y-127517119D01*
X178870813Y-127498792D01*
X178882589Y-127494010D01*
X178923552Y-127479745D01*
X178929527Y-127476011D01*
X178929530Y-127476010D01*
X178951995Y-127461973D01*
X178965512Y-127454634D01*
X178989514Y-127443441D01*
X178989515Y-127443440D01*
X178995902Y-127440462D01*
X179030153Y-127413894D01*
X179040612Y-127406598D01*
X179071404Y-127387358D01*
X179071407Y-127387356D01*
X179077376Y-127383626D01*
X179106179Y-127355024D01*
X179106804Y-127354439D01*
X179107470Y-127353922D01*
X179133460Y-127327932D01*
X179206082Y-127255815D01*
X179206740Y-127254778D01*
X179207843Y-127253549D01*
X179630115Y-126831277D01*
X179692427Y-126797251D01*
X179748626Y-126797854D01*
X179772289Y-126803535D01*
X180009000Y-126822165D01*
X180245711Y-126803535D01*
X180250518Y-126802381D01*
X180250524Y-126802380D01*
X180396391Y-126767360D01*
X180476594Y-126748105D01*
X180481167Y-126746211D01*
X180691389Y-126659135D01*
X180691393Y-126659133D01*
X180695963Y-126657240D01*
X180765832Y-126614424D01*
X180894202Y-126535759D01*
X180894208Y-126535755D01*
X180898416Y-126533176D01*
X181078969Y-126378969D01*
X181233176Y-126198416D01*
X181235755Y-126194208D01*
X181235759Y-126194202D01*
X181354654Y-126000183D01*
X181357240Y-125995963D01*
X181384768Y-125929506D01*
X181446211Y-125781167D01*
X181446212Y-125781165D01*
X181448105Y-125776594D01*
X181458341Y-125733958D01*
X195707488Y-125733958D01*
X195726015Y-126028436D01*
X195727008Y-126036297D01*
X195782296Y-126326128D01*
X195784267Y-126333805D01*
X195875446Y-126614424D01*
X195878361Y-126621787D01*
X196003993Y-126888770D01*
X196007805Y-126895703D01*
X196091035Y-127026853D01*
X196101641Y-127036150D01*
X196110914Y-127031979D01*
X197400081Y-125742812D01*
X197407695Y-125728868D01*
X197407564Y-125727035D01*
X197403313Y-125720420D01*
X196113555Y-124430662D01*
X196101175Y-124423902D01*
X196093035Y-124429995D01*
X196007805Y-124564297D01*
X196003993Y-124571230D01*
X195878361Y-124838213D01*
X195875446Y-124845576D01*
X195784267Y-125126195D01*
X195782296Y-125133872D01*
X195727008Y-125423703D01*
X195726015Y-125431564D01*
X195707488Y-125726042D01*
X195707488Y-125733958D01*
X181458341Y-125733958D01*
X181481792Y-125636277D01*
X181502380Y-125550524D01*
X181502381Y-125550518D01*
X181503535Y-125545711D01*
X181522165Y-125309000D01*
X181503535Y-125072289D01*
X181490306Y-125017183D01*
X181449260Y-124846218D01*
X181448105Y-124841406D01*
X181357240Y-124622037D01*
X181271854Y-124482700D01*
X181235759Y-124423798D01*
X181235755Y-124423792D01*
X181233176Y-124419584D01*
X181078969Y-124239031D01*
X180898416Y-124084824D01*
X180877664Y-124072107D01*
X180830034Y-124019462D01*
X180817500Y-123964676D01*
X180817500Y-123289863D01*
X180837502Y-123221742D01*
X180891158Y-123175249D01*
X180961432Y-123165145D01*
X181026012Y-123194639D01*
X181066019Y-123260449D01*
X181069895Y-123276594D01*
X181071788Y-123281165D01*
X181071789Y-123281167D01*
X181116886Y-123390040D01*
X181160760Y-123495963D01*
X181163346Y-123500183D01*
X181282241Y-123694202D01*
X181282245Y-123694208D01*
X181284824Y-123698416D01*
X181439031Y-123878969D01*
X181619584Y-124033176D01*
X181623792Y-124035755D01*
X181623798Y-124035759D01*
X181817817Y-124154654D01*
X181822037Y-124157240D01*
X181826607Y-124159133D01*
X181826611Y-124159135D01*
X182011754Y-124235823D01*
X182041406Y-124248105D01*
X182121609Y-124267360D01*
X182267476Y-124302380D01*
X182267482Y-124302381D01*
X182272289Y-124303535D01*
X182509000Y-124322165D01*
X182745711Y-124303535D01*
X182750518Y-124302381D01*
X182750524Y-124302380D01*
X182896391Y-124267360D01*
X182976594Y-124248105D01*
X183006246Y-124235823D01*
X183191389Y-124159135D01*
X183191393Y-124159133D01*
X183195963Y-124157240D01*
X183200183Y-124154654D01*
X183394202Y-124035759D01*
X183394208Y-124035755D01*
X183398416Y-124033176D01*
X183578969Y-123878969D01*
X183724323Y-123708781D01*
X196811846Y-123708781D01*
X196818750Y-123721643D01*
X198107188Y-125010081D01*
X198121132Y-125017695D01*
X198122965Y-125017564D01*
X198129580Y-125013313D01*
X199421575Y-123721318D01*
X199428188Y-123709208D01*
X199419358Y-123697587D01*
X199416024Y-123695165D01*
X199409357Y-123690934D01*
X199150766Y-123548772D01*
X199143631Y-123545415D01*
X198869254Y-123436781D01*
X198861763Y-123434347D01*
X198575941Y-123360961D01*
X198568170Y-123359479D01*
X198275430Y-123322497D01*
X198267540Y-123322000D01*
X197972460Y-123322000D01*
X197964570Y-123322497D01*
X197671830Y-123359479D01*
X197664059Y-123360961D01*
X197378237Y-123434347D01*
X197370746Y-123436781D01*
X197096369Y-123545415D01*
X197089234Y-123548772D01*
X196830643Y-123690934D01*
X196823976Y-123695165D01*
X196820270Y-123697858D01*
X196811846Y-123708781D01*
X183724323Y-123708781D01*
X183733176Y-123698416D01*
X183735755Y-123694208D01*
X183735759Y-123694202D01*
X183854654Y-123500183D01*
X183857240Y-123495963D01*
X183901115Y-123390040D01*
X183946211Y-123281167D01*
X183946212Y-123281165D01*
X183948105Y-123276594D01*
X183974726Y-123165708D01*
X184002380Y-123050524D01*
X184002381Y-123050518D01*
X184003535Y-123045711D01*
X184022165Y-122809000D01*
X184003535Y-122572289D01*
X183997854Y-122548626D01*
X184001399Y-122477719D01*
X184031277Y-122430115D01*
X184615726Y-121845666D01*
X184664942Y-121815239D01*
X184735946Y-121791550D01*
X184742913Y-121787239D01*
X184880120Y-121702332D01*
X184886348Y-121698478D01*
X184897538Y-121687269D01*
X185006134Y-121578483D01*
X185011305Y-121573303D01*
X185040530Y-121525892D01*
X185100275Y-121428968D01*
X185100276Y-121428966D01*
X185104115Y-121422738D01*
X185159797Y-121254861D01*
X185170500Y-121150400D01*
X185170500Y-120149600D01*
X185169933Y-120144135D01*
X185160238Y-120050692D01*
X185160237Y-120050688D01*
X185159526Y-120043834D01*
X185157311Y-120037193D01*
X185105868Y-119883002D01*
X185103550Y-119876054D01*
X185010478Y-119725652D01*
X185005296Y-119720479D01*
X185000749Y-119714742D01*
X185002110Y-119713663D01*
X184972413Y-119659391D01*
X184977416Y-119588571D01*
X185019912Y-119531698D01*
X185086411Y-119506829D01*
X185095510Y-119506500D01*
X190927001Y-119506500D01*
X190929509Y-119506298D01*
X190929514Y-119506298D01*
X191102924Y-119492346D01*
X191102929Y-119492345D01*
X191107965Y-119491940D01*
X191112873Y-119490734D01*
X191112876Y-119490734D01*
X191338792Y-119435244D01*
X191343706Y-119434037D01*
X191348358Y-119432062D01*
X191348362Y-119432061D01*
X191520675Y-119358918D01*
X191567156Y-119339188D01*
X191655259Y-119283706D01*
X191768288Y-119212528D01*
X191768291Y-119212526D01*
X191772567Y-119209833D01*
X191854062Y-119137986D01*
X191918388Y-119107941D01*
X191937387Y-119106500D01*
X193600846Y-119106500D01*
X193758566Y-119091452D01*
X193961534Y-119031908D01*
X193983715Y-119020484D01*
X194041407Y-119006500D01*
X194346134Y-119006500D01*
X194408316Y-118999745D01*
X194544705Y-118948615D01*
X194661261Y-118861261D01*
X194748615Y-118744705D01*
X194799745Y-118608316D01*
X194806500Y-118546134D01*
X194806500Y-117449866D01*
X194799745Y-117387684D01*
X194796971Y-117380285D01*
X194796225Y-117377146D01*
X194796225Y-117318854D01*
X194796971Y-117315715D01*
X194799745Y-117308316D01*
X194806500Y-117246134D01*
X194806500Y-116149866D01*
X194799745Y-116087684D01*
X194748615Y-115951295D01*
X194661261Y-115834739D01*
X194620557Y-115804233D01*
X194551887Y-115752767D01*
X194551884Y-115752765D01*
X194544705Y-115747385D01*
X194508771Y-115733914D01*
X194453037Y-115692635D01*
X194444584Y-115681618D01*
X194444577Y-115681610D01*
X194441169Y-115677169D01*
X194338021Y-115583312D01*
X194285758Y-115535756D01*
X194285755Y-115535754D01*
X194281611Y-115531983D01*
X194243886Y-115508318D01*
X194103621Y-115420329D01*
X194103617Y-115420327D01*
X194098865Y-115417346D01*
X193918004Y-115344640D01*
X193875906Y-115316829D01*
X193298894Y-114739817D01*
X193264868Y-114677505D01*
X193261989Y-114650722D01*
X193261989Y-113488803D01*
X194563924Y-113488803D01*
X194569892Y-113496775D01*
X194625262Y-113531509D01*
X194632816Y-113535560D01*
X194874520Y-113644694D01*
X194882551Y-113647680D01*
X195136832Y-113723002D01*
X195145184Y-113724869D01*
X195407340Y-113764984D01*
X195415874Y-113765700D01*
X195681045Y-113769867D01*
X195689596Y-113769418D01*
X195952883Y-113737557D01*
X195961284Y-113735955D01*
X196217824Y-113668653D01*
X196225926Y-113665926D01*
X196470949Y-113564434D01*
X196478617Y-113560628D01*
X196585996Y-113497881D01*
X196595672Y-113487626D01*
X196592354Y-113479461D01*
X195592812Y-112479919D01*
X195578868Y-112472305D01*
X195577035Y-112472436D01*
X195570420Y-112476687D01*
X194570684Y-113476423D01*
X194563924Y-113488803D01*
X193261989Y-113488803D01*
X193261989Y-111743204D01*
X193567665Y-111743204D01*
X193582932Y-112007969D01*
X193584005Y-112016470D01*
X193635065Y-112276722D01*
X193637276Y-112284974D01*
X193723184Y-112535894D01*
X193726499Y-112543779D01*
X193842165Y-112773755D01*
X193847899Y-112778415D01*
X193861619Y-112771274D01*
X194860081Y-111772812D01*
X194866459Y-111761132D01*
X196292305Y-111761132D01*
X196292436Y-111762965D01*
X196296687Y-111769580D01*
X197296889Y-112769782D01*
X197309269Y-112776542D01*
X197315533Y-112771853D01*
X197407962Y-112601620D01*
X197411530Y-112593827D01*
X197505271Y-112345750D01*
X197507748Y-112337544D01*
X197566954Y-112079038D01*
X197568294Y-112070577D01*
X197592031Y-111804616D01*
X197592277Y-111799677D01*
X197592666Y-111762485D01*
X197592523Y-111757519D01*
X197574362Y-111491123D01*
X197573201Y-111482649D01*
X197519419Y-111222944D01*
X197517120Y-111214709D01*
X197428588Y-110964705D01*
X197425191Y-110956855D01*
X197319477Y-110752038D01*
X197309740Y-110741836D01*
X197302900Y-110744207D01*
X196299919Y-111747188D01*
X196292305Y-111761132D01*
X194866459Y-111761132D01*
X194867695Y-111758868D01*
X194867564Y-111757035D01*
X194863313Y-111750420D01*
X193862461Y-110749568D01*
X193850081Y-110742808D01*
X193844057Y-110747318D01*
X193743325Y-110937567D01*
X193739839Y-110945395D01*
X193648700Y-111194446D01*
X193646311Y-111202670D01*
X193589812Y-111461795D01*
X193588563Y-111470250D01*
X193567754Y-111734653D01*
X193567665Y-111743204D01*
X193261989Y-111743204D01*
X193261989Y-110032308D01*
X194564335Y-110032308D01*
X194567878Y-110040771D01*
X195567188Y-111040081D01*
X195581132Y-111047695D01*
X195582965Y-111047564D01*
X195589580Y-111043313D01*
X196588993Y-110043900D01*
X196595753Y-110031520D01*
X196590026Y-110023870D01*
X196516122Y-109978582D01*
X196508552Y-109974624D01*
X196265704Y-109868022D01*
X196257644Y-109865120D01*
X196002592Y-109792467D01*
X195994214Y-109790685D01*
X195731656Y-109753318D01*
X195723111Y-109752691D01*
X195457908Y-109751302D01*
X195449374Y-109751839D01*
X195186433Y-109786456D01*
X195178035Y-109788149D01*
X194922238Y-109858127D01*
X194914143Y-109860946D01*
X194670199Y-109964997D01*
X194662576Y-109968881D01*
X194573906Y-110021949D01*
X194564335Y-110032308D01*
X193261989Y-110032308D01*
X193261989Y-109157278D01*
X193281991Y-109089157D01*
X193298894Y-109068183D01*
X193705501Y-108661576D01*
X193767813Y-108627550D01*
X193838825Y-108632689D01*
X193962282Y-108678971D01*
X193962288Y-108678973D01*
X193969684Y-108681745D01*
X194031866Y-108688500D01*
X197128134Y-108688500D01*
X197190316Y-108681745D01*
X197326705Y-108630615D01*
X197443261Y-108543261D01*
X197530615Y-108426705D01*
X197581745Y-108290316D01*
X197588500Y-108228134D01*
X197588500Y-105131866D01*
X197581745Y-105069684D01*
X197530615Y-104933295D01*
X197443261Y-104816739D01*
X197326705Y-104729385D01*
X197190316Y-104678255D01*
X197128134Y-104671500D01*
X195757031Y-104671500D01*
X195688910Y-104651498D01*
X195667936Y-104634595D01*
X191171405Y-100138064D01*
X191137379Y-100075752D01*
X191134500Y-100048969D01*
X191134500Y-98220866D01*
X191127745Y-98158684D01*
X191076615Y-98022295D01*
X190989261Y-97905739D01*
X190872705Y-97818385D01*
X190736316Y-97767255D01*
X190674134Y-97760500D01*
X183577866Y-97760500D01*
X183515684Y-97767255D01*
X183379295Y-97818385D01*
X183262739Y-97905739D01*
X183175385Y-98022295D01*
X183124255Y-98158684D01*
X183117500Y-98220866D01*
X183117500Y-100717134D01*
X183124255Y-100779316D01*
X183175385Y-100915705D01*
X183262739Y-101032261D01*
X183379295Y-101119615D01*
X183515684Y-101170745D01*
X183577866Y-101177500D01*
X187891969Y-101177500D01*
X187960090Y-101197502D01*
X187981064Y-101214405D01*
X192768696Y-106002037D01*
X192802722Y-106064349D01*
X192797657Y-106135164D01*
X192768696Y-106180227D01*
X191261241Y-107687682D01*
X191248850Y-107698549D01*
X191236629Y-107707926D01*
X191236625Y-107707930D01*
X191232178Y-107711342D01*
X191228403Y-107715491D01*
X191179587Y-107769139D01*
X191175488Y-107773435D01*
X191160247Y-107788676D01*
X191158446Y-107790829D01*
X191158445Y-107790831D01*
X191144229Y-107807833D01*
X191140768Y-107811800D01*
X191086992Y-107870900D01*
X191084009Y-107875655D01*
X191078018Y-107885204D01*
X191067948Y-107899064D01*
X191057119Y-107912016D01*
X191021689Y-107974131D01*
X191017527Y-107981428D01*
X191014831Y-107985933D01*
X190972355Y-108053646D01*
X190970261Y-108058856D01*
X190970260Y-108058857D01*
X190966058Y-108069310D01*
X190958599Y-108084739D01*
X190950236Y-108099402D01*
X190948365Y-108104685D01*
X190948362Y-108104692D01*
X190923559Y-108174735D01*
X190921704Y-108179643D01*
X190891892Y-108253804D01*
X190890753Y-108259302D01*
X190890753Y-108259303D01*
X190888467Y-108270341D01*
X190883862Y-108286837D01*
X190878225Y-108302755D01*
X190877319Y-108308289D01*
X190877318Y-108308292D01*
X190865315Y-108381594D01*
X190864353Y-108386785D01*
X190848145Y-108465048D01*
X190847879Y-108469659D01*
X190847879Y-108469660D01*
X190846621Y-108491477D01*
X190845174Y-108504582D01*
X190844767Y-108507072D01*
X190843363Y-108515645D01*
X190843451Y-108521259D01*
X190843451Y-108521261D01*
X190844973Y-108618146D01*
X190844989Y-108620125D01*
X190844989Y-111227631D01*
X190824987Y-111295752D01*
X190771331Y-111342245D01*
X190705383Y-111352894D01*
X190677536Y-111349869D01*
X190677526Y-111349868D01*
X190674134Y-111349500D01*
X188760500Y-111349500D01*
X188692379Y-111329498D01*
X188645886Y-111275842D01*
X188634500Y-111223500D01*
X188634500Y-108283002D01*
X188634549Y-108279483D01*
X188637193Y-108184850D01*
X188637193Y-108184847D01*
X188637334Y-108179795D01*
X188626941Y-108101902D01*
X188626241Y-108095353D01*
X188624189Y-108069840D01*
X188622254Y-108045799D01*
X188620346Y-108022077D01*
X188620345Y-108022073D01*
X188619940Y-108017035D01*
X188612101Y-107985122D01*
X188609573Y-107971738D01*
X188605898Y-107944194D01*
X188605229Y-107939180D01*
X188601415Y-107926547D01*
X188582522Y-107863971D01*
X188580781Y-107857608D01*
X188572631Y-107824427D01*
X188562037Y-107781294D01*
X188549199Y-107751048D01*
X188544561Y-107738237D01*
X188536530Y-107711638D01*
X188535067Y-107706792D01*
X188532849Y-107702244D01*
X188532846Y-107702237D01*
X188500629Y-107636182D01*
X188497893Y-107630180D01*
X188469162Y-107562495D01*
X188467188Y-107557844D01*
X188449681Y-107530044D01*
X188443052Y-107518134D01*
X188428654Y-107488612D01*
X188383357Y-107424400D01*
X188379699Y-107418914D01*
X188340529Y-107356714D01*
X188340528Y-107356713D01*
X188337833Y-107352433D01*
X188334492Y-107348644D01*
X188334488Y-107348638D01*
X188316102Y-107327783D01*
X188307656Y-107317088D01*
X188291009Y-107293490D01*
X188288726Y-107290253D01*
X188275175Y-107275413D01*
X188270062Y-107269813D01*
X188270054Y-107269805D01*
X188269091Y-107268750D01*
X188229375Y-107229034D01*
X188223956Y-107223264D01*
X188180650Y-107174142D01*
X188180647Y-107174139D01*
X188177302Y-107170345D01*
X188145011Y-107143821D01*
X188135892Y-107135551D01*
X182085073Y-101084732D01*
X182051047Y-101022420D01*
X182056112Y-100951605D01*
X182067368Y-100931005D01*
X182066921Y-100930760D01*
X182071229Y-100922891D01*
X182076615Y-100915705D01*
X182127745Y-100779316D01*
X182134500Y-100717134D01*
X182134500Y-98220866D01*
X182127745Y-98158684D01*
X182076615Y-98022295D01*
X181989261Y-97905739D01*
X181872705Y-97818385D01*
X181736316Y-97767255D01*
X181674134Y-97760500D01*
X174577866Y-97760500D01*
X174515684Y-97767255D01*
X174379295Y-97818385D01*
X174262739Y-97905739D01*
X174175385Y-98022295D01*
X174124255Y-98158684D01*
X174117500Y-98220866D01*
X174117500Y-100717134D01*
X174124255Y-100779316D01*
X174175385Y-100915705D01*
X174262739Y-101032261D01*
X174379295Y-101119615D01*
X174515684Y-101170745D01*
X174577866Y-101177500D01*
X177858969Y-101177500D01*
X177927090Y-101197502D01*
X177948064Y-101214405D01*
X182182563Y-105448905D01*
X182216589Y-105511217D01*
X182211524Y-105582033D01*
X182168977Y-105638868D01*
X182102457Y-105663679D01*
X182093468Y-105664000D01*
X176340500Y-105664000D01*
X176272379Y-105643998D01*
X176225886Y-105590342D01*
X176214500Y-105538000D01*
X176214500Y-105299348D01*
X176214709Y-105292095D01*
X176218463Y-105226994D01*
X176218463Y-105226991D01*
X176218786Y-105221387D01*
X176215413Y-105193513D01*
X176214500Y-105178376D01*
X176214500Y-104946600D01*
X176212158Y-104924024D01*
X176204238Y-104847692D01*
X176204237Y-104847688D01*
X176203526Y-104840834D01*
X176177171Y-104761837D01*
X176149868Y-104680002D01*
X176147550Y-104673054D01*
X176054478Y-104522652D01*
X175929303Y-104397695D01*
X175778738Y-104304885D01*
X175750321Y-104295460D01*
X175723036Y-104282606D01*
X175676976Y-104253712D01*
X175556865Y-104178366D01*
X175551661Y-104176274D01*
X175551657Y-104176272D01*
X175361921Y-104099999D01*
X175356707Y-104097903D01*
X175145463Y-104054156D01*
X175140852Y-104053890D01*
X175140851Y-104053890D01*
X175092548Y-104051105D01*
X175092544Y-104051105D01*
X175090725Y-104051000D01*
X168242500Y-104051000D01*
X168174379Y-104030998D01*
X168127886Y-103977342D01*
X168116500Y-103925000D01*
X168116500Y-99931456D01*
X168121224Y-99900934D01*
X168120663Y-99900815D01*
X168121944Y-99894788D01*
X168123807Y-99888916D01*
X168141500Y-99731183D01*
X168141500Y-99171996D01*
X168126723Y-99021287D01*
X168122384Y-99006915D01*
X168121845Y-98935921D01*
X168159773Y-98875905D01*
X168224128Y-98845922D01*
X168243007Y-98844500D01*
X168373479Y-98844500D01*
X168424539Y-98835497D01*
X168435435Y-98834062D01*
X168435926Y-98834019D01*
X168487087Y-98829543D01*
X168537163Y-98816125D01*
X168547888Y-98813747D01*
X168568219Y-98810162D01*
X168598959Y-98804742D01*
X168647699Y-98787002D01*
X168658139Y-98783710D01*
X168708243Y-98770284D01*
X168755234Y-98748372D01*
X168765388Y-98744166D01*
X168808940Y-98728314D01*
X168814108Y-98726433D01*
X168859005Y-98700512D01*
X168868750Y-98695439D01*
X168910758Y-98675851D01*
X168910764Y-98675848D01*
X168915749Y-98673523D01*
X168958224Y-98643781D01*
X168967494Y-98637876D01*
X169007622Y-98614709D01*
X169007627Y-98614705D01*
X169012391Y-98611955D01*
X169016606Y-98608418D01*
X169016612Y-98608414D01*
X169052107Y-98578630D01*
X169060827Y-98571938D01*
X169098789Y-98545357D01*
X169098792Y-98545355D01*
X169103300Y-98542198D01*
X169518198Y-98127300D01*
X169547938Y-98084827D01*
X169554630Y-98076107D01*
X169584414Y-98040612D01*
X169584418Y-98040606D01*
X169587955Y-98036391D01*
X169590705Y-98031627D01*
X169590709Y-98031622D01*
X169613876Y-97991494D01*
X169619784Y-97982220D01*
X169646365Y-97944259D01*
X169649523Y-97939749D01*
X169651848Y-97934764D01*
X169651851Y-97934758D01*
X169671439Y-97892750D01*
X169676515Y-97882999D01*
X169699683Y-97842871D01*
X169702433Y-97838108D01*
X169720166Y-97789388D01*
X169724372Y-97779234D01*
X169729958Y-97767255D01*
X169746284Y-97732243D01*
X169759710Y-97682139D01*
X169763002Y-97671699D01*
X169780742Y-97622959D01*
X169789747Y-97571888D01*
X169792126Y-97561157D01*
X169805543Y-97511087D01*
X169810062Y-97459435D01*
X169811497Y-97448538D01*
X169819544Y-97402900D01*
X169820500Y-97397479D01*
X169820500Y-94504792D01*
X196914812Y-94504792D01*
X196923642Y-94516413D01*
X196926976Y-94518835D01*
X196933643Y-94523066D01*
X197192234Y-94665228D01*
X197199369Y-94668585D01*
X197473746Y-94777219D01*
X197481237Y-94779653D01*
X197767059Y-94853039D01*
X197774830Y-94854521D01*
X198067570Y-94891503D01*
X198075460Y-94892000D01*
X198370540Y-94892000D01*
X198378430Y-94891503D01*
X198671170Y-94854521D01*
X198678941Y-94853039D01*
X198964763Y-94779653D01*
X198972254Y-94777219D01*
X199246631Y-94668585D01*
X199253766Y-94665228D01*
X199512357Y-94523066D01*
X199519024Y-94518835D01*
X199522730Y-94516142D01*
X199531154Y-94505219D01*
X199524250Y-94492357D01*
X198235812Y-93203919D01*
X198221868Y-93196305D01*
X198220035Y-93196436D01*
X198213420Y-93200687D01*
X196921425Y-94492682D01*
X196914812Y-94504792D01*
X169820500Y-94504792D01*
X169820500Y-94365595D01*
X169832212Y-94312545D01*
X169885658Y-94197405D01*
X169885659Y-94197402D01*
X169887837Y-94192710D01*
X169952040Y-93961202D01*
X169962740Y-93861083D01*
X169972644Y-93768407D01*
X169972644Y-93768399D01*
X169973000Y-93765072D01*
X169973000Y-93530598D01*
X169958322Y-93352063D01*
X169899794Y-93119056D01*
X169803997Y-92898737D01*
X169693426Y-92727821D01*
X169676310Y-92701363D01*
X169676308Y-92701360D01*
X169673502Y-92697023D01*
X169511814Y-92519330D01*
X169472090Y-92487958D01*
X195810488Y-92487958D01*
X195829015Y-92782436D01*
X195830008Y-92790297D01*
X195885296Y-93080128D01*
X195887267Y-93087805D01*
X195978446Y-93368424D01*
X195981361Y-93375787D01*
X196106993Y-93642770D01*
X196110805Y-93649703D01*
X196194035Y-93780853D01*
X196204641Y-93790150D01*
X196213914Y-93785979D01*
X197503081Y-92496812D01*
X197510695Y-92482868D01*
X197510564Y-92481035D01*
X197506313Y-92474420D01*
X196216555Y-91184662D01*
X196204175Y-91177902D01*
X196196035Y-91183995D01*
X196110805Y-91318297D01*
X196106993Y-91325230D01*
X195981361Y-91592213D01*
X195978446Y-91599576D01*
X195887267Y-91880195D01*
X195885296Y-91887872D01*
X195830008Y-92177703D01*
X195829015Y-92185564D01*
X195810488Y-92480042D01*
X195810488Y-92487958D01*
X169472090Y-92487958D01*
X169434983Y-92458653D01*
X169327330Y-92373633D01*
X169327325Y-92373630D01*
X169323276Y-92370432D01*
X169318760Y-92367939D01*
X169318757Y-92367937D01*
X169117474Y-92256823D01*
X169117470Y-92256821D01*
X169112950Y-92254326D01*
X169108081Y-92252602D01*
X169108077Y-92252600D01*
X168891360Y-92175856D01*
X168891356Y-92175855D01*
X168886485Y-92174130D01*
X168881392Y-92173223D01*
X168881389Y-92173222D01*
X168655052Y-92132905D01*
X168655046Y-92132904D01*
X168649963Y-92131999D01*
X168557474Y-92130869D01*
X168414907Y-92129127D01*
X168414905Y-92129127D01*
X168409737Y-92129064D01*
X168172256Y-92165404D01*
X168060003Y-92202094D01*
X167948817Y-92238434D01*
X167948811Y-92238437D01*
X167943899Y-92240042D01*
X167939313Y-92242429D01*
X167939309Y-92242431D01*
X167735393Y-92348584D01*
X167730800Y-92350975D01*
X167726657Y-92354085D01*
X167726658Y-92354085D01*
X167549679Y-92486965D01*
X167538680Y-92495223D01*
X167372699Y-92668912D01*
X167347465Y-92705903D01*
X167292556Y-92750904D01*
X167222032Y-92759075D01*
X167158284Y-92727821D01*
X167137589Y-92703340D01*
X167136311Y-92701365D01*
X167133502Y-92697023D01*
X166971814Y-92519330D01*
X166894983Y-92458653D01*
X166787330Y-92373633D01*
X166787325Y-92373630D01*
X166783276Y-92370432D01*
X166778760Y-92367939D01*
X166778757Y-92367937D01*
X166577474Y-92256823D01*
X166577470Y-92256821D01*
X166572950Y-92254326D01*
X166568081Y-92252602D01*
X166568077Y-92252600D01*
X166351360Y-92175856D01*
X166351356Y-92175855D01*
X166346485Y-92174130D01*
X166341392Y-92173223D01*
X166341389Y-92173222D01*
X166115052Y-92132905D01*
X166115046Y-92132904D01*
X166109963Y-92131999D01*
X166017474Y-92130869D01*
X165874907Y-92129127D01*
X165874905Y-92129127D01*
X165869737Y-92129064D01*
X165632256Y-92165404D01*
X165520003Y-92202094D01*
X165408817Y-92238434D01*
X165408811Y-92238437D01*
X165403899Y-92240042D01*
X165399313Y-92242429D01*
X165399309Y-92242431D01*
X165195393Y-92348584D01*
X165190800Y-92350975D01*
X165035717Y-92467415D01*
X164969235Y-92492320D01*
X164899839Y-92477328D01*
X164849565Y-92427198D01*
X164842085Y-92410885D01*
X164838269Y-92400707D01*
X164838267Y-92400703D01*
X164835115Y-92392295D01*
X164747761Y-92275739D01*
X164631205Y-92188385D01*
X164494816Y-92137255D01*
X164432634Y-92130500D01*
X162431366Y-92130500D01*
X162369184Y-92137255D01*
X162232795Y-92188385D01*
X162116239Y-92275739D01*
X162028885Y-92392295D01*
X161977755Y-92528684D01*
X161971000Y-92590866D01*
X161971000Y-94687134D01*
X161977755Y-94749316D01*
X162028885Y-94885705D01*
X162116239Y-95002261D01*
X162232795Y-95089615D01*
X162369184Y-95140745D01*
X162431366Y-95147500D01*
X164432634Y-95147500D01*
X164494816Y-95140745D01*
X164631205Y-95089615D01*
X164747761Y-95002261D01*
X164835115Y-94885705D01*
X164842573Y-94865811D01*
X164885213Y-94809047D01*
X164951774Y-94784346D01*
X165021123Y-94799553D01*
X165038647Y-94811158D01*
X165156670Y-94904367D01*
X165156675Y-94904370D01*
X165160724Y-94907568D01*
X165165240Y-94910061D01*
X165165243Y-94910063D01*
X165366526Y-95021177D01*
X165366530Y-95021179D01*
X165371050Y-95023674D01*
X165375919Y-95025398D01*
X165375923Y-95025400D01*
X165592640Y-95102144D01*
X165592644Y-95102145D01*
X165597515Y-95103870D01*
X165602608Y-95104777D01*
X165602611Y-95104778D01*
X165828948Y-95145095D01*
X165828954Y-95145096D01*
X165834037Y-95146001D01*
X165921400Y-95147068D01*
X166069093Y-95148873D01*
X166069095Y-95148873D01*
X166074263Y-95148936D01*
X166311744Y-95112596D01*
X166423997Y-95075906D01*
X166535183Y-95039566D01*
X166535189Y-95039563D01*
X166540101Y-95037958D01*
X166544687Y-95035571D01*
X166544691Y-95035569D01*
X166748607Y-94929416D01*
X166753200Y-94927025D01*
X166886642Y-94826834D01*
X166941185Y-94785882D01*
X166941188Y-94785880D01*
X166945320Y-94782777D01*
X166986406Y-94739783D01*
X167047930Y-94704353D01*
X167118843Y-94707810D01*
X167176629Y-94749056D01*
X167202943Y-94814996D01*
X167203500Y-94826834D01*
X167203500Y-96101500D01*
X167183498Y-96169621D01*
X167129842Y-96216114D01*
X167077500Y-96227500D01*
X163061373Y-96227500D01*
X163058656Y-96227738D01*
X163058649Y-96227738D01*
X162989980Y-96233746D01*
X162890413Y-96242457D01*
X162885100Y-96243881D01*
X162885098Y-96243881D01*
X162816448Y-96262276D01*
X162669257Y-96301716D01*
X162668075Y-96302267D01*
X162627055Y-96309500D01*
X154493329Y-96309500D01*
X154425208Y-96289498D01*
X154401668Y-96267593D01*
X154400992Y-96268269D01*
X154394642Y-96261919D01*
X154389261Y-96254739D01*
X154272705Y-96167385D01*
X154136316Y-96116255D01*
X154074134Y-96109500D01*
X147307574Y-96109500D01*
X147239453Y-96089498D01*
X147192960Y-96035842D01*
X147186678Y-96018999D01*
X147155047Y-95911275D01*
X147152508Y-95902628D01*
X147074336Y-95780990D01*
X147027843Y-95727334D01*
X147009014Y-95711018D01*
X147001015Y-95704087D01*
X146918567Y-95632645D01*
X146787041Y-95572579D01*
X146763287Y-95565604D01*
X146723243Y-95553846D01*
X146723239Y-95553845D01*
X146718920Y-95552577D01*
X146714472Y-95551937D01*
X146714465Y-95551936D01*
X146580249Y-95532639D01*
X146580242Y-95532638D01*
X146575801Y-95532000D01*
X146533000Y-95532000D01*
X146425020Y-95543609D01*
X146421736Y-95544323D01*
X146421732Y-95544324D01*
X146396661Y-95549778D01*
X146372678Y-95554995D01*
X146269628Y-95589293D01*
X146147990Y-95667465D01*
X146094334Y-95713958D01*
X146091393Y-95717352D01*
X146079803Y-95730727D01*
X145999645Y-95823234D01*
X145995901Y-95831431D01*
X145995901Y-95831432D01*
X145992269Y-95839385D01*
X145939579Y-95954760D01*
X145938311Y-95959079D01*
X145931326Y-95982869D01*
X145919577Y-96022881D01*
X145918937Y-96027329D01*
X145918936Y-96027336D01*
X145899639Y-96161552D01*
X145899638Y-96161559D01*
X145899000Y-96166000D01*
X145899000Y-96218586D01*
X145899090Y-96220261D01*
X145899090Y-96220278D01*
X145899489Y-96227738D01*
X145901896Y-96272755D01*
X145904761Y-96299470D01*
X145913414Y-96353006D01*
X145915572Y-96358803D01*
X145915573Y-96358805D01*
X145948162Y-96446328D01*
X145963868Y-96488510D01*
X145997858Y-96550841D01*
X146084445Y-96666643D01*
X146200149Y-96753358D01*
X146262443Y-96787418D01*
X146397894Y-96838023D01*
X146406881Y-96838671D01*
X146415686Y-96840591D01*
X146415026Y-96843619D01*
X146467067Y-96863064D01*
X146509581Y-96919924D01*
X146517500Y-96963889D01*
X146517500Y-98675100D01*
X146497498Y-98743221D01*
X146443842Y-98789714D01*
X146417037Y-98797584D01*
X146417209Y-98798375D01*
X146412815Y-98799331D01*
X146408361Y-98799971D01*
X146404049Y-98801237D01*
X146404045Y-98801238D01*
X146312498Y-98828119D01*
X146269628Y-98840707D01*
X146147990Y-98918879D01*
X146144595Y-98921821D01*
X146144592Y-98921823D01*
X146128558Y-98935717D01*
X146094334Y-98965372D01*
X145999645Y-99074648D01*
X145939579Y-99206174D01*
X145938311Y-99210493D01*
X145927673Y-99246724D01*
X145919577Y-99274295D01*
X145918937Y-99278743D01*
X145918936Y-99278750D01*
X145899639Y-99412966D01*
X145899638Y-99412973D01*
X145899000Y-99417414D01*
X145899000Y-101502000D01*
X145910609Y-101609980D01*
X145921995Y-101662322D01*
X145956293Y-101765372D01*
X146034465Y-101887010D01*
X146080958Y-101940666D01*
X146084352Y-101943607D01*
X146107786Y-101963913D01*
X146190234Y-102035355D01*
X146198431Y-102039099D01*
X146198432Y-102039099D01*
X146231475Y-102054189D01*
X146321760Y-102095421D01*
X146345514Y-102102396D01*
X146385558Y-102114154D01*
X146385562Y-102114155D01*
X146389881Y-102115423D01*
X146394329Y-102116063D01*
X146394336Y-102116064D01*
X146528552Y-102135361D01*
X146528559Y-102135362D01*
X146533000Y-102136000D01*
X152377000Y-102136000D01*
X152484980Y-102124391D01*
X152488264Y-102123677D01*
X152488268Y-102123676D01*
X152513339Y-102118222D01*
X152537322Y-102113005D01*
X152640372Y-102078707D01*
X152762010Y-102000535D01*
X152815666Y-101954042D01*
X152827257Y-101940666D01*
X152877027Y-101883228D01*
X152910355Y-101844766D01*
X152970421Y-101713240D01*
X152990423Y-101645119D01*
X152991064Y-101640664D01*
X153010361Y-101506448D01*
X153010362Y-101506441D01*
X153011000Y-101502000D01*
X153011000Y-99652500D01*
X153031002Y-99584379D01*
X153084658Y-99537886D01*
X153137000Y-99526500D01*
X154074134Y-99526500D01*
X154136316Y-99519745D01*
X154272705Y-99468615D01*
X154389261Y-99381261D01*
X154394642Y-99374081D01*
X154400992Y-99367731D01*
X154402627Y-99369366D01*
X154449359Y-99334421D01*
X154493329Y-99326500D01*
X162968074Y-99326500D01*
X163036195Y-99346502D01*
X163057169Y-99363404D01*
X163497595Y-99803829D01*
X163531620Y-99866142D01*
X163534500Y-99892925D01*
X163534500Y-100246134D01*
X163541255Y-100308316D01*
X163592385Y-100444705D01*
X163679739Y-100561261D01*
X163796295Y-100648615D01*
X163932684Y-100699745D01*
X163994866Y-100706500D01*
X164599075Y-100706500D01*
X164667196Y-100726502D01*
X164713689Y-100780158D01*
X164723793Y-100850432D01*
X164694299Y-100915012D01*
X164688170Y-100921595D01*
X162223028Y-103386738D01*
X161753171Y-103856595D01*
X161690859Y-103890620D01*
X161664076Y-103893500D01*
X158557843Y-103893500D01*
X158544236Y-103892763D01*
X158512738Y-103889341D01*
X158512733Y-103889341D01*
X158506612Y-103888676D01*
X158480362Y-103890973D01*
X158456612Y-103893050D01*
X158451786Y-103893379D01*
X158449314Y-103893500D01*
X158446231Y-103893500D01*
X158434262Y-103894674D01*
X158403494Y-103897690D01*
X158402181Y-103897812D01*
X158357916Y-103901685D01*
X158309587Y-103905913D01*
X158304468Y-103907400D01*
X158299167Y-103907920D01*
X158210166Y-103934791D01*
X158209033Y-103935126D01*
X158125586Y-103959370D01*
X158125582Y-103959372D01*
X158119664Y-103961091D01*
X158114932Y-103963544D01*
X158109831Y-103965084D01*
X158104388Y-103967978D01*
X158027740Y-104008731D01*
X158026574Y-104009343D01*
X157949547Y-104049271D01*
X157944074Y-104052108D01*
X157939911Y-104055431D01*
X157935204Y-104057934D01*
X157863082Y-104116755D01*
X157862226Y-104117446D01*
X157823027Y-104148738D01*
X157820523Y-104151242D01*
X157819805Y-104151884D01*
X157815472Y-104155585D01*
X157781938Y-104182935D01*
X157752709Y-104218267D01*
X157744728Y-104227037D01*
X156937617Y-105034149D01*
X156927473Y-105043251D01*
X156897975Y-105066968D01*
X156894008Y-105071696D01*
X156865709Y-105105421D01*
X156862528Y-105109069D01*
X156860885Y-105110881D01*
X156858691Y-105113075D01*
X156831358Y-105146349D01*
X156830696Y-105147147D01*
X156770846Y-105218474D01*
X156768278Y-105223144D01*
X156764897Y-105227261D01*
X156733860Y-105285145D01*
X156721023Y-105309086D01*
X156720394Y-105310245D01*
X156678538Y-105386381D01*
X156678535Y-105386389D01*
X156675567Y-105391787D01*
X156673955Y-105396869D01*
X156671438Y-105401563D01*
X156644238Y-105490531D01*
X156643918Y-105491559D01*
X156615765Y-105580306D01*
X156615171Y-105585602D01*
X156613613Y-105590698D01*
X156606200Y-105663679D01*
X156604218Y-105683187D01*
X156604089Y-105684393D01*
X156603764Y-105687296D01*
X156599335Y-105726786D01*
X156598500Y-105734227D01*
X156598500Y-105737754D01*
X156598445Y-105738739D01*
X156597998Y-105744419D01*
X156593626Y-105787462D01*
X156594339Y-105795000D01*
X156597941Y-105833109D01*
X156598500Y-105844967D01*
X156598500Y-105967769D01*
X156598800Y-105970825D01*
X156598800Y-105970832D01*
X156604537Y-106029340D01*
X156612920Y-106114833D01*
X156670084Y-106304169D01*
X156672975Y-106309606D01*
X156672979Y-106309616D01*
X156707929Y-106375347D01*
X156722249Y-106444884D01*
X156696701Y-106511125D01*
X156639397Y-106553037D01*
X156596678Y-106560500D01*
X155398231Y-106560500D01*
X155395175Y-106560800D01*
X155395168Y-106560800D01*
X155333497Y-106566847D01*
X155316796Y-106568485D01*
X155247048Y-106555226D01*
X155195541Y-106506363D01*
X155178500Y-106443086D01*
X155178500Y-105094999D01*
X155175868Y-105062285D01*
X155164346Y-104919076D01*
X155164345Y-104919071D01*
X155163940Y-104914035D01*
X155155438Y-104879418D01*
X155107244Y-104683208D01*
X155106037Y-104678294D01*
X155101169Y-104666824D01*
X155013165Y-104459502D01*
X155011188Y-104454844D01*
X154907807Y-104290678D01*
X154884528Y-104253712D01*
X154884526Y-104253709D01*
X154881833Y-104249433D01*
X154821808Y-104181347D01*
X154724650Y-104071142D01*
X154724647Y-104071139D01*
X154721302Y-104067345D01*
X154709845Y-104057934D01*
X154537628Y-103916474D01*
X154537625Y-103916472D01*
X154533722Y-103913266D01*
X154323922Y-103791159D01*
X154116714Y-103711620D01*
X154102019Y-103705979D01*
X154102017Y-103705978D01*
X154097298Y-103704167D01*
X154092354Y-103703134D01*
X154088127Y-103701890D01*
X154034611Y-103670113D01*
X153625300Y-103260802D01*
X153620792Y-103257645D01*
X153620789Y-103257643D01*
X153582827Y-103231062D01*
X153574107Y-103224370D01*
X153538612Y-103194586D01*
X153538606Y-103194582D01*
X153534391Y-103191045D01*
X153529627Y-103188295D01*
X153529622Y-103188291D01*
X153489494Y-103165124D01*
X153480220Y-103159216D01*
X153442259Y-103132635D01*
X153437749Y-103129477D01*
X153432764Y-103127152D01*
X153432758Y-103127149D01*
X153390750Y-103107561D01*
X153381005Y-103102488D01*
X153336108Y-103076567D01*
X153287389Y-103058834D01*
X153277234Y-103054628D01*
X153276159Y-103054127D01*
X153230243Y-103032716D01*
X153180139Y-103019290D01*
X153169699Y-103015998D01*
X153120959Y-102998258D01*
X153090219Y-102992838D01*
X153069888Y-102989253D01*
X153059163Y-102986875D01*
X153009087Y-102973457D01*
X152957435Y-102968938D01*
X152946538Y-102967503D01*
X152895479Y-102958500D01*
X124353500Y-102958500D01*
X124285379Y-102938498D01*
X124238886Y-102884842D01*
X124227500Y-102832500D01*
X124227500Y-99903031D01*
X124247502Y-99834910D01*
X124264405Y-99813936D01*
X124641936Y-99436405D01*
X124704248Y-99402379D01*
X124731031Y-99399500D01*
X127802134Y-99399500D01*
X127864316Y-99392745D01*
X128000705Y-99341615D01*
X128117261Y-99254261D01*
X128204615Y-99137705D01*
X128255745Y-99001316D01*
X128262500Y-98939134D01*
X128262500Y-98935669D01*
X129246001Y-98935669D01*
X129246371Y-98942490D01*
X129251895Y-98993352D01*
X129255521Y-99008604D01*
X129300676Y-99129054D01*
X129309214Y-99144649D01*
X129385715Y-99246724D01*
X129398276Y-99259285D01*
X129500351Y-99335786D01*
X129515946Y-99344324D01*
X129636394Y-99389478D01*
X129651649Y-99393105D01*
X129702514Y-99398631D01*
X129709328Y-99399000D01*
X132735885Y-99399000D01*
X132751124Y-99394525D01*
X132752329Y-99393135D01*
X132754000Y-99385452D01*
X132754000Y-99380884D01*
X133754000Y-99380884D01*
X133758475Y-99396123D01*
X133759865Y-99397328D01*
X133767548Y-99398999D01*
X136798669Y-99398999D01*
X136805490Y-99398629D01*
X136856352Y-99393105D01*
X136871604Y-99389479D01*
X136992054Y-99344324D01*
X137007649Y-99335786D01*
X137109724Y-99259285D01*
X137122285Y-99246724D01*
X137198786Y-99144649D01*
X137207324Y-99129054D01*
X137232211Y-99062669D01*
X137518001Y-99062669D01*
X137518371Y-99069490D01*
X137523895Y-99120352D01*
X137527521Y-99135604D01*
X137572676Y-99256054D01*
X137581214Y-99271649D01*
X137657715Y-99373724D01*
X137670276Y-99386285D01*
X137772351Y-99462786D01*
X137787946Y-99471324D01*
X137908394Y-99516478D01*
X137923649Y-99520105D01*
X137974514Y-99525631D01*
X137981328Y-99526000D01*
X141007885Y-99526000D01*
X141023124Y-99521525D01*
X141024329Y-99520135D01*
X141026000Y-99512452D01*
X141026000Y-99507884D01*
X142026000Y-99507884D01*
X142030475Y-99523123D01*
X142031865Y-99524328D01*
X142039548Y-99525999D01*
X145070669Y-99525999D01*
X145077490Y-99525629D01*
X145128352Y-99520105D01*
X145143604Y-99516479D01*
X145264054Y-99471324D01*
X145279649Y-99462786D01*
X145381724Y-99386285D01*
X145394285Y-99373724D01*
X145470786Y-99271649D01*
X145479324Y-99256054D01*
X145524478Y-99135606D01*
X145528105Y-99120351D01*
X145533631Y-99069486D01*
X145534000Y-99062672D01*
X145534000Y-98336115D01*
X145529525Y-98320876D01*
X145528135Y-98319671D01*
X145520452Y-98318000D01*
X142044115Y-98318000D01*
X142028876Y-98322475D01*
X142027671Y-98323865D01*
X142026000Y-98331548D01*
X142026000Y-99507884D01*
X141026000Y-99507884D01*
X141026000Y-98336115D01*
X141021525Y-98320876D01*
X141020135Y-98319671D01*
X141012452Y-98318000D01*
X137536116Y-98318000D01*
X137520877Y-98322475D01*
X137519672Y-98323865D01*
X137518001Y-98331548D01*
X137518001Y-99062669D01*
X137232211Y-99062669D01*
X137252478Y-99008606D01*
X137256105Y-98993351D01*
X137261631Y-98942486D01*
X137262000Y-98935672D01*
X137262000Y-98209115D01*
X137257525Y-98193876D01*
X137256135Y-98192671D01*
X137248452Y-98191000D01*
X133772115Y-98191000D01*
X133756876Y-98195475D01*
X133755671Y-98196865D01*
X133754000Y-98204548D01*
X133754000Y-99380884D01*
X132754000Y-99380884D01*
X132754000Y-98209115D01*
X132749525Y-98193876D01*
X132748135Y-98192671D01*
X132740452Y-98191000D01*
X129264116Y-98191000D01*
X129248877Y-98195475D01*
X129247672Y-98196865D01*
X129246001Y-98204548D01*
X129246001Y-98935669D01*
X128262500Y-98935669D01*
X128262500Y-97299885D01*
X137518000Y-97299885D01*
X137522475Y-97315124D01*
X137523865Y-97316329D01*
X137531548Y-97318000D01*
X141007885Y-97318000D01*
X141023124Y-97313525D01*
X141024329Y-97312135D01*
X141026000Y-97304452D01*
X141026000Y-97299885D01*
X142026000Y-97299885D01*
X142030475Y-97315124D01*
X142031865Y-97316329D01*
X142039548Y-97318000D01*
X145515884Y-97318000D01*
X145531123Y-97313525D01*
X145532328Y-97312135D01*
X145533999Y-97304452D01*
X145533999Y-96573331D01*
X145533629Y-96566510D01*
X145528105Y-96515648D01*
X145524479Y-96500396D01*
X145479324Y-96379946D01*
X145470786Y-96364351D01*
X145394285Y-96262276D01*
X145381724Y-96249715D01*
X145279649Y-96173214D01*
X145264054Y-96164676D01*
X145143606Y-96119522D01*
X145128351Y-96115895D01*
X145077486Y-96110369D01*
X145070672Y-96110000D01*
X142044115Y-96110000D01*
X142028876Y-96114475D01*
X142027671Y-96115865D01*
X142026000Y-96123548D01*
X142026000Y-97299885D01*
X141026000Y-97299885D01*
X141026000Y-96128116D01*
X141021525Y-96112877D01*
X141020135Y-96111672D01*
X141012452Y-96110001D01*
X137981331Y-96110001D01*
X137974510Y-96110371D01*
X137923648Y-96115895D01*
X137908396Y-96119521D01*
X137787946Y-96164676D01*
X137772351Y-96173214D01*
X137670276Y-96249715D01*
X137657715Y-96262276D01*
X137581214Y-96364351D01*
X137572676Y-96379946D01*
X137527522Y-96500394D01*
X137523895Y-96515649D01*
X137518369Y-96566514D01*
X137518000Y-96573328D01*
X137518000Y-97299885D01*
X128262500Y-97299885D01*
X128262500Y-97172885D01*
X129246000Y-97172885D01*
X129250475Y-97188124D01*
X129251865Y-97189329D01*
X129259548Y-97191000D01*
X132735885Y-97191000D01*
X132751124Y-97186525D01*
X132752329Y-97185135D01*
X132754000Y-97177452D01*
X132754000Y-97172885D01*
X133754000Y-97172885D01*
X133758475Y-97188124D01*
X133759865Y-97189329D01*
X133767548Y-97191000D01*
X137243884Y-97191000D01*
X137259123Y-97186525D01*
X137260328Y-97185135D01*
X137261999Y-97177452D01*
X137261999Y-96446331D01*
X137261629Y-96439510D01*
X137256105Y-96388648D01*
X137252479Y-96373396D01*
X137207324Y-96252946D01*
X137198786Y-96237351D01*
X137122285Y-96135276D01*
X137109724Y-96122715D01*
X137007649Y-96046214D01*
X136992054Y-96037676D01*
X136871606Y-95992522D01*
X136856351Y-95988895D01*
X136805486Y-95983369D01*
X136798672Y-95983000D01*
X133772115Y-95983000D01*
X133756876Y-95987475D01*
X133755671Y-95988865D01*
X133754000Y-95996548D01*
X133754000Y-97172885D01*
X132754000Y-97172885D01*
X132754000Y-96001116D01*
X132749525Y-95985877D01*
X132748135Y-95984672D01*
X132740452Y-95983001D01*
X129709331Y-95983001D01*
X129702510Y-95983371D01*
X129651648Y-95988895D01*
X129636396Y-95992521D01*
X129515946Y-96037676D01*
X129500351Y-96046214D01*
X129398276Y-96122715D01*
X129385715Y-96135276D01*
X129309214Y-96237351D01*
X129300676Y-96252946D01*
X129255522Y-96373394D01*
X129251895Y-96388649D01*
X129246369Y-96439514D01*
X129246000Y-96446328D01*
X129246000Y-97172885D01*
X128262500Y-97172885D01*
X128262500Y-96442866D01*
X128255745Y-96380684D01*
X128204615Y-96244295D01*
X128117261Y-96127739D01*
X128000705Y-96040385D01*
X127864316Y-95989255D01*
X127802134Y-95982500D01*
X120705866Y-95982500D01*
X120643684Y-95989255D01*
X120507295Y-96040385D01*
X120390739Y-96127739D01*
X120385358Y-96134919D01*
X120385357Y-96134920D01*
X120313300Y-96231065D01*
X120256441Y-96273580D01*
X120212474Y-96281500D01*
X116424493Y-96281500D01*
X116356372Y-96261498D01*
X116309879Y-96207842D01*
X116302457Y-96186237D01*
X116301745Y-96179684D01*
X116298972Y-96172285D01*
X116253767Y-96051703D01*
X116250615Y-96043295D01*
X116163261Y-95926739D01*
X116046705Y-95839385D01*
X115910316Y-95788255D01*
X115848134Y-95781500D01*
X112751866Y-95781500D01*
X112689684Y-95788255D01*
X112553295Y-95839385D01*
X112436739Y-95926739D01*
X112349385Y-96043295D01*
X112298255Y-96179684D01*
X112291500Y-96241866D01*
X112291500Y-99338134D01*
X112298255Y-99400316D01*
X112349385Y-99536705D01*
X112436739Y-99653261D01*
X112553295Y-99740615D01*
X112689684Y-99791745D01*
X112751866Y-99798500D01*
X115848134Y-99798500D01*
X115910316Y-99791745D01*
X116046705Y-99740615D01*
X116163261Y-99653261D01*
X116250615Y-99536705D01*
X116293650Y-99421910D01*
X116298972Y-99407714D01*
X116298973Y-99407711D01*
X116301745Y-99400316D01*
X116302372Y-99394547D01*
X116337126Y-99333709D01*
X116400081Y-99300887D01*
X116424493Y-99298500D01*
X120407791Y-99298500D01*
X120475912Y-99318502D01*
X120483355Y-99323673D01*
X120507295Y-99341615D01*
X120643684Y-99392745D01*
X120705866Y-99399500D01*
X121084500Y-99399500D01*
X121152621Y-99419502D01*
X121199114Y-99473158D01*
X121210500Y-99525500D01*
X121210500Y-104586500D01*
X121190498Y-104654621D01*
X121136842Y-104701114D01*
X121084500Y-104712500D01*
X120518600Y-104712500D01*
X120515354Y-104712837D01*
X120515350Y-104712837D01*
X120419692Y-104722762D01*
X120419688Y-104722763D01*
X120412834Y-104723474D01*
X120406298Y-104725655D01*
X120406296Y-104725655D01*
X120310306Y-104757680D01*
X120245054Y-104779450D01*
X120094652Y-104872522D01*
X120089479Y-104877704D01*
X120089474Y-104877708D01*
X120066705Y-104900517D01*
X120004423Y-104934597D01*
X119977532Y-104937500D01*
X119811400Y-104937500D01*
X119752441Y-104922855D01*
X119577165Y-104830052D01*
X119577164Y-104830051D01*
X119572205Y-104827426D01*
X119366692Y-104761837D01*
X119361135Y-104761105D01*
X119361133Y-104761105D01*
X119239504Y-104745093D01*
X119152811Y-104733680D01*
X119147212Y-104733944D01*
X119147210Y-104733944D01*
X119023422Y-104739782D01*
X118937325Y-104743842D01*
X118931864Y-104745093D01*
X118931862Y-104745093D01*
X118732508Y-104790751D01*
X118732504Y-104790752D01*
X118727043Y-104792003D01*
X118652217Y-104823919D01*
X118538269Y-104872522D01*
X118528614Y-104876640D01*
X118348308Y-104995078D01*
X118344870Y-104998141D01*
X118344865Y-104998145D01*
X118311743Y-105027657D01*
X118307371Y-105031552D01*
X117646163Y-105692760D01*
X117583851Y-105726786D01*
X117573733Y-105728558D01*
X117517193Y-105736102D01*
X117517191Y-105736102D01*
X117512180Y-105736771D01*
X117507339Y-105738233D01*
X117507337Y-105738233D01*
X117284643Y-105805468D01*
X117284639Y-105805470D01*
X117279792Y-105806933D01*
X117061612Y-105913346D01*
X117057483Y-105916259D01*
X116871217Y-106047656D01*
X116863253Y-106053274D01*
X116841750Y-106072909D01*
X116510064Y-106404595D01*
X116447752Y-106438621D01*
X116420969Y-106441500D01*
X115673091Y-106441500D01*
X115604970Y-106421498D01*
X115593285Y-106413004D01*
X115522744Y-106355267D01*
X115466205Y-106308990D01*
X115277605Y-106193416D01*
X115236366Y-106168145D01*
X115236365Y-106168145D01*
X115232704Y-106165901D01*
X115220567Y-106160573D01*
X114985873Y-106057549D01*
X114985869Y-106057548D01*
X114981945Y-106055825D01*
X114718566Y-105980800D01*
X114714324Y-105980196D01*
X114714318Y-105980195D01*
X114483923Y-105947405D01*
X114447443Y-105942213D01*
X114303589Y-105941460D01*
X114177877Y-105940802D01*
X114177871Y-105940802D01*
X114173591Y-105940780D01*
X114169347Y-105941339D01*
X114169343Y-105941339D01*
X114050302Y-105957011D01*
X113902078Y-105976525D01*
X113897938Y-105977658D01*
X113897936Y-105977658D01*
X113872568Y-105984598D01*
X113637928Y-106048788D01*
X113631741Y-106051427D01*
X113389982Y-106154546D01*
X113389978Y-106154548D01*
X113386030Y-106156232D01*
X113366125Y-106168145D01*
X113154725Y-106294664D01*
X113154721Y-106294667D01*
X113151043Y-106296868D01*
X112937318Y-106468094D01*
X112835944Y-106574920D01*
X112759657Y-106655310D01*
X112748808Y-106666742D01*
X112589002Y-106889136D01*
X112460857Y-107131161D01*
X112459385Y-107135184D01*
X112459383Y-107135188D01*
X112392817Y-107317088D01*
X112366743Y-107388337D01*
X112308404Y-107655907D01*
X112286917Y-107928918D01*
X112302682Y-108202320D01*
X112303507Y-108206525D01*
X112303508Y-108206533D01*
X112322729Y-108304500D01*
X112355405Y-108471053D01*
X112356792Y-108475103D01*
X112356793Y-108475108D01*
X112429854Y-108688500D01*
X112444112Y-108730144D01*
X112501123Y-108843498D01*
X112563762Y-108968042D01*
X112567160Y-108974799D01*
X112569586Y-108978328D01*
X112569589Y-108978334D01*
X112700745Y-109169166D01*
X112722274Y-109200490D01*
X112725161Y-109203663D01*
X112725162Y-109203664D01*
X112888536Y-109383211D01*
X112906582Y-109403043D01*
X113116675Y-109578707D01*
X113120316Y-109580991D01*
X113345024Y-109721951D01*
X113345028Y-109721953D01*
X113348664Y-109724234D01*
X113413078Y-109753318D01*
X113594345Y-109835164D01*
X113594349Y-109835166D01*
X113598257Y-109836930D01*
X113602377Y-109838150D01*
X113602376Y-109838150D01*
X113856723Y-109913491D01*
X113856727Y-109913492D01*
X113860836Y-109914709D01*
X113865070Y-109915357D01*
X113865075Y-109915358D01*
X114127298Y-109955483D01*
X114127300Y-109955483D01*
X114131540Y-109956132D01*
X114270912Y-109958322D01*
X114401071Y-109960367D01*
X114401077Y-109960367D01*
X114405362Y-109960434D01*
X114677235Y-109927534D01*
X114942127Y-109858041D01*
X114946087Y-109856401D01*
X114946092Y-109856399D01*
X115138349Y-109776763D01*
X115195136Y-109753241D01*
X115431582Y-109615073D01*
X115597029Y-109485346D01*
X115662978Y-109459054D01*
X115674776Y-109458500D01*
X116397500Y-109458500D01*
X116465621Y-109478502D01*
X116512114Y-109532158D01*
X116523500Y-109584500D01*
X116523500Y-112586164D01*
X116503498Y-112654285D01*
X116449842Y-112700778D01*
X116379568Y-112710882D01*
X116314988Y-112681388D01*
X116279518Y-112630393D01*
X116253768Y-112561705D01*
X116253767Y-112561703D01*
X116250615Y-112553295D01*
X116163261Y-112436739D01*
X116046705Y-112349385D01*
X115910316Y-112298255D01*
X115848134Y-112291500D01*
X112751866Y-112291500D01*
X112689684Y-112298255D01*
X112553295Y-112349385D01*
X112436739Y-112436739D01*
X112349385Y-112553295D01*
X112298255Y-112689684D01*
X112291500Y-112751866D01*
X112291500Y-115848134D01*
X112298255Y-115910316D01*
X112349385Y-116046705D01*
X112436739Y-116163261D01*
X112553295Y-116250615D01*
X112689684Y-116301745D01*
X112751866Y-116308500D01*
X115848134Y-116308500D01*
X115910316Y-116301745D01*
X116046705Y-116250615D01*
X116163261Y-116163261D01*
X116250615Y-116046705D01*
X116301745Y-115910316D01*
X116303004Y-115910788D01*
X116334134Y-115856297D01*
X116397089Y-115823476D01*
X116467794Y-115829902D01*
X116523801Y-115873533D01*
X116547500Y-115947089D01*
X116547500Y-119116177D01*
X116527498Y-119184298D01*
X116473842Y-119230791D01*
X116403568Y-119240895D01*
X116338988Y-119211401D01*
X116300604Y-119151675D01*
X116295792Y-119124747D01*
X116294859Y-119111055D01*
X116294858Y-119111049D01*
X116294567Y-119106778D01*
X116280764Y-119040124D01*
X116262424Y-118951567D01*
X116239032Y-118838612D01*
X116147617Y-118580465D01*
X116029751Y-118352104D01*
X116023978Y-118340919D01*
X116023978Y-118340918D01*
X116022013Y-118337112D01*
X116012040Y-118322921D01*
X115884888Y-118142002D01*
X115864545Y-118113057D01*
X115678125Y-117912445D01*
X115674810Y-117909731D01*
X115674806Y-117909728D01*
X115528733Y-117790169D01*
X115466205Y-117738990D01*
X115277861Y-117623573D01*
X115236366Y-117598145D01*
X115236365Y-117598145D01*
X115232704Y-117595901D01*
X115228768Y-117594173D01*
X114985873Y-117487549D01*
X114985869Y-117487548D01*
X114981945Y-117485825D01*
X114718566Y-117410800D01*
X114714324Y-117410196D01*
X114714318Y-117410195D01*
X114513834Y-117381662D01*
X114447443Y-117372213D01*
X114303589Y-117371460D01*
X114177877Y-117370802D01*
X114177871Y-117370802D01*
X114173591Y-117370780D01*
X114169347Y-117371339D01*
X114169343Y-117371339D01*
X114050302Y-117387011D01*
X113902078Y-117406525D01*
X113897938Y-117407658D01*
X113897936Y-117407658D01*
X113863265Y-117417143D01*
X113637928Y-117478788D01*
X113633980Y-117480472D01*
X113389982Y-117584546D01*
X113389978Y-117584548D01*
X113386030Y-117586232D01*
X113299334Y-117638118D01*
X113154725Y-117724664D01*
X113154721Y-117724667D01*
X113151043Y-117726868D01*
X112937318Y-117898094D01*
X112849267Y-117990880D01*
X112773715Y-118070496D01*
X112748808Y-118096742D01*
X112589002Y-118319136D01*
X112460857Y-118561161D01*
X112459385Y-118565184D01*
X112459383Y-118565188D01*
X112368514Y-118813498D01*
X112366743Y-118818337D01*
X112308404Y-119085907D01*
X112307344Y-119099370D01*
X112291571Y-119299791D01*
X112286917Y-119358918D01*
X112302682Y-119632320D01*
X112303507Y-119636525D01*
X112303508Y-119636533D01*
X112323653Y-119739213D01*
X112355405Y-119901053D01*
X112356792Y-119905103D01*
X112356793Y-119905108D01*
X112441620Y-120152866D01*
X112444112Y-120160144D01*
X112446039Y-120163975D01*
X112537879Y-120346579D01*
X112567160Y-120404799D01*
X112569586Y-120408328D01*
X112569589Y-120408334D01*
X112707848Y-120609500D01*
X112722274Y-120630490D01*
X112906582Y-120833043D01*
X112909877Y-120835798D01*
X112909878Y-120835799D01*
X112979486Y-120894000D01*
X113116675Y-121008707D01*
X113120316Y-121010991D01*
X113345024Y-121151951D01*
X113345028Y-121151953D01*
X113348664Y-121154234D01*
X113359862Y-121159290D01*
X113594345Y-121265164D01*
X113594349Y-121265166D01*
X113598257Y-121266930D01*
X113602377Y-121268150D01*
X113602376Y-121268150D01*
X113856723Y-121343491D01*
X113856727Y-121343492D01*
X113860836Y-121344709D01*
X113865070Y-121345357D01*
X113865075Y-121345358D01*
X114127298Y-121385483D01*
X114127300Y-121385483D01*
X114131540Y-121386132D01*
X114270912Y-121388322D01*
X114401071Y-121390367D01*
X114401077Y-121390367D01*
X114405362Y-121390434D01*
X114677235Y-121357534D01*
X114942127Y-121288041D01*
X114950980Y-121284374D01*
X115021570Y-121276784D01*
X115088295Y-121311687D01*
X121087766Y-127311158D01*
X121088694Y-127312095D01*
X121128021Y-127352254D01*
X121151771Y-127376507D01*
X121188221Y-127399998D01*
X121198546Y-127407417D01*
X121232443Y-127434476D01*
X121238784Y-127437541D01*
X121238785Y-127437542D01*
X121262637Y-127449072D01*
X121276054Y-127456601D01*
X121304238Y-127474765D01*
X121310855Y-127477173D01*
X121310860Y-127477176D01*
X121344973Y-127489592D01*
X121356716Y-127494553D01*
X121389403Y-127510354D01*
X121389408Y-127510356D01*
X121395749Y-127513421D01*
X121402609Y-127515005D01*
X121408712Y-127517154D01*
X121466321Y-127558647D01*
X121492352Y-127624699D01*
X121478540Y-127694340D01*
X121429271Y-127745457D01*
X121366860Y-127762000D01*
X110494083Y-127762000D01*
X110425962Y-127741998D01*
X110404988Y-127725095D01*
X109129812Y-126449919D01*
X109115868Y-126442305D01*
X109114035Y-126442436D01*
X109107420Y-126446687D01*
X107829012Y-127725095D01*
X107766700Y-127759121D01*
X107739917Y-127762000D01*
X107314000Y-127762000D01*
X107245879Y-127741998D01*
X107199386Y-127688342D01*
X107188000Y-127636000D01*
X107188000Y-127004083D01*
X107208002Y-126935962D01*
X107224905Y-126914988D01*
X108397081Y-125742812D01*
X108403459Y-125731132D01*
X109829305Y-125731132D01*
X109829436Y-125732965D01*
X109833687Y-125739580D01*
X111123445Y-127029338D01*
X111135825Y-127036098D01*
X111143965Y-127030005D01*
X111229195Y-126895703D01*
X111233007Y-126888770D01*
X111358639Y-126621787D01*
X111361554Y-126614424D01*
X111452733Y-126333805D01*
X111454704Y-126326128D01*
X111509992Y-126036297D01*
X111510985Y-126028436D01*
X111529512Y-125733958D01*
X111529512Y-125726042D01*
X111510985Y-125431564D01*
X111509992Y-125423703D01*
X111454704Y-125133872D01*
X111452733Y-125126195D01*
X111361554Y-124845576D01*
X111358639Y-124838213D01*
X111233007Y-124571230D01*
X111229195Y-124564297D01*
X111145965Y-124433147D01*
X111135359Y-124423850D01*
X111126086Y-124428021D01*
X109836919Y-125717188D01*
X109829305Y-125731132D01*
X108403459Y-125731132D01*
X108404695Y-125728868D01*
X108404564Y-125727035D01*
X108400313Y-125720420D01*
X107224905Y-124545012D01*
X107190879Y-124482700D01*
X107188000Y-124455917D01*
X107188000Y-123708781D01*
X107808846Y-123708781D01*
X107815750Y-123721643D01*
X109104188Y-125010081D01*
X109118132Y-125017695D01*
X109119965Y-125017564D01*
X109126580Y-125013313D01*
X110418575Y-123721318D01*
X110425188Y-123709208D01*
X110416358Y-123697587D01*
X110413024Y-123695165D01*
X110406357Y-123690934D01*
X110147766Y-123548772D01*
X110140631Y-123545415D01*
X109866254Y-123436781D01*
X109858763Y-123434347D01*
X109572941Y-123360961D01*
X109565170Y-123359479D01*
X109272430Y-123322497D01*
X109264540Y-123322000D01*
X108969460Y-123322000D01*
X108961570Y-123322497D01*
X108668830Y-123359479D01*
X108661059Y-123360961D01*
X108375237Y-123434347D01*
X108367746Y-123436781D01*
X108093369Y-123545415D01*
X108086234Y-123548772D01*
X107827643Y-123690934D01*
X107820976Y-123695165D01*
X107817270Y-123697858D01*
X107808846Y-123708781D01*
X107188000Y-123708781D01*
X107188000Y-104598803D01*
X113283924Y-104598803D01*
X113289892Y-104606775D01*
X113345262Y-104641509D01*
X113352816Y-104645560D01*
X113594520Y-104754694D01*
X113602551Y-104757680D01*
X113856832Y-104833002D01*
X113865184Y-104834869D01*
X114127340Y-104874984D01*
X114135874Y-104875700D01*
X114401045Y-104879867D01*
X114409596Y-104879418D01*
X114672883Y-104847557D01*
X114681284Y-104845955D01*
X114937824Y-104778653D01*
X114945926Y-104775926D01*
X115190949Y-104674434D01*
X115198617Y-104670628D01*
X115305996Y-104607881D01*
X115315672Y-104597626D01*
X115312354Y-104589461D01*
X114312812Y-103589919D01*
X114298868Y-103582305D01*
X114297035Y-103582436D01*
X114290420Y-103586687D01*
X113290684Y-104586423D01*
X113283924Y-104598803D01*
X107188000Y-104598803D01*
X107188000Y-102853204D01*
X112287665Y-102853204D01*
X112302932Y-103117969D01*
X112304005Y-103126470D01*
X112355065Y-103386722D01*
X112357276Y-103394974D01*
X112443184Y-103645894D01*
X112446499Y-103653779D01*
X112562165Y-103883755D01*
X112567899Y-103888415D01*
X112581619Y-103881274D01*
X113580081Y-102882812D01*
X113586459Y-102871132D01*
X115012305Y-102871132D01*
X115012436Y-102872965D01*
X115016687Y-102879580D01*
X116016889Y-103879782D01*
X116029269Y-103886542D01*
X116035533Y-103881853D01*
X116127962Y-103711620D01*
X116131530Y-103703827D01*
X116225271Y-103455750D01*
X116227748Y-103447544D01*
X116286954Y-103189038D01*
X116288294Y-103180577D01*
X116312031Y-102914616D01*
X116312277Y-102909677D01*
X116312666Y-102872485D01*
X116312523Y-102867519D01*
X116294362Y-102601123D01*
X116293201Y-102592649D01*
X116239419Y-102332944D01*
X116237120Y-102324709D01*
X116148588Y-102074705D01*
X116145191Y-102066855D01*
X116039477Y-101862038D01*
X116029740Y-101851836D01*
X116022900Y-101854207D01*
X115019919Y-102857188D01*
X115012305Y-102871132D01*
X113586459Y-102871132D01*
X113587695Y-102868868D01*
X113587564Y-102867035D01*
X113583313Y-102860420D01*
X112582461Y-101859568D01*
X112570081Y-101852808D01*
X112564057Y-101857318D01*
X112463325Y-102047567D01*
X112459839Y-102055395D01*
X112368700Y-102304446D01*
X112366311Y-102312670D01*
X112309812Y-102571795D01*
X112308563Y-102580250D01*
X112287754Y-102844653D01*
X112287665Y-102853204D01*
X107188000Y-102853204D01*
X107188000Y-101142308D01*
X113284335Y-101142308D01*
X113287878Y-101150771D01*
X114287188Y-102150081D01*
X114301132Y-102157695D01*
X114302965Y-102157564D01*
X114309580Y-102153313D01*
X115308993Y-101153900D01*
X115315753Y-101141520D01*
X115310026Y-101133870D01*
X115236122Y-101088582D01*
X115228552Y-101084624D01*
X114985704Y-100978022D01*
X114977644Y-100975120D01*
X114722592Y-100902467D01*
X114714214Y-100900685D01*
X114451656Y-100863318D01*
X114443111Y-100862691D01*
X114177908Y-100861302D01*
X114169374Y-100861839D01*
X113906433Y-100896456D01*
X113898035Y-100898149D01*
X113642238Y-100968127D01*
X113634143Y-100970946D01*
X113390199Y-101074997D01*
X113382576Y-101078881D01*
X113293906Y-101131949D01*
X113284335Y-101142308D01*
X107188000Y-101142308D01*
X107188000Y-94504792D01*
X107911812Y-94504792D01*
X107920642Y-94516413D01*
X107923976Y-94518835D01*
X107930643Y-94523066D01*
X108189234Y-94665228D01*
X108196369Y-94668585D01*
X108470746Y-94777219D01*
X108478237Y-94779653D01*
X108764059Y-94853039D01*
X108771830Y-94854521D01*
X109064570Y-94891503D01*
X109072460Y-94892000D01*
X109367540Y-94892000D01*
X109375430Y-94891503D01*
X109668170Y-94854521D01*
X109675941Y-94853039D01*
X109961763Y-94779653D01*
X109969254Y-94777219D01*
X110243631Y-94668585D01*
X110250766Y-94665228D01*
X110509357Y-94523066D01*
X110516024Y-94518835D01*
X110519730Y-94516142D01*
X110528154Y-94505219D01*
X110521250Y-94492357D01*
X109232812Y-93203919D01*
X109218868Y-93196305D01*
X109217035Y-93196436D01*
X109210420Y-93200687D01*
X107918425Y-94492682D01*
X107911812Y-94504792D01*
X107188000Y-94504792D01*
X107188000Y-93861083D01*
X107208002Y-93792962D01*
X107224905Y-93771988D01*
X108500081Y-92496812D01*
X108506459Y-92485132D01*
X109932305Y-92485132D01*
X109932436Y-92486965D01*
X109936687Y-92493580D01*
X111226445Y-93783338D01*
X111238825Y-93790098D01*
X111246965Y-93784005D01*
X111332195Y-93649703D01*
X111336007Y-93642770D01*
X111461639Y-93375787D01*
X111464554Y-93368424D01*
X111555733Y-93087805D01*
X111557704Y-93080128D01*
X111612992Y-92790297D01*
X111613985Y-92782436D01*
X111632512Y-92487958D01*
X111632512Y-92480042D01*
X111613985Y-92185564D01*
X111612992Y-92177703D01*
X111557704Y-91887872D01*
X111555733Y-91880195D01*
X111464554Y-91599576D01*
X111461639Y-91592213D01*
X111336007Y-91325230D01*
X111332195Y-91318297D01*
X111248965Y-91187147D01*
X111238359Y-91177850D01*
X111229086Y-91182021D01*
X109939919Y-92471188D01*
X109932305Y-92485132D01*
X108506459Y-92485132D01*
X108507695Y-92482868D01*
X108507564Y-92481035D01*
X108503313Y-92474420D01*
X107224905Y-91196012D01*
X107190879Y-91133700D01*
X107188000Y-91106917D01*
X107188000Y-90578000D01*
X107208002Y-90509879D01*
X107261658Y-90463386D01*
X107314000Y-90452000D01*
X107842917Y-90452000D01*
X107911038Y-90472002D01*
G37*
%TD.AperFunction*%
%TA.AperFunction,Conductor*%
G36*
X174059621Y-111869002D02*
G01*
X174106114Y-111922658D01*
X174117500Y-111975000D01*
X174117500Y-114306134D01*
X174124255Y-114368316D01*
X174127029Y-114375715D01*
X174135154Y-114397389D01*
X174140337Y-114468197D01*
X174112396Y-114524131D01*
X174096550Y-114542418D01*
X174096547Y-114542423D01*
X174090645Y-114549234D01*
X174030579Y-114680760D01*
X174010577Y-114748881D01*
X174009937Y-114753329D01*
X174009936Y-114753336D01*
X173990639Y-114887552D01*
X173990638Y-114887559D01*
X173990000Y-114892000D01*
X173990000Y-116206000D01*
X174001609Y-116313980D01*
X174012995Y-116366322D01*
X174047293Y-116469372D01*
X174125465Y-116591010D01*
X174128407Y-116594405D01*
X174128409Y-116594408D01*
X174163781Y-116635229D01*
X174171958Y-116644666D01*
X174281234Y-116739355D01*
X174412760Y-116799421D01*
X174420539Y-116801705D01*
X174476558Y-116818154D01*
X174476562Y-116818155D01*
X174480881Y-116819423D01*
X174485329Y-116820063D01*
X174485336Y-116820064D01*
X174619552Y-116839361D01*
X174619559Y-116839362D01*
X174624000Y-116840000D01*
X177817469Y-116840000D01*
X177885590Y-116860002D01*
X177906564Y-116876905D01*
X180077325Y-119047666D01*
X180079779Y-119050188D01*
X180139759Y-119113615D01*
X180148332Y-119122681D01*
X180205203Y-119166162D01*
X180210757Y-119170408D01*
X180215892Y-119174552D01*
X180275720Y-119225470D01*
X180280048Y-119228091D01*
X180285357Y-119231307D01*
X180333262Y-119283706D01*
X180345233Y-119353686D01*
X180317469Y-119419029D01*
X180259959Y-119458604D01*
X180110554Y-119508450D01*
X179960152Y-119601522D01*
X179900844Y-119660934D01*
X179873716Y-119688109D01*
X179811434Y-119722188D01*
X179740614Y-119717185D01*
X179695525Y-119688264D01*
X179612983Y-119605866D01*
X179607803Y-119600695D01*
X179601572Y-119596854D01*
X179463468Y-119511725D01*
X179463466Y-119511724D01*
X179457238Y-119507885D01*
X179345897Y-119470955D01*
X179295889Y-119454368D01*
X179295887Y-119454368D01*
X179289361Y-119452203D01*
X179282525Y-119451503D01*
X179282522Y-119451502D01*
X179239469Y-119447091D01*
X179184900Y-119441500D01*
X178559100Y-119441500D01*
X178555854Y-119441837D01*
X178555850Y-119441837D01*
X178460192Y-119451762D01*
X178460188Y-119451763D01*
X178453334Y-119452474D01*
X178446798Y-119454655D01*
X178446796Y-119454655D01*
X178356678Y-119484721D01*
X178285554Y-119508450D01*
X178135152Y-119601522D01*
X178129979Y-119606704D01*
X178095634Y-119641109D01*
X178033352Y-119675188D01*
X177962532Y-119670185D01*
X177917443Y-119641264D01*
X177881984Y-119605866D01*
X177881979Y-119605862D01*
X177876803Y-119600695D01*
X177870572Y-119596854D01*
X177732468Y-119511725D01*
X177732466Y-119511724D01*
X177726238Y-119507885D01*
X177614897Y-119470955D01*
X177564889Y-119454368D01*
X177564887Y-119454368D01*
X177558361Y-119452203D01*
X177551525Y-119451503D01*
X177551522Y-119451502D01*
X177508469Y-119447091D01*
X177453900Y-119441500D01*
X176828100Y-119441500D01*
X176824854Y-119441837D01*
X176824850Y-119441837D01*
X176729192Y-119451762D01*
X176729188Y-119451763D01*
X176722334Y-119452474D01*
X176715798Y-119454655D01*
X176715796Y-119454655D01*
X176625678Y-119484721D01*
X176554554Y-119508450D01*
X176404152Y-119601522D01*
X176398979Y-119606704D01*
X176317362Y-119688463D01*
X176255079Y-119722542D01*
X176184259Y-119717539D01*
X176139171Y-119688618D01*
X176056671Y-119606261D01*
X176045260Y-119597249D01*
X175907257Y-119512184D01*
X175894076Y-119506037D01*
X175833194Y-119485843D01*
X175819101Y-119485354D01*
X175816000Y-119491565D01*
X175816000Y-121801748D01*
X175819973Y-121815279D01*
X175826799Y-121816260D01*
X175895284Y-121793412D01*
X175908462Y-121787239D01*
X176046307Y-121701937D01*
X176057708Y-121692901D01*
X176117327Y-121633178D01*
X176179610Y-121599099D01*
X176250430Y-121604102D01*
X176307302Y-121646599D01*
X176332171Y-121713098D01*
X176332500Y-121722196D01*
X176332500Y-121817279D01*
X176312498Y-121885400D01*
X176302312Y-121899109D01*
X176284824Y-121919584D01*
X176282245Y-121923792D01*
X176282241Y-121923798D01*
X176204699Y-122050335D01*
X176160760Y-122122037D01*
X176158867Y-122126607D01*
X176158865Y-122126611D01*
X176117751Y-122225871D01*
X176069895Y-122341406D01*
X176050640Y-122421609D01*
X176015621Y-122567474D01*
X176014465Y-122572289D01*
X175995835Y-122809000D01*
X176014465Y-123045711D01*
X176015619Y-123050518D01*
X176015620Y-123050524D01*
X176043274Y-123165708D01*
X176069895Y-123276594D01*
X176071788Y-123281165D01*
X176071789Y-123281167D01*
X176116886Y-123390040D01*
X176160760Y-123495963D01*
X176163346Y-123500183D01*
X176282241Y-123694202D01*
X176282245Y-123694208D01*
X176284824Y-123698416D01*
X176439031Y-123878969D01*
X176619584Y-124033176D01*
X176623792Y-124035755D01*
X176623798Y-124035759D01*
X176817817Y-124154654D01*
X176822037Y-124157240D01*
X176826607Y-124159133D01*
X176826611Y-124159135D01*
X177011754Y-124235823D01*
X177041406Y-124248105D01*
X177121609Y-124267360D01*
X177267476Y-124302380D01*
X177267482Y-124302381D01*
X177272289Y-124303535D01*
X177509000Y-124322165D01*
X177745711Y-124303535D01*
X177750518Y-124302381D01*
X177750524Y-124302380D01*
X177896391Y-124267360D01*
X177976594Y-124248105D01*
X178006246Y-124235823D01*
X178191389Y-124159135D01*
X178191393Y-124159133D01*
X178195963Y-124157240D01*
X178200183Y-124154654D01*
X178394202Y-124035759D01*
X178394208Y-124035755D01*
X178398416Y-124033176D01*
X178578969Y-123878969D01*
X178733176Y-123698416D01*
X178735755Y-123694208D01*
X178735759Y-123694202D01*
X178854654Y-123500183D01*
X178857240Y-123495963D01*
X178901115Y-123390040D01*
X178946211Y-123281167D01*
X178946212Y-123281165D01*
X178948105Y-123276594D01*
X178951981Y-123260449D01*
X178987333Y-123198880D01*
X179050359Y-123166197D01*
X179121050Y-123172777D01*
X179176962Y-123216531D01*
X179200500Y-123289863D01*
X179200500Y-123964676D01*
X179180498Y-124032797D01*
X179140336Y-124072107D01*
X179119584Y-124084824D01*
X178939031Y-124239031D01*
X178784824Y-124419584D01*
X178782245Y-124423792D01*
X178782241Y-124423798D01*
X178746146Y-124482700D01*
X178660760Y-124622037D01*
X178569895Y-124841406D01*
X178568740Y-124846218D01*
X178527695Y-125017183D01*
X178514465Y-125072289D01*
X178495835Y-125309000D01*
X178514465Y-125545711D01*
X178515621Y-125550526D01*
X178520146Y-125569373D01*
X178516601Y-125640281D01*
X178486723Y-125687885D01*
X178274013Y-125900595D01*
X178211701Y-125934621D01*
X178184918Y-125937500D01*
X171026731Y-125937500D01*
X170958610Y-125917498D01*
X170912117Y-125863842D01*
X170902013Y-125793568D01*
X170916212Y-125750989D01*
X170918729Y-125746391D01*
X170924115Y-125739205D01*
X170975245Y-125602816D01*
X170982000Y-125540634D01*
X170982000Y-123444366D01*
X170975245Y-123382184D01*
X170924115Y-123245795D01*
X170836761Y-123129239D01*
X170720205Y-123041885D01*
X170583816Y-122990755D01*
X170521634Y-122984000D01*
X168520366Y-122984000D01*
X168458184Y-122990755D01*
X168321795Y-123041885D01*
X168205239Y-123129239D01*
X168202586Y-123132779D01*
X168142283Y-123165708D01*
X168071468Y-123160643D01*
X168014632Y-123118096D01*
X167989821Y-123051576D01*
X167989500Y-123042587D01*
X167989500Y-121159290D01*
X174296427Y-121159290D01*
X174305757Y-121249206D01*
X174308649Y-121262600D01*
X174360088Y-121416784D01*
X174366261Y-121429962D01*
X174451563Y-121567807D01*
X174460599Y-121579208D01*
X174575329Y-121693739D01*
X174586740Y-121702751D01*
X174724743Y-121787816D01*
X174737924Y-121793963D01*
X174798806Y-121814157D01*
X174812899Y-121814646D01*
X174816000Y-121808435D01*
X174816000Y-121168115D01*
X174811525Y-121152876D01*
X174810135Y-121151671D01*
X174802452Y-121150000D01*
X174313616Y-121150000D01*
X174298377Y-121154475D01*
X174297172Y-121155865D01*
X174296427Y-121159290D01*
X167989500Y-121159290D01*
X167989500Y-120136477D01*
X174296848Y-120136477D01*
X174299975Y-120147124D01*
X174301365Y-120148329D01*
X174309048Y-120150000D01*
X174797885Y-120150000D01*
X174813124Y-120145525D01*
X174814329Y-120144135D01*
X174816000Y-120136452D01*
X174816000Y-119498252D01*
X174812027Y-119484721D01*
X174805201Y-119483740D01*
X174736716Y-119506588D01*
X174723538Y-119512761D01*
X174585693Y-119598063D01*
X174574292Y-119607099D01*
X174459761Y-119721829D01*
X174450749Y-119733240D01*
X174365684Y-119871243D01*
X174359537Y-119884424D01*
X174308362Y-120038710D01*
X174305495Y-120052086D01*
X174296848Y-120136477D01*
X167989500Y-120136477D01*
X167989500Y-119791403D01*
X168009502Y-119723282D01*
X168026405Y-119702308D01*
X169301379Y-118427333D01*
X169311522Y-118418231D01*
X169336218Y-118398375D01*
X169341025Y-118394510D01*
X169373292Y-118356056D01*
X169376473Y-118352408D01*
X169378117Y-118350595D01*
X169380309Y-118348403D01*
X169407580Y-118315202D01*
X169408362Y-118314260D01*
X169410677Y-118311502D01*
X169438905Y-118277861D01*
X169464193Y-118247725D01*
X169464195Y-118247722D01*
X169468154Y-118243004D01*
X169470723Y-118238331D01*
X169474103Y-118234216D01*
X169518028Y-118152298D01*
X169518657Y-118151140D01*
X169560465Y-118075090D01*
X169560465Y-118075089D01*
X169563433Y-118069691D01*
X169565044Y-118064613D01*
X169567563Y-118059915D01*
X169594753Y-117970980D01*
X169595136Y-117969750D01*
X169604763Y-117939404D01*
X169623235Y-117881172D01*
X169623828Y-117875881D01*
X169625388Y-117870780D01*
X169634795Y-117778167D01*
X169634915Y-117777047D01*
X169640500Y-117727251D01*
X169640500Y-117723722D01*
X169640555Y-117722739D01*
X169641004Y-117717034D01*
X169641377Y-117713368D01*
X169643509Y-117692379D01*
X169644752Y-117680142D01*
X169644752Y-117680139D01*
X169645374Y-117674015D01*
X169641059Y-117628366D01*
X169640500Y-117616509D01*
X169640500Y-115231826D01*
X169648518Y-115187596D01*
X169652535Y-115176881D01*
X169658745Y-115160316D01*
X169665500Y-115098134D01*
X169665500Y-113501866D01*
X169658745Y-113439684D01*
X169648518Y-113412404D01*
X169640500Y-113368174D01*
X169640500Y-111975000D01*
X169660502Y-111906879D01*
X169714158Y-111860386D01*
X169766500Y-111849000D01*
X173991500Y-111849000D01*
X174059621Y-111869002D01*
G37*
%TD.AperFunction*%
%TA.AperFunction,Conductor*%
G36*
X161083310Y-115244197D02*
G01*
X161111353Y-115265323D01*
X165935595Y-120089565D01*
X165969621Y-120151877D01*
X165972500Y-120178660D01*
X165972500Y-123335013D01*
X165952498Y-123403134D01*
X165937594Y-123422064D01*
X165862942Y-123500183D01*
X165841699Y-123522412D01*
X165816465Y-123559403D01*
X165761556Y-123604404D01*
X165691032Y-123612575D01*
X165627284Y-123581321D01*
X165606589Y-123556840D01*
X165605311Y-123554865D01*
X165602502Y-123550523D01*
X165440814Y-123372830D01*
X165346073Y-123298008D01*
X165256330Y-123227133D01*
X165256325Y-123227130D01*
X165252276Y-123223932D01*
X165247760Y-123221439D01*
X165247757Y-123221437D01*
X165046474Y-123110323D01*
X165046470Y-123110321D01*
X165041950Y-123107826D01*
X165037081Y-123106102D01*
X165037077Y-123106100D01*
X164820360Y-123029356D01*
X164820356Y-123029355D01*
X164815485Y-123027630D01*
X164810392Y-123026723D01*
X164810389Y-123026722D01*
X164584052Y-122986405D01*
X164584046Y-122986404D01*
X164578963Y-122985499D01*
X164486474Y-122984369D01*
X164343907Y-122982627D01*
X164343905Y-122982627D01*
X164338737Y-122982564D01*
X164101256Y-123018904D01*
X164008256Y-123049301D01*
X163877817Y-123091934D01*
X163877811Y-123091937D01*
X163872899Y-123093542D01*
X163868313Y-123095929D01*
X163868309Y-123095931D01*
X163698127Y-123184523D01*
X163659800Y-123204475D01*
X163655657Y-123207585D01*
X163655658Y-123207585D01*
X163477937Y-123341022D01*
X163467680Y-123348723D01*
X163432500Y-123385537D01*
X163322942Y-123500183D01*
X163301699Y-123522412D01*
X163298785Y-123526684D01*
X163169597Y-123716066D01*
X163166314Y-123720878D01*
X163164140Y-123725561D01*
X163164138Y-123725565D01*
X163067342Y-123934095D01*
X163065163Y-123938790D01*
X163000960Y-124170298D01*
X163000411Y-124175435D01*
X162984772Y-124321777D01*
X162980000Y-124366428D01*
X162980000Y-124600902D01*
X162980212Y-124603475D01*
X162980212Y-124603486D01*
X162988513Y-124704446D01*
X162994678Y-124779437D01*
X163053206Y-125012444D01*
X163149003Y-125232763D01*
X163233885Y-125363970D01*
X163273755Y-125425599D01*
X163279498Y-125434477D01*
X163441186Y-125612170D01*
X163557846Y-125704302D01*
X163568376Y-125712618D01*
X163609439Y-125770535D01*
X163612671Y-125841458D01*
X163577046Y-125902869D01*
X163513875Y-125935272D01*
X163490284Y-125937500D01*
X122053082Y-125937500D01*
X121984961Y-125917498D01*
X121963987Y-125900595D01*
X117731357Y-121667965D01*
X117697331Y-121605653D01*
X117702396Y-121534838D01*
X117744943Y-121478002D01*
X117811463Y-121453191D01*
X117831432Y-121453349D01*
X117850522Y-121455019D01*
X117850525Y-121455019D01*
X117856000Y-121455498D01*
X117907652Y-121450979D01*
X117918634Y-121450500D01*
X121833812Y-121450500D01*
X121901933Y-121470502D01*
X121922907Y-121487405D01*
X123488700Y-123053198D01*
X123493208Y-123056355D01*
X123493211Y-123056357D01*
X123531173Y-123082938D01*
X123539893Y-123089630D01*
X123575388Y-123119414D01*
X123575394Y-123119418D01*
X123579609Y-123122955D01*
X123584373Y-123125705D01*
X123584378Y-123125709D01*
X123624506Y-123148876D01*
X123633776Y-123154781D01*
X123676251Y-123184523D01*
X123681236Y-123186848D01*
X123681242Y-123186851D01*
X123723250Y-123206439D01*
X123732995Y-123211512D01*
X123777892Y-123237433D01*
X123783055Y-123239312D01*
X123783063Y-123239316D01*
X123826616Y-123255169D01*
X123836766Y-123259373D01*
X123878768Y-123278958D01*
X123878771Y-123278959D01*
X123883757Y-123281284D01*
X123889070Y-123282708D01*
X123889074Y-123282709D01*
X123933834Y-123294702D01*
X123944317Y-123298007D01*
X123993042Y-123315742D01*
X123998448Y-123316695D01*
X123998451Y-123316696D01*
X124044105Y-123324746D01*
X124054834Y-123327125D01*
X124096783Y-123338364D01*
X124104913Y-123340543D01*
X124143523Y-123343921D01*
X124156564Y-123345062D01*
X124167461Y-123346497D01*
X124199656Y-123352173D01*
X124218521Y-123355500D01*
X132856979Y-123355500D01*
X132908039Y-123346497D01*
X132918935Y-123345062D01*
X132919426Y-123345019D01*
X132970587Y-123340543D01*
X133020663Y-123327125D01*
X133031388Y-123324747D01*
X133051719Y-123321162D01*
X133082459Y-123315742D01*
X133131199Y-123298002D01*
X133141639Y-123294710D01*
X133191743Y-123281284D01*
X133238734Y-123259372D01*
X133248888Y-123255166D01*
X133292440Y-123239314D01*
X133297608Y-123237433D01*
X133342505Y-123211512D01*
X133352250Y-123206439D01*
X133394258Y-123186851D01*
X133394264Y-123186848D01*
X133399249Y-123184523D01*
X133441724Y-123154781D01*
X133450994Y-123148876D01*
X133491122Y-123125709D01*
X133491127Y-123125705D01*
X133495891Y-123122955D01*
X133500106Y-123119418D01*
X133500112Y-123119414D01*
X133535607Y-123089630D01*
X133544327Y-123082938D01*
X133582289Y-123056357D01*
X133582292Y-123056355D01*
X133586800Y-123053198D01*
X133748698Y-122891300D01*
X134089144Y-122550855D01*
X134199455Y-122419391D01*
X134202201Y-122414634D01*
X134202205Y-122414629D01*
X134311183Y-122225871D01*
X134313933Y-122221108D01*
X134325247Y-122190023D01*
X134354553Y-122144024D01*
X135567672Y-120930905D01*
X135629984Y-120896879D01*
X135656767Y-120894000D01*
X150120733Y-120894000D01*
X150188854Y-120914002D01*
X150209828Y-120930905D01*
X150721171Y-121442248D01*
X150732038Y-121454639D01*
X150741415Y-121466860D01*
X150741419Y-121466864D01*
X150744831Y-121471311D01*
X150781951Y-121505087D01*
X150802628Y-121523902D01*
X150806924Y-121528001D01*
X150822165Y-121543242D01*
X150824318Y-121545043D01*
X150824320Y-121545044D01*
X150841322Y-121559260D01*
X150845289Y-121562721D01*
X150862612Y-121578483D01*
X150892472Y-121605653D01*
X150904389Y-121616497D01*
X150909144Y-121619480D01*
X150918693Y-121625471D01*
X150932553Y-121635541D01*
X150945505Y-121646370D01*
X151014917Y-121685962D01*
X151019422Y-121688658D01*
X151087135Y-121731134D01*
X151092345Y-121733228D01*
X151092346Y-121733229D01*
X151102799Y-121737431D01*
X151118228Y-121744890D01*
X151132891Y-121753253D01*
X151138174Y-121755124D01*
X151138181Y-121755127D01*
X151208224Y-121779930D01*
X151213132Y-121781785D01*
X151287293Y-121811597D01*
X151292791Y-121812736D01*
X151292792Y-121812736D01*
X151303830Y-121815022D01*
X151320326Y-121819627D01*
X151336244Y-121825264D01*
X151341778Y-121826170D01*
X151341781Y-121826171D01*
X151415083Y-121838174D01*
X151420274Y-121839136D01*
X151498537Y-121855344D01*
X151503148Y-121855610D01*
X151503149Y-121855610D01*
X151524966Y-121856868D01*
X151538071Y-121858315D01*
X151543305Y-121859172D01*
X151549134Y-121860126D01*
X151554748Y-121860038D01*
X151554750Y-121860038D01*
X151651635Y-121858516D01*
X151653614Y-121858500D01*
X160209415Y-121858500D01*
X160225860Y-121859578D01*
X160246689Y-121862320D01*
X160252288Y-121862056D01*
X160252290Y-121862056D01*
X160324723Y-121858640D01*
X160330658Y-121858500D01*
X160352235Y-121858500D01*
X160355021Y-121858251D01*
X160355029Y-121858251D01*
X160377101Y-121856281D01*
X160382365Y-121855922D01*
X160435153Y-121853432D01*
X160462175Y-121852158D01*
X160467634Y-121850908D01*
X160467639Y-121850907D01*
X160478632Y-121848389D01*
X160495563Y-121845708D01*
X160499674Y-121845341D01*
X160512372Y-121844208D01*
X160517784Y-121842727D01*
X160517792Y-121842726D01*
X160589441Y-121823125D01*
X160594559Y-121821839D01*
X160609529Y-121818410D01*
X160672457Y-121803998D01*
X160677614Y-121801798D01*
X160677621Y-121801796D01*
X160687983Y-121797376D01*
X160704170Y-121791739D01*
X160715037Y-121788766D01*
X160715044Y-121788763D01*
X160720452Y-121787284D01*
X160725510Y-121784872D01*
X160725514Y-121784870D01*
X160792580Y-121752881D01*
X160797379Y-121750714D01*
X160870886Y-121719360D01*
X160875574Y-121716281D01*
X160875577Y-121716279D01*
X160884994Y-121710093D01*
X160899928Y-121701678D01*
X160910094Y-121696829D01*
X160910095Y-121696828D01*
X160915163Y-121694411D01*
X160919718Y-121691138D01*
X160919728Y-121691132D01*
X160980044Y-121647790D01*
X160984394Y-121644800D01*
X161047332Y-121603458D01*
X161047336Y-121603455D01*
X161051192Y-121600922D01*
X161070960Y-121583309D01*
X161081255Y-121575062D01*
X161085792Y-121571802D01*
X161085793Y-121571802D01*
X161090351Y-121568526D01*
X161126229Y-121531503D01*
X161163262Y-121505087D01*
X161168001Y-121502867D01*
X161174946Y-121500550D01*
X161325348Y-121407478D01*
X161450305Y-121282303D01*
X161468889Y-121252155D01*
X161539275Y-121137968D01*
X161539276Y-121137966D01*
X161543115Y-121131738D01*
X161583922Y-121008707D01*
X161596632Y-120970389D01*
X161596632Y-120970387D01*
X161598797Y-120963861D01*
X161609500Y-120859400D01*
X161609500Y-120655320D01*
X161609838Y-120646096D01*
X161610219Y-120640903D01*
X161611126Y-120635366D01*
X161610654Y-120605283D01*
X161609516Y-120532865D01*
X161609500Y-120530886D01*
X161609500Y-120233600D01*
X161603272Y-120173573D01*
X161599238Y-120134692D01*
X161599237Y-120134688D01*
X161598526Y-120127834D01*
X161585759Y-120089565D01*
X161544868Y-119967002D01*
X161542550Y-119960054D01*
X161449478Y-119809652D01*
X161362891Y-119723216D01*
X161328812Y-119660934D01*
X161333815Y-119590114D01*
X161362736Y-119545025D01*
X161445134Y-119462483D01*
X161450305Y-119457303D01*
X161454146Y-119451072D01*
X161539275Y-119312968D01*
X161539276Y-119312966D01*
X161543115Y-119306738D01*
X161587670Y-119172409D01*
X161596632Y-119145389D01*
X161596632Y-119145387D01*
X161598797Y-119138861D01*
X161600798Y-119119338D01*
X161604223Y-119085907D01*
X161609500Y-119034400D01*
X161609500Y-118408600D01*
X161608038Y-118394510D01*
X161599238Y-118309692D01*
X161599237Y-118309688D01*
X161598526Y-118302834D01*
X161594719Y-118291421D01*
X161544868Y-118142002D01*
X161542550Y-118135054D01*
X161449478Y-117984652D01*
X161324303Y-117859695D01*
X161268086Y-117825042D01*
X161179968Y-117770725D01*
X161179966Y-117770724D01*
X161173738Y-117766885D01*
X161046445Y-117724664D01*
X161012389Y-117713368D01*
X161012387Y-117713368D01*
X161005861Y-117711203D01*
X160999025Y-117710503D01*
X160999022Y-117710502D01*
X160955969Y-117706091D01*
X160901400Y-117700500D01*
X160255593Y-117700500D01*
X160239147Y-117699422D01*
X160232849Y-117698593D01*
X160185639Y-117692378D01*
X160179141Y-117691348D01*
X160116314Y-117679704D01*
X160108734Y-117680141D01*
X160108733Y-117680141D01*
X160054108Y-117683291D01*
X160046854Y-117683500D01*
X159535500Y-117683500D01*
X159467379Y-117663498D01*
X159420886Y-117609842D01*
X159409500Y-117557500D01*
X159409500Y-117250161D01*
X159429502Y-117182040D01*
X159446405Y-117161066D01*
X159696896Y-116910575D01*
X159697363Y-116910109D01*
X159761575Y-116846566D01*
X159762391Y-116845235D01*
X159763664Y-116843806D01*
X160603536Y-116003935D01*
X160609801Y-115998082D01*
X160647664Y-115965052D01*
X160647665Y-115965051D01*
X160653385Y-115960061D01*
X160690136Y-115907771D01*
X160694028Y-115902529D01*
X160733476Y-115852218D01*
X160736600Y-115845299D01*
X160737988Y-115843007D01*
X160746357Y-115828335D01*
X160747622Y-115825975D01*
X160751990Y-115819761D01*
X160755471Y-115810834D01*
X160775202Y-115760225D01*
X160777759Y-115754142D01*
X160780431Y-115748226D01*
X160804045Y-115695927D01*
X160805430Y-115688454D01*
X160806234Y-115685888D01*
X160810855Y-115669665D01*
X160811520Y-115667073D01*
X160814282Y-115659991D01*
X160818249Y-115629861D01*
X160822622Y-115596639D01*
X160823654Y-115590123D01*
X160833911Y-115534781D01*
X160835295Y-115527314D01*
X160834858Y-115519732D01*
X160835335Y-115512150D01*
X160836812Y-115512243D01*
X160847405Y-115462192D01*
X160846643Y-115461902D01*
X160847848Y-115458729D01*
X160903166Y-115313106D01*
X160904470Y-115309674D01*
X160947359Y-115253096D01*
X161014028Y-115228687D01*
X161083310Y-115244197D01*
G37*
%TD.AperFunction*%
%TA.AperFunction,Conductor*%
G36*
X120045771Y-106974502D02*
G01*
X120066667Y-106991326D01*
X120095697Y-107020305D01*
X120101927Y-107024145D01*
X120101928Y-107024146D01*
X120239090Y-107108694D01*
X120246262Y-107113115D01*
X120313905Y-107135551D01*
X120407611Y-107166632D01*
X120407613Y-107166632D01*
X120414139Y-107168797D01*
X120420975Y-107169497D01*
X120420978Y-107169498D01*
X120464031Y-107173909D01*
X120518600Y-107179500D01*
X121119400Y-107179500D01*
X121122646Y-107179163D01*
X121122650Y-107179163D01*
X121218308Y-107169238D01*
X121218312Y-107169237D01*
X121225166Y-107168526D01*
X121231702Y-107166345D01*
X121231704Y-107166345D01*
X121378412Y-107117399D01*
X121392946Y-107112550D01*
X121424503Y-107093022D01*
X121492955Y-107074184D01*
X121560725Y-107095345D01*
X121606296Y-107149786D01*
X121615199Y-107220222D01*
X121610400Y-107239828D01*
X121562203Y-107385139D01*
X121561503Y-107391975D01*
X121561502Y-107391978D01*
X121557091Y-107435031D01*
X121551500Y-107489600D01*
X121551500Y-108090400D01*
X121551837Y-108093646D01*
X121551837Y-108093650D01*
X121561300Y-108184850D01*
X121562474Y-108196166D01*
X121564655Y-108202702D01*
X121564655Y-108202704D01*
X121596981Y-108299597D01*
X121618450Y-108363946D01*
X121711522Y-108514348D01*
X121716704Y-108519521D01*
X121739431Y-108542208D01*
X121836697Y-108639305D01*
X121841235Y-108642102D01*
X121881824Y-108699353D01*
X121885054Y-108770276D01*
X121849428Y-108831687D01*
X121840932Y-108839062D01*
X121830793Y-108847098D01*
X121716261Y-108961829D01*
X121707249Y-108973240D01*
X121622184Y-109111243D01*
X121616037Y-109124424D01*
X121599989Y-109172806D01*
X121599500Y-109186899D01*
X121605711Y-109190000D01*
X123159000Y-109190000D01*
X123227121Y-109210002D01*
X123273614Y-109263658D01*
X123285000Y-109316000D01*
X123285000Y-110827885D01*
X123289475Y-110843124D01*
X123290865Y-110844329D01*
X123298548Y-110846000D01*
X123957578Y-110846000D01*
X123972817Y-110841525D01*
X123976320Y-110837483D01*
X123999158Y-110787472D01*
X124058884Y-110749087D01*
X124129881Y-110749086D01*
X124158519Y-110761528D01*
X124171399Y-110769145D01*
X124179010Y-110771356D01*
X124179012Y-110771357D01*
X124184124Y-110772842D01*
X124331169Y-110815562D01*
X124337574Y-110816066D01*
X124337579Y-110816067D01*
X124366042Y-110818307D01*
X124366050Y-110818307D01*
X124368498Y-110818500D01*
X125525500Y-110818500D01*
X125593621Y-110838502D01*
X125640114Y-110892158D01*
X125651500Y-110944500D01*
X125651500Y-111176502D01*
X125651693Y-111178950D01*
X125651693Y-111178958D01*
X125653699Y-111204438D01*
X125654438Y-111213831D01*
X125677038Y-111291621D01*
X125697049Y-111360499D01*
X125700855Y-111373601D01*
X125705579Y-111381588D01*
X125781509Y-111509980D01*
X125781511Y-111509983D01*
X125785547Y-111516807D01*
X125903193Y-111634453D01*
X125900891Y-111636755D01*
X125933677Y-111682183D01*
X125937505Y-111753077D01*
X125904044Y-111813166D01*
X125799695Y-111917697D01*
X125795855Y-111923927D01*
X125795854Y-111923928D01*
X125760983Y-111980500D01*
X125706885Y-112068262D01*
X125651203Y-112236139D01*
X125640500Y-112340600D01*
X125640500Y-112966400D01*
X125640837Y-112969646D01*
X125640837Y-112969650D01*
X125650712Y-113064818D01*
X125651474Y-113072166D01*
X125653655Y-113078702D01*
X125653655Y-113078704D01*
X125671807Y-113133111D01*
X125707450Y-113239946D01*
X125711306Y-113246177D01*
X125718624Y-113258003D01*
X125737462Y-113326455D01*
X125716301Y-113394225D01*
X125661860Y-113439796D01*
X125593548Y-113449023D01*
X125528290Y-113439640D01*
X125528275Y-113439639D01*
X125523831Y-113439000D01*
X124144500Y-113439000D01*
X124076379Y-113418998D01*
X124029886Y-113365342D01*
X124018500Y-113313000D01*
X124018500Y-112945600D01*
X124010189Y-112865500D01*
X124008238Y-112846692D01*
X124008237Y-112846688D01*
X124007526Y-112839834D01*
X124003777Y-112828595D01*
X123953868Y-112679002D01*
X123951550Y-112672054D01*
X123858478Y-112521652D01*
X123733303Y-112396695D01*
X123728765Y-112393898D01*
X123688176Y-112336647D01*
X123684946Y-112265724D01*
X123720572Y-112204313D01*
X123729068Y-112196938D01*
X123739207Y-112188902D01*
X123853739Y-112074171D01*
X123862751Y-112062760D01*
X123947816Y-111924757D01*
X123953963Y-111911576D01*
X123970011Y-111863194D01*
X123970500Y-111849101D01*
X123964289Y-111846000D01*
X121612422Y-111846000D01*
X121598891Y-111849973D01*
X121597910Y-111856799D01*
X121616588Y-111912784D01*
X121622761Y-111925962D01*
X121708063Y-112063807D01*
X121717099Y-112075208D01*
X121831828Y-112189738D01*
X121840762Y-112196794D01*
X121881823Y-112254712D01*
X121885053Y-112325635D01*
X121849426Y-112387046D01*
X121841593Y-112393846D01*
X121835652Y-112397522D01*
X121710695Y-112522697D01*
X121706855Y-112528927D01*
X121706854Y-112528928D01*
X121629101Y-112655067D01*
X121617885Y-112673262D01*
X121615581Y-112680209D01*
X121612006Y-112690987D01*
X121581508Y-112740415D01*
X121493328Y-112828595D01*
X121431016Y-112862621D01*
X121404233Y-112865500D01*
X119266500Y-112865500D01*
X119198379Y-112845498D01*
X119151886Y-112791842D01*
X119140500Y-112739500D01*
X119140500Y-110200799D01*
X121597910Y-110200799D01*
X121616588Y-110256784D01*
X121622761Y-110269962D01*
X121708063Y-110407807D01*
X121717099Y-110419208D01*
X121726817Y-110428909D01*
X121760896Y-110491191D01*
X121755893Y-110562011D01*
X121726970Y-110607102D01*
X121716261Y-110617830D01*
X121707249Y-110629240D01*
X121622184Y-110767243D01*
X121616037Y-110780424D01*
X121599989Y-110828806D01*
X121599500Y-110842899D01*
X121605711Y-110846000D01*
X122266885Y-110846000D01*
X122282124Y-110841525D01*
X122283329Y-110840135D01*
X122285000Y-110832452D01*
X122285000Y-110208115D01*
X122280525Y-110192876D01*
X122279135Y-110191671D01*
X122271452Y-110190000D01*
X121612422Y-110190000D01*
X121598891Y-110193973D01*
X121597910Y-110200799D01*
X119140500Y-110200799D01*
X119140500Y-108002665D01*
X119158724Y-107937394D01*
X119182600Y-107897970D01*
X119182601Y-107897969D01*
X119185221Y-107893642D01*
X119276155Y-107668571D01*
X119300255Y-107562495D01*
X119323264Y-107461219D01*
X119357038Y-107400039D01*
X119765672Y-106991405D01*
X119827984Y-106957379D01*
X119854767Y-106954500D01*
X119977650Y-106954500D01*
X120045771Y-106974502D01*
G37*
%TD.AperFunction*%
%TA.AperFunction,Conductor*%
G36*
X166017532Y-102548868D02*
G01*
X166074368Y-102591415D01*
X166099179Y-102657935D01*
X166099500Y-102666924D01*
X166099500Y-104729362D01*
X166082948Y-104791790D01*
X166004747Y-104928891D01*
X166002878Y-104934168D01*
X166002876Y-104934173D01*
X165939524Y-105113075D01*
X165932736Y-105132244D01*
X165897874Y-105345134D01*
X165897962Y-105350748D01*
X165897962Y-105350750D01*
X165898695Y-105397417D01*
X165901262Y-105560833D01*
X165902342Y-105566338D01*
X165939912Y-105757831D01*
X165942794Y-105772523D01*
X165944832Y-105777749D01*
X165944833Y-105777754D01*
X165991192Y-105896657D01*
X166021157Y-105973514D01*
X166133873Y-106157450D01*
X166137608Y-106161642D01*
X166137611Y-106161646D01*
X166266896Y-106306751D01*
X166277381Y-106318519D01*
X166279434Y-106320129D01*
X166288067Y-106329386D01*
X166318718Y-106366968D01*
X166385040Y-106448287D01*
X166385043Y-106448290D01*
X166388935Y-106453062D01*
X166393682Y-106456989D01*
X166393684Y-106456991D01*
X166536575Y-106575201D01*
X166536579Y-106575203D01*
X166541325Y-106579130D01*
X166715299Y-106673198D01*
X166904232Y-106731682D01*
X166910357Y-106732326D01*
X166910358Y-106732326D01*
X167094796Y-106751711D01*
X167094798Y-106751711D01*
X167100925Y-106752355D01*
X167183424Y-106744847D01*
X167291749Y-106734989D01*
X167291752Y-106734988D01*
X167297888Y-106734430D01*
X167303794Y-106732692D01*
X167303798Y-106732691D01*
X167408924Y-106701751D01*
X167487619Y-106678590D01*
X167493083Y-106675733D01*
X167493089Y-106675731D01*
X167517124Y-106663166D01*
X167586760Y-106649331D01*
X167652821Y-106675341D01*
X167694333Y-106732936D01*
X167701500Y-106774827D01*
X167701500Y-107172079D01*
X167681498Y-107240200D01*
X167627842Y-107286693D01*
X167610999Y-107292975D01*
X167528879Y-107317088D01*
X167502628Y-107324796D01*
X167380990Y-107402968D01*
X167377595Y-107405910D01*
X167377592Y-107405912D01*
X167353456Y-107426826D01*
X167327334Y-107449461D01*
X167232645Y-107558737D01*
X167172579Y-107690263D01*
X167171311Y-107694582D01*
X167154731Y-107751049D01*
X167152577Y-107758384D01*
X167151937Y-107762832D01*
X167151936Y-107762839D01*
X167132639Y-107897055D01*
X167132638Y-107897062D01*
X167132000Y-107901503D01*
X167132000Y-107998483D01*
X167132070Y-107999958D01*
X167132070Y-107999979D01*
X167134011Y-108041161D01*
X167134251Y-108046251D01*
X167136479Y-108069840D01*
X167143210Y-108117175D01*
X167190217Y-108253913D01*
X167192267Y-108257909D01*
X167192270Y-108257917D01*
X167220568Y-108313088D01*
X167222618Y-108317084D01*
X167225214Y-108320745D01*
X167225216Y-108320749D01*
X167235155Y-108334767D01*
X167293166Y-108416591D01*
X167316246Y-108483728D01*
X167299365Y-108552689D01*
X167279472Y-108578558D01*
X167065467Y-108792563D01*
X167002569Y-108826715D01*
X166849712Y-108859206D01*
X166843682Y-108861891D01*
X166843681Y-108861891D01*
X166681278Y-108934197D01*
X166681276Y-108934198D01*
X166675248Y-108936882D01*
X166669907Y-108940762D01*
X166669906Y-108940763D01*
X166632360Y-108968042D01*
X166520747Y-109049134D01*
X166516326Y-109054044D01*
X166516325Y-109054045D01*
X166402140Y-109180861D01*
X166392960Y-109191056D01*
X166351043Y-109263658D01*
X166313607Y-109328500D01*
X166297473Y-109356444D01*
X166238458Y-109538072D01*
X166237768Y-109544633D01*
X166237768Y-109544635D01*
X166225849Y-109658042D01*
X166218496Y-109728000D01*
X166219186Y-109734565D01*
X166236228Y-109896707D01*
X166238458Y-109917928D01*
X166297473Y-110099556D01*
X166370766Y-110226502D01*
X166378579Y-110240035D01*
X166395317Y-110309030D01*
X166372097Y-110376122D01*
X166316290Y-110420009D01*
X166245615Y-110426758D01*
X166180365Y-110392130D01*
X162535607Y-106747373D01*
X162533425Y-106745191D01*
X162520325Y-106734430D01*
X162452344Y-106678590D01*
X162419239Y-106651397D01*
X162316856Y-106596500D01*
X162250370Y-106560851D01*
X162250369Y-106560851D01*
X162244937Y-106557938D01*
X162100743Y-106513853D01*
X162061700Y-106501916D01*
X162061698Y-106501916D01*
X162055802Y-106500113D01*
X161982017Y-106492618D01*
X161865166Y-106480748D01*
X161865161Y-106480748D01*
X161859038Y-106480126D01*
X161735712Y-106491784D01*
X161668271Y-106498159D01*
X161668269Y-106498159D01*
X161662138Y-106498739D01*
X161472604Y-106555241D01*
X161472131Y-106553655D01*
X161436588Y-106560500D01*
X158617740Y-106560500D01*
X158549619Y-106540498D01*
X158503126Y-106486842D01*
X158493022Y-106416568D01*
X158507325Y-106373800D01*
X158535465Y-106322613D01*
X158535467Y-106322608D01*
X158538433Y-106317213D01*
X158543739Y-106300487D01*
X158574745Y-106249490D01*
X158715536Y-106108699D01*
X158876829Y-105947405D01*
X158939142Y-105913380D01*
X158965925Y-105910500D01*
X162072157Y-105910500D01*
X162085764Y-105911237D01*
X162117262Y-105914659D01*
X162117267Y-105914659D01*
X162123388Y-105915324D01*
X162149638Y-105913027D01*
X162173388Y-105910950D01*
X162178214Y-105910621D01*
X162180686Y-105910500D01*
X162183769Y-105910500D01*
X162195738Y-105909326D01*
X162226506Y-105906310D01*
X162227819Y-105906188D01*
X162272084Y-105902315D01*
X162320413Y-105898087D01*
X162325532Y-105896600D01*
X162330833Y-105896080D01*
X162419834Y-105869209D01*
X162420967Y-105868874D01*
X162504414Y-105844630D01*
X162504418Y-105844628D01*
X162510336Y-105842909D01*
X162515068Y-105840456D01*
X162520169Y-105838916D01*
X162545247Y-105825582D01*
X162602260Y-105795269D01*
X162603426Y-105794657D01*
X162680453Y-105754729D01*
X162685926Y-105751892D01*
X162690089Y-105748569D01*
X162694796Y-105746066D01*
X162766918Y-105687245D01*
X162767774Y-105686554D01*
X162806973Y-105655262D01*
X162809477Y-105652758D01*
X162810195Y-105652116D01*
X162814528Y-105648415D01*
X162848062Y-105621065D01*
X162877291Y-105585733D01*
X162885272Y-105576963D01*
X163568968Y-104893266D01*
X163568973Y-104893262D01*
X165884406Y-102577828D01*
X165946717Y-102543804D01*
X166017532Y-102548868D01*
G37*
%TD.AperFunction*%
%TD*%
M02*
