M48
; DRILL file {KiCad (6.0.2)} date Mon Dec 26 11:42:45 2022
; FORMAT={-:-/ absolute / inch / decimal}
; #@! TF.CreationDate,2022-12-26T11:42:45-08:00
; #@! TF.GenerationSoftware,Kicad,Pcbnew,(6.0.2)
; #@! TF.FileFunction,Plated,1,2,PTH
FMAT,2
INCH
; #@! TA.AperFunction,Plated,PTH,ViaDrill
T1C0.0118
; #@! TA.AperFunction,Plated,PTH,ViaDrill
T2C0.0157
; #@! TA.AperFunction,Plated,PTH,ComponentDrill
T3C0.0295
; #@! TA.AperFunction,Plated,PTH,ComponentDrill
T4C0.0394
; #@! TA.AperFunction,Plated,PTH,ComponentDrill
T5C0.0433
; #@! TA.AperFunction,Plated,PTH,ComponentDrill
T6C0.0598
; #@! TA.AperFunction,Plated,PTH,ComponentDrill
T7C0.0866
%
G90
G05
T1
X4.44Y-4.935
X4.64Y-4.935
X4.75Y-4.35
X4.75Y-4.4
X4.8341Y-3.6711
X4.9041Y-4.4311
X4.9241Y-4.3911
X4.94Y-4.04
X4.95Y-4.9
X5.0341Y-3.6711
X5.0641Y-4.3461
X5.095Y-4.535
X5.14Y-4.04
X5.15Y-4.9
X5.22Y-4.33
X5.2341Y-3.6711
X5.285Y-4.6
X5.2891Y-4.1931
X5.3341Y-4.0411
X5.3491Y-4.3311
X5.35Y-4.85
X5.3641Y-4.2811
X5.405Y-4.565
X5.4341Y-3.6711
X5.5341Y-4.0411
X5.55Y-4.85
X5.5941Y-4.2711
X5.6341Y-3.6711
X5.7341Y-4.0411
X5.75Y-4.85
X5.7941Y-4.4711
X5.8141Y-3.9511
X5.8341Y-3.6711
X5.8541Y-3.9511
X5.8941Y-3.9511
X5.9341Y-3.9511
X5.9341Y-4.0411
X5.95Y-4.85
X5.9741Y-3.9511
X6.0341Y-3.6711
X6.1341Y-4.0411
X6.2341Y-3.6711
X6.2341Y-4.5311
X6.3041Y-4.5311
X6.32Y-4.0411
X6.405Y-4.65
X6.49Y-4.265
X6.51Y-4.19
X6.7541Y-4.5011
X6.83Y-4.69
X6.9041Y-3.6411
X6.93Y-4.69
X6.96Y-4.12
X7.0041Y-3.7711
X7.03Y-4.69
X7.06Y-4.12
X7.1041Y-3.6411
X7.2041Y-3.7711
X7.3041Y-3.6411
X7.35Y-4.8
X7.375Y-4.12
X7.475Y-4.12
X7.55Y-4.8
X7.75Y-4.8
X7.77Y-4.62
T2
X5.725Y-4.375
X5.85Y-4.56
X5.98Y-4.235
X6.12Y-4.235
X6.155Y-4.62
X6.205Y-4.17
X6.5791Y-4.163
X6.58Y-4.32
T3
X6.4791Y-3.9153
X6.5291Y-3.9153
X6.5391Y-4.5
X6.5791Y-3.9153
X6.5891Y-4.5
X6.6391Y-4.5
T4
X6.9885Y-4.835
X7.087Y-4.9334
X7.1854Y-4.835
T5
X6.4343Y-3.6866
X6.4741Y-4.9013
X6.5343Y-3.6866
X6.5741Y-4.9013
X6.6343Y-3.6866
X6.6741Y-4.9013
T6
X4.5Y-3.85
X4.5Y-4.05
X4.5Y-4.25
X4.5Y-4.5
X4.5Y-4.7
X7.7Y-4.2
X7.7Y-4.4
T7
X4.2959Y-4.95
X4.3Y-3.6411
X7.8Y-4.95
X7.8041Y-3.6411
T0
M30
