%TF.GenerationSoftware,KiCad,Pcbnew,(6.0.2)*%
%TF.CreationDate,2022-12-26T11:42:45-08:00*%
%TF.ProjectId,discrete_op_amp,64697363-7265-4746-955f-6f705f616d70,rev?*%
%TF.SameCoordinates,Original*%
%TF.FileFunction,Legend,Bot*%
%TF.FilePolarity,Positive*%
%FSLAX46Y46*%
G04 Gerber Fmt 4.6, Leading zero omitted, Abs format (unit mm)*
G04 Created by KiCad (PCBNEW (6.0.2)) date 2022-12-26 11:42:45*
%MOMM*%
%LPD*%
G01*
G04 APERTURE LIST*
%ADD10C,0.100000*%
%ADD11C,2.000000*%
%ADD12R,3.000000X3.000000*%
%ADD13C,3.000000*%
%ADD14O,1.905000X2.000000*%
%ADD15R,1.905000X2.000000*%
%ADD16C,3.800000*%
%ADD17R,1.050000X1.500000*%
%ADD18O,1.050000X1.500000*%
G04 APERTURE END LIST*
D10*
X110058095Y-109277142D02*
X109448572Y-109277142D01*
X108648572Y-109581904D02*
X109105714Y-109581904D01*
X108877143Y-109581904D02*
X108877143Y-108781904D01*
X108953333Y-108896190D01*
X109029524Y-108972380D01*
X109105714Y-109010476D01*
X107924762Y-108781904D02*
X108305714Y-108781904D01*
X108343810Y-109162857D01*
X108305714Y-109124761D01*
X108229524Y-109086666D01*
X108039048Y-109086666D01*
X107962857Y-109124761D01*
X107924762Y-109162857D01*
X107886667Y-109239047D01*
X107886667Y-109429523D01*
X107924762Y-109505714D01*
X107962857Y-109543809D01*
X108039048Y-109581904D01*
X108229524Y-109581904D01*
X108305714Y-109543809D01*
X108343810Y-109505714D01*
X107658095Y-108781904D02*
X107391429Y-109581904D01*
X107124762Y-108781904D01*
X108838952Y-118941904D02*
X108572286Y-119741904D01*
X108305619Y-118941904D01*
X108038952Y-119741904D02*
X108038952Y-118941904D01*
X107658000Y-119437142D02*
X107048476Y-119437142D01*
X199281809Y-115893809D02*
X199167523Y-115931904D01*
X198977047Y-115931904D01*
X198900857Y-115893809D01*
X198862761Y-115855714D01*
X198824666Y-115779523D01*
X198824666Y-115703333D01*
X198862761Y-115627142D01*
X198900857Y-115589047D01*
X198977047Y-115550952D01*
X199129428Y-115512857D01*
X199205619Y-115474761D01*
X199243714Y-115436666D01*
X199281809Y-115360476D01*
X199281809Y-115284285D01*
X199243714Y-115208095D01*
X199205619Y-115170000D01*
X199129428Y-115131904D01*
X198938952Y-115131904D01*
X198824666Y-115170000D01*
X198481809Y-115931904D02*
X198481809Y-115131904D01*
X198177047Y-115131904D01*
X198100857Y-115170000D01*
X198062761Y-115208095D01*
X198024666Y-115284285D01*
X198024666Y-115398571D01*
X198062761Y-115474761D01*
X198100857Y-115512857D01*
X198177047Y-115550952D01*
X198481809Y-115550952D01*
X197681809Y-115931904D02*
X197681809Y-115131904D01*
X197224666Y-115931904D02*
X197567523Y-115474761D01*
X197224666Y-115131904D02*
X197681809Y-115589047D01*
X196424666Y-115931904D02*
X196691333Y-115550952D01*
X196881809Y-115931904D02*
X196881809Y-115131904D01*
X196577047Y-115131904D01*
X196500857Y-115170000D01*
X196462761Y-115208095D01*
X196424666Y-115284285D01*
X196424666Y-115398571D01*
X196462761Y-115474761D01*
X196500857Y-115512857D01*
X196577047Y-115550952D01*
X196881809Y-115550952D01*
X196081809Y-115627142D02*
X195472285Y-115627142D01*
X108838952Y-113861904D02*
X108572286Y-114661904D01*
X108305619Y-113861904D01*
X108038952Y-114661904D02*
X108038952Y-113861904D01*
X107658000Y-114357142D02*
X107048476Y-114357142D01*
X107353238Y-114661904D02*
X107353238Y-114052380D01*
X199281809Y-103574809D02*
X199167523Y-103612904D01*
X198977047Y-103612904D01*
X198900857Y-103574809D01*
X198862761Y-103536714D01*
X198824666Y-103460523D01*
X198824666Y-103384333D01*
X198862761Y-103308142D01*
X198900857Y-103270047D01*
X198977047Y-103231952D01*
X199129428Y-103193857D01*
X199205619Y-103155761D01*
X199243714Y-103117666D01*
X199281809Y-103041476D01*
X199281809Y-102965285D01*
X199243714Y-102889095D01*
X199205619Y-102851000D01*
X199129428Y-102812904D01*
X198938952Y-102812904D01*
X198824666Y-102851000D01*
X198481809Y-103612904D02*
X198481809Y-102812904D01*
X198177047Y-102812904D01*
X198100857Y-102851000D01*
X198062761Y-102889095D01*
X198024666Y-102965285D01*
X198024666Y-103079571D01*
X198062761Y-103155761D01*
X198100857Y-103193857D01*
X198177047Y-103231952D01*
X198481809Y-103231952D01*
X197681809Y-103612904D02*
X197681809Y-102812904D01*
X197224666Y-103612904D02*
X197567523Y-103155761D01*
X197224666Y-102812904D02*
X197681809Y-103270047D01*
X196424666Y-103612904D02*
X196691333Y-103231952D01*
X196881809Y-103612904D02*
X196881809Y-102812904D01*
X196577047Y-102812904D01*
X196500857Y-102851000D01*
X196462761Y-102889095D01*
X196424666Y-102965285D01*
X196424666Y-103079571D01*
X196462761Y-103155761D01*
X196500857Y-103193857D01*
X196577047Y-103231952D01*
X196881809Y-103231952D01*
X196081809Y-103308142D02*
X195472285Y-103308142D01*
X195777047Y-103612904D02*
X195777047Y-103003380D01*
X109029524Y-102431904D02*
X108953333Y-102431904D01*
X108877143Y-102470000D01*
X108839048Y-102508095D01*
X108800952Y-102584285D01*
X108762857Y-102736666D01*
X108762857Y-102927142D01*
X108800952Y-103079523D01*
X108839048Y-103155714D01*
X108877143Y-103193809D01*
X108953333Y-103231904D01*
X109029524Y-103231904D01*
X109105714Y-103193809D01*
X109143810Y-103155714D01*
X109181905Y-103079523D01*
X109220000Y-102927142D01*
X109220000Y-102736666D01*
X109181905Y-102584285D01*
X109143810Y-102508095D01*
X109105714Y-102470000D01*
X109029524Y-102431904D01*
X108534286Y-102431904D02*
X108267619Y-103231904D01*
X108000952Y-102431904D01*
X110058095Y-97847142D02*
X109448572Y-97847142D01*
X109753333Y-98151904D02*
X109753333Y-97542380D01*
X108648572Y-98151904D02*
X109105714Y-98151904D01*
X108877143Y-98151904D02*
X108877143Y-97351904D01*
X108953333Y-97466190D01*
X109029524Y-97542380D01*
X109105714Y-97580476D01*
X107924762Y-97351904D02*
X108305714Y-97351904D01*
X108343810Y-97732857D01*
X108305714Y-97694761D01*
X108229524Y-97656666D01*
X108039048Y-97656666D01*
X107962857Y-97694761D01*
X107924762Y-97732857D01*
X107886667Y-97809047D01*
X107886667Y-97999523D01*
X107924762Y-98075714D01*
X107962857Y-98113809D01*
X108039048Y-98151904D01*
X108229524Y-98151904D01*
X108305714Y-98113809D01*
X108343810Y-98075714D01*
X107658095Y-97351904D02*
X107391429Y-98151904D01*
X107124762Y-97351904D01*
%LPC*%
D11*
%TO.C,RV1*%
X182509000Y-122809000D03*
X180009000Y-125309000D03*
X177509000Y-122809000D03*
%TD*%
D12*
%TO.C,J1*%
X114300000Y-97790000D03*
D13*
X114300000Y-102870000D03*
X114300000Y-107950000D03*
%TD*%
D14*
%TO.C,Q23*%
X168512000Y-93639000D03*
X165972000Y-93639000D03*
D15*
X163432000Y-93639000D03*
%TD*%
D12*
%TO.C,J3*%
X114300000Y-114300000D03*
D13*
X114300000Y-119380000D03*
%TD*%
D16*
%TO.C,H4*%
X109117000Y-125730000D03*
%TD*%
%TO.C,H3*%
X198223000Y-92484000D03*
%TD*%
D15*
%TO.C,Q5*%
X169521000Y-124492500D03*
D14*
X166981000Y-124492500D03*
X164441000Y-124492500D03*
%TD*%
D17*
%TO.C,Q22*%
X164568000Y-99448000D03*
D18*
X165838000Y-99448000D03*
X167108000Y-99448000D03*
%TD*%
D16*
%TO.C,H2*%
X198120000Y-125730000D03*
%TD*%
D17*
%TO.C,Q4*%
X168632000Y-114300000D03*
D18*
X167362000Y-114300000D03*
X166092000Y-114300000D03*
%TD*%
D16*
%TO.C,H1*%
X109220000Y-92484000D03*
%TD*%
D12*
%TO.C,J2*%
X195580000Y-106680000D03*
D13*
X195580000Y-111760000D03*
%TD*%
M02*
