%TF.GenerationSoftware,KiCad,Pcbnew,(6.0.2)*%
%TF.CreationDate,2022-12-26T11:42:45-08:00*%
%TF.ProjectId,discrete_op_amp,64697363-7265-4746-955f-6f705f616d70,rev?*%
%TF.SameCoordinates,Original*%
%TF.FileFunction,Legend,Top*%
%TF.FilePolarity,Positive*%
%FSLAX46Y46*%
G04 Gerber Fmt 4.6, Leading zero omitted, Abs format (unit mm)*
G04 Created by KiCad (PCBNEW (6.0.2)) date 2022-12-26 11:42:45*
%MOMM*%
%LPD*%
G01*
G04 APERTURE LIST*
G04 Aperture macros list*
%AMRoundRect*
0 Rectangle with rounded corners*
0 $1 Rounding radius*
0 $2 $3 $4 $5 $6 $7 $8 $9 X,Y pos of 4 corners*
0 Add a 4 corners polygon primitive as box body*
4,1,4,$2,$3,$4,$5,$6,$7,$8,$9,$2,$3,0*
0 Add four circle primitives for the rounded corners*
1,1,$1+$1,$2,$3*
1,1,$1+$1,$4,$5*
1,1,$1+$1,$6,$7*
1,1,$1+$1,$8,$9*
0 Add four rect primitives between the rounded corners*
20,1,$1+$1,$2,$3,$4,$5,0*
20,1,$1+$1,$4,$5,$6,$7,0*
20,1,$1+$1,$6,$7,$8,$9,0*
20,1,$1+$1,$8,$9,$2,$3,0*%
G04 Aperture macros list end*
%ADD10C,0.100000*%
%ADD11C,0.150000*%
%ADD12C,0.200000*%
%ADD13C,0.120000*%
%ADD14C,2.000000*%
%ADD15R,7.000000X2.400000*%
%ADD16R,3.000000X3.000000*%
%ADD17C,3.000000*%
%ADD18RoundRect,0.150000X-0.587500X-0.150000X0.587500X-0.150000X0.587500X0.150000X-0.587500X0.150000X0*%
%ADD19RoundRect,0.250000X0.450000X-0.262500X0.450000X0.262500X-0.450000X0.262500X-0.450000X-0.262500X0*%
%ADD20RoundRect,0.150000X0.587500X0.150000X-0.587500X0.150000X-0.587500X-0.150000X0.587500X-0.150000X0*%
%ADD21O,1.905000X2.000000*%
%ADD22R,1.905000X2.000000*%
%ADD23RoundRect,0.250000X0.262500X0.450000X-0.262500X0.450000X-0.262500X-0.450000X0.262500X-0.450000X0*%
%ADD24RoundRect,0.250000X-0.450000X0.262500X-0.450000X-0.262500X0.450000X-0.262500X0.450000X0.262500X0*%
%ADD25C,3.800000*%
%ADD26RoundRect,0.250000X-0.475000X0.250000X-0.475000X-0.250000X0.475000X-0.250000X0.475000X0.250000X0*%
%ADD27RoundRect,0.150000X-0.150000X0.587500X-0.150000X-0.587500X0.150000X-0.587500X0.150000X0.587500X0*%
%ADD28RoundRect,0.250000X0.250000X0.475000X-0.250000X0.475000X-0.250000X-0.475000X0.250000X-0.475000X0*%
%ADD29RoundRect,0.150000X0.150000X-0.587500X0.150000X0.587500X-0.150000X0.587500X-0.150000X-0.587500X0*%
%ADD30R,1.050000X1.500000*%
%ADD31O,1.050000X1.500000*%
%ADD32RoundRect,0.250000X-0.250000X-0.475000X0.250000X-0.475000X0.250000X0.475000X-0.250000X0.475000X0*%
%ADD33R,1.500000X1.000000*%
G04 APERTURE END LIST*
D10*
X167259000Y-111252000D02*
X167894000Y-110490000D01*
X170815000Y-112014000D02*
X170942000Y-111506000D01*
X171831000Y-112141000D02*
X172847000Y-111506000D01*
X173863000Y-111887000D02*
X174371000Y-111506000D01*
D11*
X169997428Y-126928571D02*
X170140285Y-126976190D01*
X170187904Y-127023809D01*
X170235523Y-127119047D01*
X170235523Y-127261904D01*
X170187904Y-127357142D01*
X170140285Y-127404761D01*
X170045047Y-127452380D01*
X169664095Y-127452380D01*
X169664095Y-126452380D01*
X169997428Y-126452380D01*
X170092666Y-126500000D01*
X170140285Y-126547619D01*
X170187904Y-126642857D01*
X170187904Y-126738095D01*
X170140285Y-126833333D01*
X170092666Y-126880952D01*
X169997428Y-126928571D01*
X169664095Y-126928571D01*
D12*
X132588095Y-95392857D02*
X134111904Y-95392857D01*
D10*
X195688190Y-103447809D02*
X195802476Y-103485904D01*
X195992952Y-103485904D01*
X196069142Y-103447809D01*
X196107238Y-103409714D01*
X196145333Y-103333523D01*
X196145333Y-103257333D01*
X196107238Y-103181142D01*
X196069142Y-103143047D01*
X195992952Y-103104952D01*
X195840571Y-103066857D01*
X195764380Y-103028761D01*
X195726285Y-102990666D01*
X195688190Y-102914476D01*
X195688190Y-102838285D01*
X195726285Y-102762095D01*
X195764380Y-102724000D01*
X195840571Y-102685904D01*
X196031047Y-102685904D01*
X196145333Y-102724000D01*
X196488190Y-103485904D02*
X196488190Y-102685904D01*
X196792952Y-102685904D01*
X196869142Y-102724000D01*
X196907238Y-102762095D01*
X196945333Y-102838285D01*
X196945333Y-102952571D01*
X196907238Y-103028761D01*
X196869142Y-103066857D01*
X196792952Y-103104952D01*
X196488190Y-103104952D01*
X197288190Y-103485904D02*
X197288190Y-102685904D01*
X197745333Y-103485904D02*
X197402476Y-103028761D01*
X197745333Y-102685904D02*
X197288190Y-103143047D01*
X198545333Y-103485904D02*
X198278666Y-103104952D01*
X198088190Y-103485904D02*
X198088190Y-102685904D01*
X198392952Y-102685904D01*
X198469142Y-102724000D01*
X198507238Y-102762095D01*
X198545333Y-102838285D01*
X198545333Y-102952571D01*
X198507238Y-103028761D01*
X198469142Y-103066857D01*
X198392952Y-103104952D01*
X198088190Y-103104952D01*
X198888190Y-103181142D02*
X199497714Y-103181142D01*
X199192952Y-103485904D02*
X199192952Y-102876380D01*
D12*
X177038095Y-96027857D02*
X178561904Y-96027857D01*
D11*
X163115428Y-91114571D02*
X163258285Y-91162190D01*
X163305904Y-91209809D01*
X163353523Y-91305047D01*
X163353523Y-91447904D01*
X163305904Y-91543142D01*
X163258285Y-91590761D01*
X163163047Y-91638380D01*
X162782095Y-91638380D01*
X162782095Y-90638380D01*
X163115428Y-90638380D01*
X163210666Y-90686000D01*
X163258285Y-90733619D01*
X163305904Y-90828857D01*
X163305904Y-90924095D01*
X163258285Y-91019333D01*
X163210666Y-91066952D01*
X163115428Y-91114571D01*
X162782095Y-91114571D01*
D10*
X108267619Y-113861904D02*
X108534285Y-114661904D01*
X108800952Y-113861904D01*
X109067619Y-114661904D02*
X109067619Y-113861904D01*
X109448571Y-114357142D02*
X110058095Y-114357142D01*
X109753333Y-114661904D02*
X109753333Y-114052380D01*
D11*
X168671714Y-91114571D02*
X169005047Y-91114571D01*
X169147904Y-91638380D02*
X168671714Y-91638380D01*
X168671714Y-90638380D01*
X169147904Y-90638380D01*
X165973285Y-119705380D02*
X165973285Y-118705380D01*
X166354238Y-118705380D01*
X166449476Y-118753000D01*
X166497095Y-118800619D01*
X166544714Y-118895857D01*
X166544714Y-119038714D01*
X166497095Y-119133952D01*
X166449476Y-119181571D01*
X166354238Y-119229190D01*
X165973285Y-119229190D01*
X166973285Y-119705380D02*
X166973285Y-118705380D01*
X167544714Y-119705380D01*
X167544714Y-118705380D01*
X168020904Y-119705380D02*
X168020904Y-118705380D01*
X168401857Y-118705380D01*
X168497095Y-118753000D01*
X168544714Y-118800619D01*
X168592333Y-118895857D01*
X168592333Y-119038714D01*
X168544714Y-119133952D01*
X168497095Y-119181571D01*
X168401857Y-119229190D01*
X168020904Y-119229190D01*
D12*
X123698095Y-95392857D02*
X125221904Y-95392857D01*
X124460000Y-96154761D02*
X124460000Y-94630952D01*
D10*
X108267619Y-118941904D02*
X108534285Y-119741904D01*
X108800952Y-118941904D01*
X109067619Y-119741904D02*
X109067619Y-118941904D01*
X109448571Y-119437142D02*
X110058095Y-119437142D01*
D12*
X185928095Y-96027857D02*
X187451904Y-96027857D01*
X186690000Y-96789761D02*
X186690000Y-95265952D01*
X149098095Y-95392857D02*
X150621904Y-95392857D01*
X177038095Y-109997857D02*
X178561904Y-109997857D01*
X177800000Y-110759761D02*
X177800000Y-109235952D01*
D11*
X163869714Y-126928571D02*
X164203047Y-126928571D01*
X164345904Y-127452380D02*
X163869714Y-127452380D01*
X163869714Y-126452380D01*
X164345904Y-126452380D01*
D10*
X107048476Y-109277142D02*
X107658000Y-109277142D01*
X108458000Y-109581904D02*
X108000857Y-109581904D01*
X108229428Y-109581904D02*
X108229428Y-108781904D01*
X108153238Y-108896190D01*
X108077047Y-108972380D01*
X108000857Y-109010476D01*
X109181809Y-108781904D02*
X108800857Y-108781904D01*
X108762761Y-109162857D01*
X108800857Y-109124761D01*
X108877047Y-109086666D01*
X109067523Y-109086666D01*
X109143714Y-109124761D01*
X109181809Y-109162857D01*
X109219904Y-109239047D01*
X109219904Y-109429523D01*
X109181809Y-109505714D01*
X109143714Y-109543809D01*
X109067523Y-109581904D01*
X108877047Y-109581904D01*
X108800857Y-109543809D01*
X108762761Y-109505714D01*
X109448476Y-108781904D02*
X109715142Y-109581904D01*
X109981809Y-108781904D01*
D11*
X166147523Y-91543142D02*
X166099904Y-91590761D01*
X165957047Y-91638380D01*
X165861809Y-91638380D01*
X165718952Y-91590761D01*
X165623714Y-91495523D01*
X165576095Y-91400285D01*
X165528476Y-91209809D01*
X165528476Y-91066952D01*
X165576095Y-90876476D01*
X165623714Y-90781238D01*
X165718952Y-90686000D01*
X165861809Y-90638380D01*
X165957047Y-90638380D01*
X166099904Y-90686000D01*
X166147523Y-90733619D01*
D10*
X181096285Y-91192333D02*
X181477238Y-91192333D01*
X181020095Y-91420904D02*
X181286761Y-90620904D01*
X181553428Y-91420904D01*
X182162952Y-90887571D02*
X182162952Y-91420904D01*
X181820095Y-90887571D02*
X181820095Y-91306619D01*
X181858190Y-91382809D01*
X181934380Y-91420904D01*
X182048666Y-91420904D01*
X182124857Y-91382809D01*
X182162952Y-91344714D01*
X182886761Y-91420904D02*
X182886761Y-90620904D01*
X182886761Y-91382809D02*
X182810571Y-91420904D01*
X182658190Y-91420904D01*
X182582000Y-91382809D01*
X182543904Y-91344714D01*
X182505809Y-91268523D01*
X182505809Y-91039952D01*
X182543904Y-90963761D01*
X182582000Y-90925666D01*
X182658190Y-90887571D01*
X182810571Y-90887571D01*
X182886761Y-90925666D01*
X183267714Y-91420904D02*
X183267714Y-90887571D01*
X183267714Y-90620904D02*
X183229619Y-90659000D01*
X183267714Y-90697095D01*
X183305809Y-90659000D01*
X183267714Y-90620904D01*
X183267714Y-90697095D01*
X183762952Y-91420904D02*
X183686761Y-91382809D01*
X183648666Y-91344714D01*
X183610571Y-91268523D01*
X183610571Y-91039952D01*
X183648666Y-90963761D01*
X183686761Y-90925666D01*
X183762952Y-90887571D01*
X183877238Y-90887571D01*
X183953428Y-90925666D01*
X183991523Y-90963761D01*
X184029619Y-91039952D01*
X184029619Y-91268523D01*
X183991523Y-91344714D01*
X183953428Y-91382809D01*
X183877238Y-91420904D01*
X183762952Y-91420904D01*
X184982000Y-91420904D02*
X184982000Y-90620904D01*
X185286761Y-90620904D01*
X185362952Y-90659000D01*
X185401047Y-90697095D01*
X185439142Y-90773285D01*
X185439142Y-90887571D01*
X185401047Y-90963761D01*
X185362952Y-91001857D01*
X185286761Y-91039952D01*
X184982000Y-91039952D01*
X185896285Y-91420904D02*
X185820095Y-91382809D01*
X185782000Y-91344714D01*
X185743904Y-91268523D01*
X185743904Y-91039952D01*
X185782000Y-90963761D01*
X185820095Y-90925666D01*
X185896285Y-90887571D01*
X186010571Y-90887571D01*
X186086761Y-90925666D01*
X186124857Y-90963761D01*
X186162952Y-91039952D01*
X186162952Y-91268523D01*
X186124857Y-91344714D01*
X186086761Y-91382809D01*
X186010571Y-91420904D01*
X185896285Y-91420904D01*
X186429619Y-90887571D02*
X186582000Y-91420904D01*
X186734380Y-91039952D01*
X186886761Y-91420904D01*
X187039142Y-90887571D01*
X187648666Y-91382809D02*
X187572476Y-91420904D01*
X187420095Y-91420904D01*
X187343904Y-91382809D01*
X187305809Y-91306619D01*
X187305809Y-91001857D01*
X187343904Y-90925666D01*
X187420095Y-90887571D01*
X187572476Y-90887571D01*
X187648666Y-90925666D01*
X187686761Y-91001857D01*
X187686761Y-91078047D01*
X187305809Y-91154238D01*
X188029619Y-91420904D02*
X188029619Y-90887571D01*
X188029619Y-91039952D02*
X188067714Y-90963761D01*
X188105809Y-90925666D01*
X188182000Y-90887571D01*
X188258190Y-90887571D01*
X189096285Y-91192333D02*
X189477238Y-91192333D01*
X189020095Y-91420904D02*
X189286761Y-90620904D01*
X189553428Y-91420904D01*
X189820095Y-91420904D02*
X189820095Y-90887571D01*
X189820095Y-90963761D02*
X189858190Y-90925666D01*
X189934380Y-90887571D01*
X190048666Y-90887571D01*
X190124857Y-90925666D01*
X190162952Y-91001857D01*
X190162952Y-91420904D01*
X190162952Y-91001857D02*
X190201047Y-90925666D01*
X190277238Y-90887571D01*
X190391523Y-90887571D01*
X190467714Y-90925666D01*
X190505809Y-91001857D01*
X190505809Y-91420904D01*
X190886761Y-90887571D02*
X190886761Y-91687571D01*
X190886761Y-90925666D02*
X190962952Y-90887571D01*
X191115333Y-90887571D01*
X191191523Y-90925666D01*
X191229619Y-90963761D01*
X191267714Y-91039952D01*
X191267714Y-91268523D01*
X191229619Y-91344714D01*
X191191523Y-91382809D01*
X191115333Y-91420904D01*
X190962952Y-91420904D01*
X190886761Y-91382809D01*
D12*
X185928095Y-109997857D02*
X187451904Y-109997857D01*
D10*
X195688190Y-115766809D02*
X195802476Y-115804904D01*
X195992952Y-115804904D01*
X196069142Y-115766809D01*
X196107238Y-115728714D01*
X196145333Y-115652523D01*
X196145333Y-115576333D01*
X196107238Y-115500142D01*
X196069142Y-115462047D01*
X195992952Y-115423952D01*
X195840571Y-115385857D01*
X195764380Y-115347761D01*
X195726285Y-115309666D01*
X195688190Y-115233476D01*
X195688190Y-115157285D01*
X195726285Y-115081095D01*
X195764380Y-115043000D01*
X195840571Y-115004904D01*
X196031047Y-115004904D01*
X196145333Y-115043000D01*
X196488190Y-115804904D02*
X196488190Y-115004904D01*
X196792952Y-115004904D01*
X196869142Y-115043000D01*
X196907238Y-115081095D01*
X196945333Y-115157285D01*
X196945333Y-115271571D01*
X196907238Y-115347761D01*
X196869142Y-115385857D01*
X196792952Y-115423952D01*
X196488190Y-115423952D01*
X197288190Y-115804904D02*
X197288190Y-115004904D01*
X197745333Y-115804904D02*
X197402476Y-115347761D01*
X197745333Y-115004904D02*
X197288190Y-115462047D01*
X198545333Y-115804904D02*
X198278666Y-115423952D01*
X198088190Y-115804904D02*
X198088190Y-115004904D01*
X198392952Y-115004904D01*
X198469142Y-115043000D01*
X198507238Y-115081095D01*
X198545333Y-115157285D01*
X198545333Y-115271571D01*
X198507238Y-115347761D01*
X198469142Y-115385857D01*
X198392952Y-115423952D01*
X198088190Y-115423952D01*
X198888190Y-115500142D02*
X199497714Y-115500142D01*
D11*
X167441523Y-127357142D02*
X167393904Y-127404761D01*
X167251047Y-127452380D01*
X167155809Y-127452380D01*
X167012952Y-127404761D01*
X166917714Y-127309523D01*
X166870095Y-127214285D01*
X166822476Y-127023809D01*
X166822476Y-126880952D01*
X166870095Y-126690476D01*
X166917714Y-126595238D01*
X167012952Y-126500000D01*
X167155809Y-126452380D01*
X167251047Y-126452380D01*
X167393904Y-126500000D01*
X167441523Y-126547619D01*
X164679476Y-96464380D02*
X164679476Y-95464380D01*
X165250904Y-96464380D01*
X165250904Y-95464380D01*
X165727095Y-96464380D02*
X165727095Y-95464380D01*
X166108047Y-95464380D01*
X166203285Y-95512000D01*
X166250904Y-95559619D01*
X166298523Y-95654857D01*
X166298523Y-95797714D01*
X166250904Y-95892952D01*
X166203285Y-95940571D01*
X166108047Y-95988190D01*
X165727095Y-95988190D01*
X166727095Y-96464380D02*
X166727095Y-95464380D01*
X167298523Y-96464380D01*
X167298523Y-95464380D01*
D10*
X108077047Y-102431904D02*
X108153238Y-102431904D01*
X108229428Y-102470000D01*
X108267523Y-102508095D01*
X108305619Y-102584285D01*
X108343714Y-102736666D01*
X108343714Y-102927142D01*
X108305619Y-103079523D01*
X108267523Y-103155714D01*
X108229428Y-103193809D01*
X108153238Y-103231904D01*
X108077047Y-103231904D01*
X108000857Y-103193809D01*
X107962761Y-103155714D01*
X107924666Y-103079523D01*
X107886571Y-102927142D01*
X107886571Y-102736666D01*
X107924666Y-102584285D01*
X107962761Y-102508095D01*
X108000857Y-102470000D01*
X108077047Y-102431904D01*
X108572285Y-102431904D02*
X108838952Y-103231904D01*
X109105619Y-102431904D01*
X107048476Y-97847142D02*
X107658000Y-97847142D01*
X107353238Y-98151904D02*
X107353238Y-97542380D01*
X108458000Y-98151904D02*
X108000857Y-98151904D01*
X108229428Y-98151904D02*
X108229428Y-97351904D01*
X108153238Y-97466190D01*
X108077047Y-97542380D01*
X108000857Y-97580476D01*
X109181809Y-97351904D02*
X108800857Y-97351904D01*
X108762761Y-97732857D01*
X108800857Y-97694761D01*
X108877047Y-97656666D01*
X109067523Y-97656666D01*
X109143714Y-97694761D01*
X109181809Y-97732857D01*
X109219904Y-97809047D01*
X109219904Y-97999523D01*
X109181809Y-98075714D01*
X109143714Y-98113809D01*
X109067523Y-98151904D01*
X108877047Y-98151904D01*
X108800857Y-98113809D01*
X108762761Y-98075714D01*
X109448476Y-97351904D02*
X109715142Y-98151904D01*
X109981809Y-97351904D01*
D12*
X140208095Y-95392857D02*
X141731904Y-95392857D01*
X140970000Y-96154761D02*
X140970000Y-94630952D01*
D11*
%TO.C,RV1*%
X185332761Y-125928380D02*
X184999428Y-125452190D01*
X184761333Y-125928380D02*
X184761333Y-124928380D01*
X185142285Y-124928380D01*
X185237523Y-124976000D01*
X185285142Y-125023619D01*
X185332761Y-125118857D01*
X185332761Y-125261714D01*
X185285142Y-125356952D01*
X185237523Y-125404571D01*
X185142285Y-125452190D01*
X184761333Y-125452190D01*
X185618476Y-124928380D02*
X185951809Y-125928380D01*
X186285142Y-124928380D01*
X187142285Y-125928380D02*
X186570857Y-125928380D01*
X186856571Y-125928380D02*
X186856571Y-124928380D01*
X186761333Y-125071238D01*
X186666095Y-125166476D01*
X186570857Y-125214095D01*
%TO.C,C8*%
X190079333Y-96524142D02*
X190031714Y-96571761D01*
X189888857Y-96619380D01*
X189793619Y-96619380D01*
X189650761Y-96571761D01*
X189555523Y-96476523D01*
X189507904Y-96381285D01*
X189460285Y-96190809D01*
X189460285Y-96047952D01*
X189507904Y-95857476D01*
X189555523Y-95762238D01*
X189650761Y-95667000D01*
X189793619Y-95619380D01*
X189888857Y-95619380D01*
X190031714Y-95667000D01*
X190079333Y-95714619D01*
X190650761Y-96047952D02*
X190555523Y-96000333D01*
X190507904Y-95952714D01*
X190460285Y-95857476D01*
X190460285Y-95809857D01*
X190507904Y-95714619D01*
X190555523Y-95667000D01*
X190650761Y-95619380D01*
X190841238Y-95619380D01*
X190936476Y-95667000D01*
X190984095Y-95714619D01*
X191031714Y-95809857D01*
X191031714Y-95857476D01*
X190984095Y-95952714D01*
X190936476Y-96000333D01*
X190841238Y-96047952D01*
X190650761Y-96047952D01*
X190555523Y-96095571D01*
X190507904Y-96143190D01*
X190460285Y-96238428D01*
X190460285Y-96428904D01*
X190507904Y-96524142D01*
X190555523Y-96571761D01*
X190650761Y-96619380D01*
X190841238Y-96619380D01*
X190936476Y-96571761D01*
X190984095Y-96524142D01*
X191031714Y-96428904D01*
X191031714Y-96238428D01*
X190984095Y-96143190D01*
X190936476Y-96095571D01*
X190841238Y-96047952D01*
D10*
%TO.C,Q13*%
X130098857Y-109150095D02*
X130022666Y-109112000D01*
X129946476Y-109035809D01*
X129832190Y-108921523D01*
X129756000Y-108883428D01*
X129679809Y-108883428D01*
X129717904Y-109073904D02*
X129641714Y-109035809D01*
X129565523Y-108959619D01*
X129527428Y-108807238D01*
X129527428Y-108540571D01*
X129565523Y-108388190D01*
X129641714Y-108312000D01*
X129717904Y-108273904D01*
X129870285Y-108273904D01*
X129946476Y-108312000D01*
X130022666Y-108388190D01*
X130060761Y-108540571D01*
X130060761Y-108807238D01*
X130022666Y-108959619D01*
X129946476Y-109035809D01*
X129870285Y-109073904D01*
X129717904Y-109073904D01*
X130822666Y-109073904D02*
X130365523Y-109073904D01*
X130594095Y-109073904D02*
X130594095Y-108273904D01*
X130517904Y-108388190D01*
X130441714Y-108464380D01*
X130365523Y-108502476D01*
X131089333Y-108273904D02*
X131584571Y-108273904D01*
X131317904Y-108578666D01*
X131432190Y-108578666D01*
X131508380Y-108616761D01*
X131546476Y-108654857D01*
X131584571Y-108731047D01*
X131584571Y-108921523D01*
X131546476Y-108997714D01*
X131508380Y-109035809D01*
X131432190Y-109073904D01*
X131203619Y-109073904D01*
X131127428Y-109035809D01*
X131089333Y-108997714D01*
%TO.C,R18*%
X160013714Y-117709904D02*
X159747047Y-117328952D01*
X159556571Y-117709904D02*
X159556571Y-116909904D01*
X159861333Y-116909904D01*
X159937523Y-116948000D01*
X159975619Y-116986095D01*
X160013714Y-117062285D01*
X160013714Y-117176571D01*
X159975619Y-117252761D01*
X159937523Y-117290857D01*
X159861333Y-117328952D01*
X159556571Y-117328952D01*
X160775619Y-117709904D02*
X160318476Y-117709904D01*
X160547047Y-117709904D02*
X160547047Y-116909904D01*
X160470857Y-117024190D01*
X160394666Y-117100380D01*
X160318476Y-117138476D01*
X161232761Y-117252761D02*
X161156571Y-117214666D01*
X161118476Y-117176571D01*
X161080380Y-117100380D01*
X161080380Y-117062285D01*
X161118476Y-116986095D01*
X161156571Y-116948000D01*
X161232761Y-116909904D01*
X161385142Y-116909904D01*
X161461333Y-116948000D01*
X161499428Y-116986095D01*
X161537523Y-117062285D01*
X161537523Y-117100380D01*
X161499428Y-117176571D01*
X161461333Y-117214666D01*
X161385142Y-117252761D01*
X161232761Y-117252761D01*
X161156571Y-117290857D01*
X161118476Y-117328952D01*
X161080380Y-117405142D01*
X161080380Y-117557523D01*
X161118476Y-117633714D01*
X161156571Y-117671809D01*
X161232761Y-117709904D01*
X161385142Y-117709904D01*
X161461333Y-117671809D01*
X161499428Y-117633714D01*
X161537523Y-117557523D01*
X161537523Y-117405142D01*
X161499428Y-117328952D01*
X161461333Y-117290857D01*
X161385142Y-117252761D01*
%TO.C,Q10*%
X140361857Y-106003095D02*
X140285666Y-105965000D01*
X140209476Y-105888809D01*
X140095190Y-105774523D01*
X140019000Y-105736428D01*
X139942809Y-105736428D01*
X139980904Y-105926904D02*
X139904714Y-105888809D01*
X139828523Y-105812619D01*
X139790428Y-105660238D01*
X139790428Y-105393571D01*
X139828523Y-105241190D01*
X139904714Y-105165000D01*
X139980904Y-105126904D01*
X140133285Y-105126904D01*
X140209476Y-105165000D01*
X140285666Y-105241190D01*
X140323761Y-105393571D01*
X140323761Y-105660238D01*
X140285666Y-105812619D01*
X140209476Y-105888809D01*
X140133285Y-105926904D01*
X139980904Y-105926904D01*
X141085666Y-105926904D02*
X140628523Y-105926904D01*
X140857095Y-105926904D02*
X140857095Y-105126904D01*
X140780904Y-105241190D01*
X140704714Y-105317380D01*
X140628523Y-105355476D01*
X141580904Y-105126904D02*
X141657095Y-105126904D01*
X141733285Y-105165000D01*
X141771380Y-105203095D01*
X141809476Y-105279285D01*
X141847571Y-105431666D01*
X141847571Y-105622142D01*
X141809476Y-105774523D01*
X141771380Y-105850714D01*
X141733285Y-105888809D01*
X141657095Y-105926904D01*
X141580904Y-105926904D01*
X141504714Y-105888809D01*
X141466619Y-105850714D01*
X141428523Y-105774523D01*
X141390428Y-105622142D01*
X141390428Y-105431666D01*
X141428523Y-105279285D01*
X141466619Y-105203095D01*
X141504714Y-105165000D01*
X141580904Y-105126904D01*
%TO.C,Q2*%
X128677809Y-107908095D02*
X128601619Y-107870000D01*
X128525428Y-107793809D01*
X128411142Y-107679523D01*
X128334952Y-107641428D01*
X128258761Y-107641428D01*
X128296857Y-107831904D02*
X128220666Y-107793809D01*
X128144476Y-107717619D01*
X128106380Y-107565238D01*
X128106380Y-107298571D01*
X128144476Y-107146190D01*
X128220666Y-107070000D01*
X128296857Y-107031904D01*
X128449238Y-107031904D01*
X128525428Y-107070000D01*
X128601619Y-107146190D01*
X128639714Y-107298571D01*
X128639714Y-107565238D01*
X128601619Y-107717619D01*
X128525428Y-107793809D01*
X128449238Y-107831904D01*
X128296857Y-107831904D01*
X128944476Y-107108095D02*
X128982571Y-107070000D01*
X129058761Y-107031904D01*
X129249238Y-107031904D01*
X129325428Y-107070000D01*
X129363523Y-107108095D01*
X129401619Y-107184285D01*
X129401619Y-107260476D01*
X129363523Y-107374761D01*
X128906380Y-107831904D01*
X129401619Y-107831904D01*
D11*
%TO.C,Q23*%
X172251571Y-93003619D02*
X172156333Y-92956000D01*
X172061095Y-92860761D01*
X171918238Y-92717904D01*
X171823000Y-92670285D01*
X171727761Y-92670285D01*
X171775380Y-92908380D02*
X171680142Y-92860761D01*
X171584904Y-92765523D01*
X171537285Y-92575047D01*
X171537285Y-92241714D01*
X171584904Y-92051238D01*
X171680142Y-91956000D01*
X171775380Y-91908380D01*
X171965857Y-91908380D01*
X172061095Y-91956000D01*
X172156333Y-92051238D01*
X172203952Y-92241714D01*
X172203952Y-92575047D01*
X172156333Y-92765523D01*
X172061095Y-92860761D01*
X171965857Y-92908380D01*
X171775380Y-92908380D01*
X172584904Y-92003619D02*
X172632523Y-91956000D01*
X172727761Y-91908380D01*
X172965857Y-91908380D01*
X173061095Y-91956000D01*
X173108714Y-92003619D01*
X173156333Y-92098857D01*
X173156333Y-92194095D01*
X173108714Y-92336952D01*
X172537285Y-92908380D01*
X173156333Y-92908380D01*
X173489666Y-91908380D02*
X174108714Y-91908380D01*
X173775380Y-92289333D01*
X173918238Y-92289333D01*
X174013476Y-92336952D01*
X174061095Y-92384571D01*
X174108714Y-92479809D01*
X174108714Y-92717904D01*
X174061095Y-92813142D01*
X174013476Y-92860761D01*
X173918238Y-92908380D01*
X173632523Y-92908380D01*
X173537285Y-92860761D01*
X173489666Y-92813142D01*
D10*
%TO.C,R1*%
X144876666Y-106434904D02*
X144610000Y-106053952D01*
X144419523Y-106434904D02*
X144419523Y-105634904D01*
X144724285Y-105634904D01*
X144800476Y-105673000D01*
X144838571Y-105711095D01*
X144876666Y-105787285D01*
X144876666Y-105901571D01*
X144838571Y-105977761D01*
X144800476Y-106015857D01*
X144724285Y-106053952D01*
X144419523Y-106053952D01*
X145638571Y-106434904D02*
X145181428Y-106434904D01*
X145410000Y-106434904D02*
X145410000Y-105634904D01*
X145333809Y-105749190D01*
X145257619Y-105825380D01*
X145181428Y-105863476D01*
%TO.C,Q3*%
X136297809Y-105749095D02*
X136221619Y-105711000D01*
X136145428Y-105634809D01*
X136031142Y-105520523D01*
X135954952Y-105482428D01*
X135878761Y-105482428D01*
X135916857Y-105672904D02*
X135840666Y-105634809D01*
X135764476Y-105558619D01*
X135726380Y-105406238D01*
X135726380Y-105139571D01*
X135764476Y-104987190D01*
X135840666Y-104911000D01*
X135916857Y-104872904D01*
X136069238Y-104872904D01*
X136145428Y-104911000D01*
X136221619Y-104987190D01*
X136259714Y-105139571D01*
X136259714Y-105406238D01*
X136221619Y-105558619D01*
X136145428Y-105634809D01*
X136069238Y-105672904D01*
X135916857Y-105672904D01*
X136526380Y-104872904D02*
X137021619Y-104872904D01*
X136754952Y-105177666D01*
X136869238Y-105177666D01*
X136945428Y-105215761D01*
X136983523Y-105253857D01*
X137021619Y-105330047D01*
X137021619Y-105520523D01*
X136983523Y-105596714D01*
X136945428Y-105634809D01*
X136869238Y-105672904D01*
X136640666Y-105672904D01*
X136564476Y-105634809D01*
X136526380Y-105596714D01*
%TO.C,R20*%
X172840714Y-121138904D02*
X172574047Y-120757952D01*
X172383571Y-121138904D02*
X172383571Y-120338904D01*
X172688333Y-120338904D01*
X172764523Y-120377000D01*
X172802619Y-120415095D01*
X172840714Y-120491285D01*
X172840714Y-120605571D01*
X172802619Y-120681761D01*
X172764523Y-120719857D01*
X172688333Y-120757952D01*
X172383571Y-120757952D01*
X173145476Y-120415095D02*
X173183571Y-120377000D01*
X173259761Y-120338904D01*
X173450238Y-120338904D01*
X173526428Y-120377000D01*
X173564523Y-120415095D01*
X173602619Y-120491285D01*
X173602619Y-120567476D01*
X173564523Y-120681761D01*
X173107380Y-121138904D01*
X173602619Y-121138904D01*
X174097857Y-120338904D02*
X174174047Y-120338904D01*
X174250238Y-120377000D01*
X174288333Y-120415095D01*
X174326428Y-120491285D01*
X174364523Y-120643666D01*
X174364523Y-120834142D01*
X174326428Y-120986523D01*
X174288333Y-121062714D01*
X174250238Y-121100809D01*
X174174047Y-121138904D01*
X174097857Y-121138904D01*
X174021666Y-121100809D01*
X173983571Y-121062714D01*
X173945476Y-120986523D01*
X173907380Y-120834142D01*
X173907380Y-120643666D01*
X173945476Y-120491285D01*
X173983571Y-120415095D01*
X174021666Y-120377000D01*
X174097857Y-120338904D01*
%TO.C,R11*%
X174237714Y-103485904D02*
X173971047Y-103104952D01*
X173780571Y-103485904D02*
X173780571Y-102685904D01*
X174085333Y-102685904D01*
X174161523Y-102724000D01*
X174199619Y-102762095D01*
X174237714Y-102838285D01*
X174237714Y-102952571D01*
X174199619Y-103028761D01*
X174161523Y-103066857D01*
X174085333Y-103104952D01*
X173780571Y-103104952D01*
X174999619Y-103485904D02*
X174542476Y-103485904D01*
X174771047Y-103485904D02*
X174771047Y-102685904D01*
X174694857Y-102800190D01*
X174618666Y-102876380D01*
X174542476Y-102914476D01*
X175761523Y-103485904D02*
X175304380Y-103485904D01*
X175532952Y-103485904D02*
X175532952Y-102685904D01*
X175456761Y-102800190D01*
X175380571Y-102876380D01*
X175304380Y-102914476D01*
%TO.C,Q14*%
X134035857Y-109150095D02*
X133959666Y-109112000D01*
X133883476Y-109035809D01*
X133769190Y-108921523D01*
X133693000Y-108883428D01*
X133616809Y-108883428D01*
X133654904Y-109073904D02*
X133578714Y-109035809D01*
X133502523Y-108959619D01*
X133464428Y-108807238D01*
X133464428Y-108540571D01*
X133502523Y-108388190D01*
X133578714Y-108312000D01*
X133654904Y-108273904D01*
X133807285Y-108273904D01*
X133883476Y-108312000D01*
X133959666Y-108388190D01*
X133997761Y-108540571D01*
X133997761Y-108807238D01*
X133959666Y-108959619D01*
X133883476Y-109035809D01*
X133807285Y-109073904D01*
X133654904Y-109073904D01*
X134759666Y-109073904D02*
X134302523Y-109073904D01*
X134531095Y-109073904D02*
X134531095Y-108273904D01*
X134454904Y-108388190D01*
X134378714Y-108464380D01*
X134302523Y-108502476D01*
X135445380Y-108540571D02*
X135445380Y-109073904D01*
X135254904Y-108235809D02*
X135064428Y-108807238D01*
X135559666Y-108807238D01*
%TO.C,R13*%
X135247314Y-113899904D02*
X134980647Y-113518952D01*
X134790171Y-113899904D02*
X134790171Y-113099904D01*
X135094933Y-113099904D01*
X135171123Y-113138000D01*
X135209219Y-113176095D01*
X135247314Y-113252285D01*
X135247314Y-113366571D01*
X135209219Y-113442761D01*
X135171123Y-113480857D01*
X135094933Y-113518952D01*
X134790171Y-113518952D01*
X136009219Y-113899904D02*
X135552076Y-113899904D01*
X135780647Y-113899904D02*
X135780647Y-113099904D01*
X135704457Y-113214190D01*
X135628266Y-113290380D01*
X135552076Y-113328476D01*
X136275885Y-113099904D02*
X136771123Y-113099904D01*
X136504457Y-113404666D01*
X136618742Y-113404666D01*
X136694933Y-113442761D01*
X136733028Y-113480857D01*
X136771123Y-113557047D01*
X136771123Y-113747523D01*
X136733028Y-113823714D01*
X136694933Y-113861809D01*
X136618742Y-113899904D01*
X136390171Y-113899904D01*
X136313980Y-113861809D01*
X136275885Y-113823714D01*
%TO.C,C2*%
X124556666Y-107755714D02*
X124518571Y-107793809D01*
X124404285Y-107831904D01*
X124328095Y-107831904D01*
X124213809Y-107793809D01*
X124137619Y-107717619D01*
X124099523Y-107641428D01*
X124061428Y-107489047D01*
X124061428Y-107374761D01*
X124099523Y-107222380D01*
X124137619Y-107146190D01*
X124213809Y-107070000D01*
X124328095Y-107031904D01*
X124404285Y-107031904D01*
X124518571Y-107070000D01*
X124556666Y-107108095D01*
X124861428Y-107108095D02*
X124899523Y-107070000D01*
X124975714Y-107031904D01*
X125166190Y-107031904D01*
X125242380Y-107070000D01*
X125280476Y-107108095D01*
X125318571Y-107184285D01*
X125318571Y-107260476D01*
X125280476Y-107374761D01*
X124823333Y-107831904D01*
X125318571Y-107831904D01*
D11*
%TO.C,C4*%
X153860333Y-93730142D02*
X153812714Y-93777761D01*
X153669857Y-93825380D01*
X153574619Y-93825380D01*
X153431761Y-93777761D01*
X153336523Y-93682523D01*
X153288904Y-93587285D01*
X153241285Y-93396809D01*
X153241285Y-93253952D01*
X153288904Y-93063476D01*
X153336523Y-92968238D01*
X153431761Y-92873000D01*
X153574619Y-92825380D01*
X153669857Y-92825380D01*
X153812714Y-92873000D01*
X153860333Y-92920619D01*
X154717476Y-93158714D02*
X154717476Y-93825380D01*
X154479380Y-92777761D02*
X154241285Y-93492047D01*
X154860333Y-93492047D01*
D10*
%TO.C,Q12*%
X151966857Y-115345095D02*
X151890666Y-115307000D01*
X151814476Y-115230809D01*
X151700190Y-115116523D01*
X151624000Y-115078428D01*
X151547809Y-115078428D01*
X151585904Y-115268904D02*
X151509714Y-115230809D01*
X151433523Y-115154619D01*
X151395428Y-115002238D01*
X151395428Y-114735571D01*
X151433523Y-114583190D01*
X151509714Y-114507000D01*
X151585904Y-114468904D01*
X151738285Y-114468904D01*
X151814476Y-114507000D01*
X151890666Y-114583190D01*
X151928761Y-114735571D01*
X151928761Y-115002238D01*
X151890666Y-115154619D01*
X151814476Y-115230809D01*
X151738285Y-115268904D01*
X151585904Y-115268904D01*
X152690666Y-115268904D02*
X152233523Y-115268904D01*
X152462095Y-115268904D02*
X152462095Y-114468904D01*
X152385904Y-114583190D01*
X152309714Y-114659380D01*
X152233523Y-114697476D01*
X152995428Y-114545095D02*
X153033523Y-114507000D01*
X153109714Y-114468904D01*
X153300190Y-114468904D01*
X153376380Y-114507000D01*
X153414476Y-114545095D01*
X153452571Y-114621285D01*
X153452571Y-114697476D01*
X153414476Y-114811761D01*
X152957333Y-115268904D01*
X153452571Y-115268904D01*
%TO.C,C3*%
X120873666Y-104707714D02*
X120835571Y-104745809D01*
X120721285Y-104783904D01*
X120645095Y-104783904D01*
X120530809Y-104745809D01*
X120454619Y-104669619D01*
X120416523Y-104593428D01*
X120378428Y-104441047D01*
X120378428Y-104326761D01*
X120416523Y-104174380D01*
X120454619Y-104098190D01*
X120530809Y-104022000D01*
X120645095Y-103983904D01*
X120721285Y-103983904D01*
X120835571Y-104022000D01*
X120873666Y-104060095D01*
X121140333Y-103983904D02*
X121635571Y-103983904D01*
X121368904Y-104288666D01*
X121483190Y-104288666D01*
X121559380Y-104326761D01*
X121597476Y-104364857D01*
X121635571Y-104441047D01*
X121635571Y-104631523D01*
X121597476Y-104707714D01*
X121559380Y-104745809D01*
X121483190Y-104783904D01*
X121254619Y-104783904D01*
X121178428Y-104745809D01*
X121140333Y-104707714D01*
%TO.C,R6*%
X169919666Y-112502904D02*
X169653000Y-112121952D01*
X169462523Y-112502904D02*
X169462523Y-111702904D01*
X169767285Y-111702904D01*
X169843476Y-111741000D01*
X169881571Y-111779095D01*
X169919666Y-111855285D01*
X169919666Y-111969571D01*
X169881571Y-112045761D01*
X169843476Y-112083857D01*
X169767285Y-112121952D01*
X169462523Y-112121952D01*
X170605380Y-111702904D02*
X170453000Y-111702904D01*
X170376809Y-111741000D01*
X170338714Y-111779095D01*
X170262523Y-111893380D01*
X170224428Y-112045761D01*
X170224428Y-112350523D01*
X170262523Y-112426714D01*
X170300619Y-112464809D01*
X170376809Y-112502904D01*
X170529190Y-112502904D01*
X170605380Y-112464809D01*
X170643476Y-112426714D01*
X170681571Y-112350523D01*
X170681571Y-112160047D01*
X170643476Y-112083857D01*
X170605380Y-112045761D01*
X170529190Y-112007666D01*
X170376809Y-112007666D01*
X170300619Y-112045761D01*
X170262523Y-112083857D01*
X170224428Y-112160047D01*
D11*
%TO.C,C7*%
X190079333Y-116816142D02*
X190031714Y-116863761D01*
X189888857Y-116911380D01*
X189793619Y-116911380D01*
X189650761Y-116863761D01*
X189555523Y-116768523D01*
X189507904Y-116673285D01*
X189460285Y-116482809D01*
X189460285Y-116339952D01*
X189507904Y-116149476D01*
X189555523Y-116054238D01*
X189650761Y-115959000D01*
X189793619Y-115911380D01*
X189888857Y-115911380D01*
X190031714Y-115959000D01*
X190079333Y-116006619D01*
X190412666Y-115911380D02*
X191079333Y-115911380D01*
X190650761Y-116911380D01*
D10*
%TO.C,Q8*%
X124486809Y-109432095D02*
X124410619Y-109394000D01*
X124334428Y-109317809D01*
X124220142Y-109203523D01*
X124143952Y-109165428D01*
X124067761Y-109165428D01*
X124105857Y-109355904D02*
X124029666Y-109317809D01*
X123953476Y-109241619D01*
X123915380Y-109089238D01*
X123915380Y-108822571D01*
X123953476Y-108670190D01*
X124029666Y-108594000D01*
X124105857Y-108555904D01*
X124258238Y-108555904D01*
X124334428Y-108594000D01*
X124410619Y-108670190D01*
X124448714Y-108822571D01*
X124448714Y-109089238D01*
X124410619Y-109241619D01*
X124334428Y-109317809D01*
X124258238Y-109355904D01*
X124105857Y-109355904D01*
X124905857Y-108898761D02*
X124829666Y-108860666D01*
X124791571Y-108822571D01*
X124753476Y-108746380D01*
X124753476Y-108708285D01*
X124791571Y-108632095D01*
X124829666Y-108594000D01*
X124905857Y-108555904D01*
X125058238Y-108555904D01*
X125134428Y-108594000D01*
X125172523Y-108632095D01*
X125210619Y-108708285D01*
X125210619Y-108746380D01*
X125172523Y-108822571D01*
X125134428Y-108860666D01*
X125058238Y-108898761D01*
X124905857Y-108898761D01*
X124829666Y-108936857D01*
X124791571Y-108974952D01*
X124753476Y-109051142D01*
X124753476Y-109203523D01*
X124791571Y-109279714D01*
X124829666Y-109317809D01*
X124905857Y-109355904D01*
X125058238Y-109355904D01*
X125134428Y-109317809D01*
X125172523Y-109279714D01*
X125210619Y-109203523D01*
X125210619Y-109051142D01*
X125172523Y-108974952D01*
X125134428Y-108936857D01*
X125058238Y-108898761D01*
%TO.C,Q1*%
X124105809Y-105749095D02*
X124029619Y-105711000D01*
X123953428Y-105634809D01*
X123839142Y-105520523D01*
X123762952Y-105482428D01*
X123686761Y-105482428D01*
X123724857Y-105672904D02*
X123648666Y-105634809D01*
X123572476Y-105558619D01*
X123534380Y-105406238D01*
X123534380Y-105139571D01*
X123572476Y-104987190D01*
X123648666Y-104911000D01*
X123724857Y-104872904D01*
X123877238Y-104872904D01*
X123953428Y-104911000D01*
X124029619Y-104987190D01*
X124067714Y-105139571D01*
X124067714Y-105406238D01*
X124029619Y-105558619D01*
X123953428Y-105634809D01*
X123877238Y-105672904D01*
X123724857Y-105672904D01*
X124829619Y-105672904D02*
X124372476Y-105672904D01*
X124601047Y-105672904D02*
X124601047Y-104872904D01*
X124524857Y-104987190D01*
X124448666Y-105063380D01*
X124372476Y-105101476D01*
%TO.C,R14*%
X137915714Y-122027904D02*
X137649047Y-121646952D01*
X137458571Y-122027904D02*
X137458571Y-121227904D01*
X137763333Y-121227904D01*
X137839523Y-121266000D01*
X137877619Y-121304095D01*
X137915714Y-121380285D01*
X137915714Y-121494571D01*
X137877619Y-121570761D01*
X137839523Y-121608857D01*
X137763333Y-121646952D01*
X137458571Y-121646952D01*
X138677619Y-122027904D02*
X138220476Y-122027904D01*
X138449047Y-122027904D02*
X138449047Y-121227904D01*
X138372857Y-121342190D01*
X138296666Y-121418380D01*
X138220476Y-121456476D01*
X139363333Y-121494571D02*
X139363333Y-122027904D01*
X139172857Y-121189809D02*
X138982380Y-121761238D01*
X139477619Y-121761238D01*
%TO.C,R17*%
X135272714Y-121519904D02*
X135006047Y-121138952D01*
X134815571Y-121519904D02*
X134815571Y-120719904D01*
X135120333Y-120719904D01*
X135196523Y-120758000D01*
X135234619Y-120796095D01*
X135272714Y-120872285D01*
X135272714Y-120986571D01*
X135234619Y-121062761D01*
X135196523Y-121100857D01*
X135120333Y-121138952D01*
X134815571Y-121138952D01*
X136034619Y-121519904D02*
X135577476Y-121519904D01*
X135806047Y-121519904D02*
X135806047Y-120719904D01*
X135729857Y-120834190D01*
X135653666Y-120910380D01*
X135577476Y-120948476D01*
X136301285Y-120719904D02*
X136834619Y-120719904D01*
X136491761Y-121519904D01*
D11*
%TO.C,C1*%
X136207333Y-92968142D02*
X136159714Y-93015761D01*
X136016857Y-93063380D01*
X135921619Y-93063380D01*
X135778761Y-93015761D01*
X135683523Y-92920523D01*
X135635904Y-92825285D01*
X135588285Y-92634809D01*
X135588285Y-92491952D01*
X135635904Y-92301476D01*
X135683523Y-92206238D01*
X135778761Y-92111000D01*
X135921619Y-92063380D01*
X136016857Y-92063380D01*
X136159714Y-92111000D01*
X136207333Y-92158619D01*
X137159714Y-93063380D02*
X136588285Y-93063380D01*
X136874000Y-93063380D02*
X136874000Y-92063380D01*
X136778761Y-92206238D01*
X136683523Y-92301476D01*
X136588285Y-92349095D01*
D10*
%TO.C,Q15*%
X122478857Y-118012095D02*
X122402666Y-117974000D01*
X122326476Y-117897809D01*
X122212190Y-117783523D01*
X122136000Y-117745428D01*
X122059809Y-117745428D01*
X122097904Y-117935904D02*
X122021714Y-117897809D01*
X121945523Y-117821619D01*
X121907428Y-117669238D01*
X121907428Y-117402571D01*
X121945523Y-117250190D01*
X122021714Y-117174000D01*
X122097904Y-117135904D01*
X122250285Y-117135904D01*
X122326476Y-117174000D01*
X122402666Y-117250190D01*
X122440761Y-117402571D01*
X122440761Y-117669238D01*
X122402666Y-117821619D01*
X122326476Y-117897809D01*
X122250285Y-117935904D01*
X122097904Y-117935904D01*
X123202666Y-117935904D02*
X122745523Y-117935904D01*
X122974095Y-117935904D02*
X122974095Y-117135904D01*
X122897904Y-117250190D01*
X122821714Y-117326380D01*
X122745523Y-117364476D01*
X123926476Y-117135904D02*
X123545523Y-117135904D01*
X123507428Y-117516857D01*
X123545523Y-117478761D01*
X123621714Y-117440666D01*
X123812190Y-117440666D01*
X123888380Y-117478761D01*
X123926476Y-117516857D01*
X123964571Y-117593047D01*
X123964571Y-117783523D01*
X123926476Y-117859714D01*
X123888380Y-117897809D01*
X123812190Y-117935904D01*
X123621714Y-117935904D01*
X123545523Y-117897809D01*
X123507428Y-117859714D01*
%TO.C,Q16*%
X137337857Y-111436095D02*
X137261666Y-111398000D01*
X137185476Y-111321809D01*
X137071190Y-111207523D01*
X136995000Y-111169428D01*
X136918809Y-111169428D01*
X136956904Y-111359904D02*
X136880714Y-111321809D01*
X136804523Y-111245619D01*
X136766428Y-111093238D01*
X136766428Y-110826571D01*
X136804523Y-110674190D01*
X136880714Y-110598000D01*
X136956904Y-110559904D01*
X137109285Y-110559904D01*
X137185476Y-110598000D01*
X137261666Y-110674190D01*
X137299761Y-110826571D01*
X137299761Y-111093238D01*
X137261666Y-111245619D01*
X137185476Y-111321809D01*
X137109285Y-111359904D01*
X136956904Y-111359904D01*
X138061666Y-111359904D02*
X137604523Y-111359904D01*
X137833095Y-111359904D02*
X137833095Y-110559904D01*
X137756904Y-110674190D01*
X137680714Y-110750380D01*
X137604523Y-110788476D01*
X138747380Y-110559904D02*
X138595000Y-110559904D01*
X138518809Y-110598000D01*
X138480714Y-110636095D01*
X138404523Y-110750380D01*
X138366428Y-110902761D01*
X138366428Y-111207523D01*
X138404523Y-111283714D01*
X138442619Y-111321809D01*
X138518809Y-111359904D01*
X138671190Y-111359904D01*
X138747380Y-111321809D01*
X138785476Y-111283714D01*
X138823571Y-111207523D01*
X138823571Y-111017047D01*
X138785476Y-110940857D01*
X138747380Y-110902761D01*
X138671190Y-110864666D01*
X138518809Y-110864666D01*
X138442619Y-110902761D01*
X138404523Y-110940857D01*
X138366428Y-111017047D01*
D11*
%TO.C,Q5*%
X162591761Y-122599119D02*
X162496523Y-122551500D01*
X162401285Y-122456261D01*
X162258428Y-122313404D01*
X162163190Y-122265785D01*
X162067952Y-122265785D01*
X162115571Y-122503880D02*
X162020333Y-122456261D01*
X161925095Y-122361023D01*
X161877476Y-122170547D01*
X161877476Y-121837214D01*
X161925095Y-121646738D01*
X162020333Y-121551500D01*
X162115571Y-121503880D01*
X162306047Y-121503880D01*
X162401285Y-121551500D01*
X162496523Y-121646738D01*
X162544142Y-121837214D01*
X162544142Y-122170547D01*
X162496523Y-122361023D01*
X162401285Y-122456261D01*
X162306047Y-122503880D01*
X162115571Y-122503880D01*
X163448904Y-121503880D02*
X162972714Y-121503880D01*
X162925095Y-121980071D01*
X162972714Y-121932452D01*
X163067952Y-121884833D01*
X163306047Y-121884833D01*
X163401285Y-121932452D01*
X163448904Y-121980071D01*
X163496523Y-122075309D01*
X163496523Y-122313404D01*
X163448904Y-122408642D01*
X163401285Y-122456261D01*
X163306047Y-122503880D01*
X163067952Y-122503880D01*
X162972714Y-122456261D01*
X162925095Y-122408642D01*
D10*
%TO.C,R19*%
X173475714Y-126218904D02*
X173209047Y-125837952D01*
X173018571Y-126218904D02*
X173018571Y-125418904D01*
X173323333Y-125418904D01*
X173399523Y-125457000D01*
X173437619Y-125495095D01*
X173475714Y-125571285D01*
X173475714Y-125685571D01*
X173437619Y-125761761D01*
X173399523Y-125799857D01*
X173323333Y-125837952D01*
X173018571Y-125837952D01*
X174237619Y-126218904D02*
X173780476Y-126218904D01*
X174009047Y-126218904D02*
X174009047Y-125418904D01*
X173932857Y-125533190D01*
X173856666Y-125609380D01*
X173780476Y-125647476D01*
X174618571Y-126218904D02*
X174770952Y-126218904D01*
X174847142Y-126180809D01*
X174885238Y-126142714D01*
X174961428Y-126028428D01*
X174999523Y-125876047D01*
X174999523Y-125571285D01*
X174961428Y-125495095D01*
X174923333Y-125457000D01*
X174847142Y-125418904D01*
X174694761Y-125418904D01*
X174618571Y-125457000D01*
X174580476Y-125495095D01*
X174542380Y-125571285D01*
X174542380Y-125761761D01*
X174580476Y-125837952D01*
X174618571Y-125876047D01*
X174694761Y-125914142D01*
X174847142Y-125914142D01*
X174923333Y-125876047D01*
X174961428Y-125837952D01*
X174999523Y-125761761D01*
%TO.C,Q18*%
X141833657Y-116008095D02*
X141757466Y-115970000D01*
X141681276Y-115893809D01*
X141566990Y-115779523D01*
X141490800Y-115741428D01*
X141414609Y-115741428D01*
X141452704Y-115931904D02*
X141376514Y-115893809D01*
X141300323Y-115817619D01*
X141262228Y-115665238D01*
X141262228Y-115398571D01*
X141300323Y-115246190D01*
X141376514Y-115170000D01*
X141452704Y-115131904D01*
X141605085Y-115131904D01*
X141681276Y-115170000D01*
X141757466Y-115246190D01*
X141795561Y-115398571D01*
X141795561Y-115665238D01*
X141757466Y-115817619D01*
X141681276Y-115893809D01*
X141605085Y-115931904D01*
X141452704Y-115931904D01*
X142557466Y-115931904D02*
X142100323Y-115931904D01*
X142328895Y-115931904D02*
X142328895Y-115131904D01*
X142252704Y-115246190D01*
X142176514Y-115322380D01*
X142100323Y-115360476D01*
X143014609Y-115474761D02*
X142938419Y-115436666D01*
X142900323Y-115398571D01*
X142862228Y-115322380D01*
X142862228Y-115284285D01*
X142900323Y-115208095D01*
X142938419Y-115170000D01*
X143014609Y-115131904D01*
X143166990Y-115131904D01*
X143243180Y-115170000D01*
X143281276Y-115208095D01*
X143319371Y-115284285D01*
X143319371Y-115322380D01*
X143281276Y-115398571D01*
X143243180Y-115436666D01*
X143166990Y-115474761D01*
X143014609Y-115474761D01*
X142938419Y-115512857D01*
X142900323Y-115550952D01*
X142862228Y-115627142D01*
X142862228Y-115779523D01*
X142900323Y-115855714D01*
X142938419Y-115893809D01*
X143014609Y-115931904D01*
X143166990Y-115931904D01*
X143243180Y-115893809D01*
X143281276Y-115855714D01*
X143319371Y-115779523D01*
X143319371Y-115627142D01*
X143281276Y-115550952D01*
X143243180Y-115512857D01*
X143166990Y-115474761D01*
%TO.C,R12*%
X129025714Y-116284904D02*
X128759047Y-115903952D01*
X128568571Y-116284904D02*
X128568571Y-115484904D01*
X128873333Y-115484904D01*
X128949523Y-115523000D01*
X128987619Y-115561095D01*
X129025714Y-115637285D01*
X129025714Y-115751571D01*
X128987619Y-115827761D01*
X128949523Y-115865857D01*
X128873333Y-115903952D01*
X128568571Y-115903952D01*
X129787619Y-116284904D02*
X129330476Y-116284904D01*
X129559047Y-116284904D02*
X129559047Y-115484904D01*
X129482857Y-115599190D01*
X129406666Y-115675380D01*
X129330476Y-115713476D01*
X130092380Y-115561095D02*
X130130476Y-115523000D01*
X130206666Y-115484904D01*
X130397142Y-115484904D01*
X130473333Y-115523000D01*
X130511428Y-115561095D01*
X130549523Y-115637285D01*
X130549523Y-115713476D01*
X130511428Y-115827761D01*
X130054285Y-116284904D01*
X130549523Y-116284904D01*
%TO.C,R3*%
X128493666Y-113546904D02*
X128227000Y-113165952D01*
X128036523Y-113546904D02*
X128036523Y-112746904D01*
X128341285Y-112746904D01*
X128417476Y-112785000D01*
X128455571Y-112823095D01*
X128493666Y-112899285D01*
X128493666Y-113013571D01*
X128455571Y-113089761D01*
X128417476Y-113127857D01*
X128341285Y-113165952D01*
X128036523Y-113165952D01*
X128760333Y-112746904D02*
X129255571Y-112746904D01*
X128988904Y-113051666D01*
X129103190Y-113051666D01*
X129179380Y-113089761D01*
X129217476Y-113127857D01*
X129255571Y-113204047D01*
X129255571Y-113394523D01*
X129217476Y-113470714D01*
X129179380Y-113508809D01*
X129103190Y-113546904D01*
X128874619Y-113546904D01*
X128798428Y-113508809D01*
X128760333Y-113470714D01*
%TO.C,R4*%
X173348666Y-113010904D02*
X173082000Y-112629952D01*
X172891523Y-113010904D02*
X172891523Y-112210904D01*
X173196285Y-112210904D01*
X173272476Y-112249000D01*
X173310571Y-112287095D01*
X173348666Y-112363285D01*
X173348666Y-112477571D01*
X173310571Y-112553761D01*
X173272476Y-112591857D01*
X173196285Y-112629952D01*
X172891523Y-112629952D01*
X174034380Y-112477571D02*
X174034380Y-113010904D01*
X173843904Y-112172809D02*
X173653428Y-112744238D01*
X174148666Y-112744238D01*
%TO.C,Q17*%
X151307857Y-119691095D02*
X151231666Y-119653000D01*
X151155476Y-119576809D01*
X151041190Y-119462523D01*
X150965000Y-119424428D01*
X150888809Y-119424428D01*
X150926904Y-119614904D02*
X150850714Y-119576809D01*
X150774523Y-119500619D01*
X150736428Y-119348238D01*
X150736428Y-119081571D01*
X150774523Y-118929190D01*
X150850714Y-118853000D01*
X150926904Y-118814904D01*
X151079285Y-118814904D01*
X151155476Y-118853000D01*
X151231666Y-118929190D01*
X151269761Y-119081571D01*
X151269761Y-119348238D01*
X151231666Y-119500619D01*
X151155476Y-119576809D01*
X151079285Y-119614904D01*
X150926904Y-119614904D01*
X152031666Y-119614904D02*
X151574523Y-119614904D01*
X151803095Y-119614904D02*
X151803095Y-118814904D01*
X151726904Y-118929190D01*
X151650714Y-119005380D01*
X151574523Y-119043476D01*
X152298333Y-118814904D02*
X152831666Y-118814904D01*
X152488809Y-119614904D01*
D11*
%TO.C,Q22*%
X169711571Y-98365619D02*
X169616333Y-98318000D01*
X169521095Y-98222761D01*
X169378238Y-98079904D01*
X169283000Y-98032285D01*
X169187761Y-98032285D01*
X169235380Y-98270380D02*
X169140142Y-98222761D01*
X169044904Y-98127523D01*
X168997285Y-97937047D01*
X168997285Y-97603714D01*
X169044904Y-97413238D01*
X169140142Y-97318000D01*
X169235380Y-97270380D01*
X169425857Y-97270380D01*
X169521095Y-97318000D01*
X169616333Y-97413238D01*
X169663952Y-97603714D01*
X169663952Y-97937047D01*
X169616333Y-98127523D01*
X169521095Y-98222761D01*
X169425857Y-98270380D01*
X169235380Y-98270380D01*
X170044904Y-97365619D02*
X170092523Y-97318000D01*
X170187761Y-97270380D01*
X170425857Y-97270380D01*
X170521095Y-97318000D01*
X170568714Y-97365619D01*
X170616333Y-97460857D01*
X170616333Y-97556095D01*
X170568714Y-97698952D01*
X169997285Y-98270380D01*
X170616333Y-98270380D01*
X170997285Y-97365619D02*
X171044904Y-97318000D01*
X171140142Y-97270380D01*
X171378238Y-97270380D01*
X171473476Y-97318000D01*
X171521095Y-97365619D01*
X171568714Y-97460857D01*
X171568714Y-97556095D01*
X171521095Y-97698952D01*
X170949666Y-98270380D01*
X171568714Y-98270380D01*
D10*
%TO.C,Q7*%
X139750809Y-110448095D02*
X139674619Y-110410000D01*
X139598428Y-110333809D01*
X139484142Y-110219523D01*
X139407952Y-110181428D01*
X139331761Y-110181428D01*
X139369857Y-110371904D02*
X139293666Y-110333809D01*
X139217476Y-110257619D01*
X139179380Y-110105238D01*
X139179380Y-109838571D01*
X139217476Y-109686190D01*
X139293666Y-109610000D01*
X139369857Y-109571904D01*
X139522238Y-109571904D01*
X139598428Y-109610000D01*
X139674619Y-109686190D01*
X139712714Y-109838571D01*
X139712714Y-110105238D01*
X139674619Y-110257619D01*
X139598428Y-110333809D01*
X139522238Y-110371904D01*
X139369857Y-110371904D01*
X139979380Y-109571904D02*
X140512714Y-109571904D01*
X140169857Y-110371904D01*
%TO.C,Q20*%
X129082857Y-119282095D02*
X129006666Y-119244000D01*
X128930476Y-119167809D01*
X128816190Y-119053523D01*
X128740000Y-119015428D01*
X128663809Y-119015428D01*
X128701904Y-119205904D02*
X128625714Y-119167809D01*
X128549523Y-119091619D01*
X128511428Y-118939238D01*
X128511428Y-118672571D01*
X128549523Y-118520190D01*
X128625714Y-118444000D01*
X128701904Y-118405904D01*
X128854285Y-118405904D01*
X128930476Y-118444000D01*
X129006666Y-118520190D01*
X129044761Y-118672571D01*
X129044761Y-118939238D01*
X129006666Y-119091619D01*
X128930476Y-119167809D01*
X128854285Y-119205904D01*
X128701904Y-119205904D01*
X129349523Y-118482095D02*
X129387619Y-118444000D01*
X129463809Y-118405904D01*
X129654285Y-118405904D01*
X129730476Y-118444000D01*
X129768571Y-118482095D01*
X129806666Y-118558285D01*
X129806666Y-118634476D01*
X129768571Y-118748761D01*
X129311428Y-119205904D01*
X129806666Y-119205904D01*
X130301904Y-118405904D02*
X130378095Y-118405904D01*
X130454285Y-118444000D01*
X130492380Y-118482095D01*
X130530476Y-118558285D01*
X130568571Y-118710666D01*
X130568571Y-118901142D01*
X130530476Y-119053523D01*
X130492380Y-119129714D01*
X130454285Y-119167809D01*
X130378095Y-119205904D01*
X130301904Y-119205904D01*
X130225714Y-119167809D01*
X130187619Y-119129714D01*
X130149523Y-119053523D01*
X130111428Y-118901142D01*
X130111428Y-118710666D01*
X130149523Y-118558285D01*
X130187619Y-118482095D01*
X130225714Y-118444000D01*
X130301904Y-118405904D01*
%TO.C,Q6*%
X144679809Y-109686095D02*
X144603619Y-109648000D01*
X144527428Y-109571809D01*
X144413142Y-109457523D01*
X144336952Y-109419428D01*
X144260761Y-109419428D01*
X144298857Y-109609904D02*
X144222666Y-109571809D01*
X144146476Y-109495619D01*
X144108380Y-109343238D01*
X144108380Y-109076571D01*
X144146476Y-108924190D01*
X144222666Y-108848000D01*
X144298857Y-108809904D01*
X144451238Y-108809904D01*
X144527428Y-108848000D01*
X144603619Y-108924190D01*
X144641714Y-109076571D01*
X144641714Y-109343238D01*
X144603619Y-109495619D01*
X144527428Y-109571809D01*
X144451238Y-109609904D01*
X144298857Y-109609904D01*
X145327428Y-108809904D02*
X145175047Y-108809904D01*
X145098857Y-108848000D01*
X145060761Y-108886095D01*
X144984571Y-109000380D01*
X144946476Y-109152761D01*
X144946476Y-109457523D01*
X144984571Y-109533714D01*
X145022666Y-109571809D01*
X145098857Y-109609904D01*
X145251238Y-109609904D01*
X145327428Y-109571809D01*
X145365523Y-109533714D01*
X145403619Y-109457523D01*
X145403619Y-109267047D01*
X145365523Y-109190857D01*
X145327428Y-109152761D01*
X145251238Y-109114666D01*
X145098857Y-109114666D01*
X145022666Y-109152761D01*
X144984571Y-109190857D01*
X144946476Y-109267047D01*
%TO.C,R8*%
X168776666Y-104247904D02*
X168510000Y-103866952D01*
X168319523Y-104247904D02*
X168319523Y-103447904D01*
X168624285Y-103447904D01*
X168700476Y-103486000D01*
X168738571Y-103524095D01*
X168776666Y-103600285D01*
X168776666Y-103714571D01*
X168738571Y-103790761D01*
X168700476Y-103828857D01*
X168624285Y-103866952D01*
X168319523Y-103866952D01*
X169233809Y-103790761D02*
X169157619Y-103752666D01*
X169119523Y-103714571D01*
X169081428Y-103638380D01*
X169081428Y-103600285D01*
X169119523Y-103524095D01*
X169157619Y-103486000D01*
X169233809Y-103447904D01*
X169386190Y-103447904D01*
X169462380Y-103486000D01*
X169500476Y-103524095D01*
X169538571Y-103600285D01*
X169538571Y-103638380D01*
X169500476Y-103714571D01*
X169462380Y-103752666D01*
X169386190Y-103790761D01*
X169233809Y-103790761D01*
X169157619Y-103828857D01*
X169119523Y-103866952D01*
X169081428Y-103943142D01*
X169081428Y-104095523D01*
X169119523Y-104171714D01*
X169157619Y-104209809D01*
X169233809Y-104247904D01*
X169386190Y-104247904D01*
X169462380Y-104209809D01*
X169500476Y-104171714D01*
X169538571Y-104095523D01*
X169538571Y-103943142D01*
X169500476Y-103866952D01*
X169462380Y-103828857D01*
X169386190Y-103790761D01*
%TO.C,Q9*%
X152093809Y-111690095D02*
X152017619Y-111652000D01*
X151941428Y-111575809D01*
X151827142Y-111461523D01*
X151750952Y-111423428D01*
X151674761Y-111423428D01*
X151712857Y-111613904D02*
X151636666Y-111575809D01*
X151560476Y-111499619D01*
X151522380Y-111347238D01*
X151522380Y-111080571D01*
X151560476Y-110928190D01*
X151636666Y-110852000D01*
X151712857Y-110813904D01*
X151865238Y-110813904D01*
X151941428Y-110852000D01*
X152017619Y-110928190D01*
X152055714Y-111080571D01*
X152055714Y-111347238D01*
X152017619Y-111499619D01*
X151941428Y-111575809D01*
X151865238Y-111613904D01*
X151712857Y-111613904D01*
X152436666Y-111613904D02*
X152589047Y-111613904D01*
X152665238Y-111575809D01*
X152703333Y-111537714D01*
X152779523Y-111423428D01*
X152817619Y-111271047D01*
X152817619Y-110966285D01*
X152779523Y-110890095D01*
X152741428Y-110852000D01*
X152665238Y-110813904D01*
X152512857Y-110813904D01*
X152436666Y-110852000D01*
X152398571Y-110890095D01*
X152360476Y-110966285D01*
X152360476Y-111156761D01*
X152398571Y-111232952D01*
X152436666Y-111271047D01*
X152512857Y-111309142D01*
X152665238Y-111309142D01*
X152741428Y-111271047D01*
X152779523Y-111232952D01*
X152817619Y-111156761D01*
%TO.C,R10*%
X172205714Y-104247904D02*
X171939047Y-103866952D01*
X171748571Y-104247904D02*
X171748571Y-103447904D01*
X172053333Y-103447904D01*
X172129523Y-103486000D01*
X172167619Y-103524095D01*
X172205714Y-103600285D01*
X172205714Y-103714571D01*
X172167619Y-103790761D01*
X172129523Y-103828857D01*
X172053333Y-103866952D01*
X171748571Y-103866952D01*
X172967619Y-104247904D02*
X172510476Y-104247904D01*
X172739047Y-104247904D02*
X172739047Y-103447904D01*
X172662857Y-103562190D01*
X172586666Y-103638380D01*
X172510476Y-103676476D01*
X173462857Y-103447904D02*
X173539047Y-103447904D01*
X173615238Y-103486000D01*
X173653333Y-103524095D01*
X173691428Y-103600285D01*
X173729523Y-103752666D01*
X173729523Y-103943142D01*
X173691428Y-104095523D01*
X173653333Y-104171714D01*
X173615238Y-104209809D01*
X173539047Y-104247904D01*
X173462857Y-104247904D01*
X173386666Y-104209809D01*
X173348571Y-104171714D01*
X173310476Y-104095523D01*
X173272380Y-103943142D01*
X173272380Y-103752666D01*
X173310476Y-103600285D01*
X173348571Y-103524095D01*
X173386666Y-103486000D01*
X173462857Y-103447904D01*
%TO.C,Q19*%
X128574857Y-121723095D02*
X128498666Y-121685000D01*
X128422476Y-121608809D01*
X128308190Y-121494523D01*
X128232000Y-121456428D01*
X128155809Y-121456428D01*
X128193904Y-121646904D02*
X128117714Y-121608809D01*
X128041523Y-121532619D01*
X128003428Y-121380238D01*
X128003428Y-121113571D01*
X128041523Y-120961190D01*
X128117714Y-120885000D01*
X128193904Y-120846904D01*
X128346285Y-120846904D01*
X128422476Y-120885000D01*
X128498666Y-120961190D01*
X128536761Y-121113571D01*
X128536761Y-121380238D01*
X128498666Y-121532619D01*
X128422476Y-121608809D01*
X128346285Y-121646904D01*
X128193904Y-121646904D01*
X129298666Y-121646904D02*
X128841523Y-121646904D01*
X129070095Y-121646904D02*
X129070095Y-120846904D01*
X128993904Y-120961190D01*
X128917714Y-121037380D01*
X128841523Y-121075476D01*
X129679619Y-121646904D02*
X129832000Y-121646904D01*
X129908190Y-121608809D01*
X129946285Y-121570714D01*
X130022476Y-121456428D01*
X130060571Y-121304047D01*
X130060571Y-120999285D01*
X130022476Y-120923095D01*
X129984380Y-120885000D01*
X129908190Y-120846904D01*
X129755809Y-120846904D01*
X129679619Y-120885000D01*
X129641523Y-120923095D01*
X129603428Y-120999285D01*
X129603428Y-121189761D01*
X129641523Y-121265952D01*
X129679619Y-121304047D01*
X129755809Y-121342142D01*
X129908190Y-121342142D01*
X129984380Y-121304047D01*
X130022476Y-121265952D01*
X130060571Y-121189761D01*
%TO.C,R15*%
X185667714Y-121011904D02*
X185401047Y-120630952D01*
X185210571Y-121011904D02*
X185210571Y-120211904D01*
X185515333Y-120211904D01*
X185591523Y-120250000D01*
X185629619Y-120288095D01*
X185667714Y-120364285D01*
X185667714Y-120478571D01*
X185629619Y-120554761D01*
X185591523Y-120592857D01*
X185515333Y-120630952D01*
X185210571Y-120630952D01*
X186429619Y-121011904D02*
X185972476Y-121011904D01*
X186201047Y-121011904D02*
X186201047Y-120211904D01*
X186124857Y-120326190D01*
X186048666Y-120402380D01*
X185972476Y-120440476D01*
X187153428Y-120211904D02*
X186772476Y-120211904D01*
X186734380Y-120592857D01*
X186772476Y-120554761D01*
X186848666Y-120516666D01*
X187039142Y-120516666D01*
X187115333Y-120554761D01*
X187153428Y-120592857D01*
X187191523Y-120669047D01*
X187191523Y-120859523D01*
X187153428Y-120935714D01*
X187115333Y-120973809D01*
X187039142Y-121011904D01*
X186848666Y-121011904D01*
X186772476Y-120973809D01*
X186734380Y-120935714D01*
%TO.C,Q11*%
X144171857Y-115020095D02*
X144095666Y-114982000D01*
X144019476Y-114905809D01*
X143905190Y-114791523D01*
X143829000Y-114753428D01*
X143752809Y-114753428D01*
X143790904Y-114943904D02*
X143714714Y-114905809D01*
X143638523Y-114829619D01*
X143600428Y-114677238D01*
X143600428Y-114410571D01*
X143638523Y-114258190D01*
X143714714Y-114182000D01*
X143790904Y-114143904D01*
X143943285Y-114143904D01*
X144019476Y-114182000D01*
X144095666Y-114258190D01*
X144133761Y-114410571D01*
X144133761Y-114677238D01*
X144095666Y-114829619D01*
X144019476Y-114905809D01*
X143943285Y-114943904D01*
X143790904Y-114943904D01*
X144895666Y-114943904D02*
X144438523Y-114943904D01*
X144667095Y-114943904D02*
X144667095Y-114143904D01*
X144590904Y-114258190D01*
X144514714Y-114334380D01*
X144438523Y-114372476D01*
X145657571Y-114943904D02*
X145200428Y-114943904D01*
X145429000Y-114943904D02*
X145429000Y-114143904D01*
X145352809Y-114258190D01*
X145276619Y-114334380D01*
X145200428Y-114372476D01*
%TO.C,C6*%
X143098666Y-111565714D02*
X143060571Y-111603809D01*
X142946285Y-111641904D01*
X142870095Y-111641904D01*
X142755809Y-111603809D01*
X142679619Y-111527619D01*
X142641523Y-111451428D01*
X142603428Y-111299047D01*
X142603428Y-111184761D01*
X142641523Y-111032380D01*
X142679619Y-110956190D01*
X142755809Y-110880000D01*
X142870095Y-110841904D01*
X142946285Y-110841904D01*
X143060571Y-110880000D01*
X143098666Y-110918095D01*
X143784380Y-110841904D02*
X143632000Y-110841904D01*
X143555809Y-110880000D01*
X143517714Y-110918095D01*
X143441523Y-111032380D01*
X143403428Y-111184761D01*
X143403428Y-111489523D01*
X143441523Y-111565714D01*
X143479619Y-111603809D01*
X143555809Y-111641904D01*
X143708190Y-111641904D01*
X143784380Y-111603809D01*
X143822476Y-111565714D01*
X143860571Y-111489523D01*
X143860571Y-111299047D01*
X143822476Y-111222857D01*
X143784380Y-111184761D01*
X143708190Y-111146666D01*
X143555809Y-111146666D01*
X143479619Y-111184761D01*
X143441523Y-111222857D01*
X143403428Y-111299047D01*
D11*
%TO.C,JP1*%
X192714666Y-119340380D02*
X192714666Y-120054666D01*
X192667047Y-120197523D01*
X192571809Y-120292761D01*
X192428952Y-120340380D01*
X192333714Y-120340380D01*
X193190857Y-120340380D02*
X193190857Y-119340380D01*
X193571809Y-119340380D01*
X193667047Y-119388000D01*
X193714666Y-119435619D01*
X193762285Y-119530857D01*
X193762285Y-119673714D01*
X193714666Y-119768952D01*
X193667047Y-119816571D01*
X193571809Y-119864190D01*
X193190857Y-119864190D01*
X194714666Y-120340380D02*
X194143238Y-120340380D01*
X194428952Y-120340380D02*
X194428952Y-119340380D01*
X194333714Y-119483238D01*
X194238476Y-119578476D01*
X194143238Y-119626095D01*
D10*
%TO.C,Q21*%
X158292857Y-116417095D02*
X158216666Y-116379000D01*
X158140476Y-116302809D01*
X158026190Y-116188523D01*
X157950000Y-116150428D01*
X157873809Y-116150428D01*
X157911904Y-116340904D02*
X157835714Y-116302809D01*
X157759523Y-116226619D01*
X157721428Y-116074238D01*
X157721428Y-115807571D01*
X157759523Y-115655190D01*
X157835714Y-115579000D01*
X157911904Y-115540904D01*
X158064285Y-115540904D01*
X158140476Y-115579000D01*
X158216666Y-115655190D01*
X158254761Y-115807571D01*
X158254761Y-116074238D01*
X158216666Y-116226619D01*
X158140476Y-116302809D01*
X158064285Y-116340904D01*
X157911904Y-116340904D01*
X158559523Y-115617095D02*
X158597619Y-115579000D01*
X158673809Y-115540904D01*
X158864285Y-115540904D01*
X158940476Y-115579000D01*
X158978571Y-115617095D01*
X159016666Y-115693285D01*
X159016666Y-115769476D01*
X158978571Y-115883761D01*
X158521428Y-116340904D01*
X159016666Y-116340904D01*
X159778571Y-116340904D02*
X159321428Y-116340904D01*
X159550000Y-116340904D02*
X159550000Y-115540904D01*
X159473809Y-115655190D01*
X159397619Y-115731380D01*
X159321428Y-115769476D01*
D11*
%TO.C,Q4*%
X171330761Y-116272619D02*
X171235523Y-116225000D01*
X171140285Y-116129761D01*
X170997428Y-115986904D01*
X170902190Y-115939285D01*
X170806952Y-115939285D01*
X170854571Y-116177380D02*
X170759333Y-116129761D01*
X170664095Y-116034523D01*
X170616476Y-115844047D01*
X170616476Y-115510714D01*
X170664095Y-115320238D01*
X170759333Y-115225000D01*
X170854571Y-115177380D01*
X171045047Y-115177380D01*
X171140285Y-115225000D01*
X171235523Y-115320238D01*
X171283142Y-115510714D01*
X171283142Y-115844047D01*
X171235523Y-116034523D01*
X171140285Y-116129761D01*
X171045047Y-116177380D01*
X170854571Y-116177380D01*
X172140285Y-115510714D02*
X172140285Y-116177380D01*
X171902190Y-115129761D02*
X171664095Y-115844047D01*
X172283142Y-115844047D01*
D10*
%TO.C,R2*%
X148686666Y-109228904D02*
X148420000Y-108847952D01*
X148229523Y-109228904D02*
X148229523Y-108428904D01*
X148534285Y-108428904D01*
X148610476Y-108467000D01*
X148648571Y-108505095D01*
X148686666Y-108581285D01*
X148686666Y-108695571D01*
X148648571Y-108771761D01*
X148610476Y-108809857D01*
X148534285Y-108847952D01*
X148229523Y-108847952D01*
X148991428Y-108505095D02*
X149029523Y-108467000D01*
X149105714Y-108428904D01*
X149296190Y-108428904D01*
X149372380Y-108467000D01*
X149410476Y-108505095D01*
X149448571Y-108581285D01*
X149448571Y-108657476D01*
X149410476Y-108771761D01*
X148953333Y-109228904D01*
X149448571Y-109228904D01*
%TO.C,R16*%
X140455714Y-121519904D02*
X140189047Y-121138952D01*
X139998571Y-121519904D02*
X139998571Y-120719904D01*
X140303333Y-120719904D01*
X140379523Y-120758000D01*
X140417619Y-120796095D01*
X140455714Y-120872285D01*
X140455714Y-120986571D01*
X140417619Y-121062761D01*
X140379523Y-121100857D01*
X140303333Y-121138952D01*
X139998571Y-121138952D01*
X141217619Y-121519904D02*
X140760476Y-121519904D01*
X140989047Y-121519904D02*
X140989047Y-120719904D01*
X140912857Y-120834190D01*
X140836666Y-120910380D01*
X140760476Y-120948476D01*
X141903333Y-120719904D02*
X141750952Y-120719904D01*
X141674761Y-120758000D01*
X141636666Y-120796095D01*
X141560476Y-120910380D01*
X141522380Y-121062761D01*
X141522380Y-121367523D01*
X141560476Y-121443714D01*
X141598571Y-121481809D01*
X141674761Y-121519904D01*
X141827142Y-121519904D01*
X141903333Y-121481809D01*
X141941428Y-121443714D01*
X141979523Y-121367523D01*
X141979523Y-121177047D01*
X141941428Y-121100857D01*
X141903333Y-121062761D01*
X141827142Y-121024666D01*
X141674761Y-121024666D01*
X141598571Y-121062761D01*
X141560476Y-121100857D01*
X141522380Y-121177047D01*
%TO.C,R7*%
X166998666Y-112248904D02*
X166732000Y-111867952D01*
X166541523Y-112248904D02*
X166541523Y-111448904D01*
X166846285Y-111448904D01*
X166922476Y-111487000D01*
X166960571Y-111525095D01*
X166998666Y-111601285D01*
X166998666Y-111715571D01*
X166960571Y-111791761D01*
X166922476Y-111829857D01*
X166846285Y-111867952D01*
X166541523Y-111867952D01*
X167265333Y-111448904D02*
X167798666Y-111448904D01*
X167455809Y-112248904D01*
%TO.C,C5*%
X124429666Y-112708714D02*
X124391571Y-112746809D01*
X124277285Y-112784904D01*
X124201095Y-112784904D01*
X124086809Y-112746809D01*
X124010619Y-112670619D01*
X123972523Y-112594428D01*
X123934428Y-112442047D01*
X123934428Y-112327761D01*
X123972523Y-112175380D01*
X124010619Y-112099190D01*
X124086809Y-112023000D01*
X124201095Y-111984904D01*
X124277285Y-111984904D01*
X124391571Y-112023000D01*
X124429666Y-112061095D01*
X125153476Y-111984904D02*
X124772523Y-111984904D01*
X124734428Y-112365857D01*
X124772523Y-112327761D01*
X124848714Y-112289666D01*
X125039190Y-112289666D01*
X125115380Y-112327761D01*
X125153476Y-112365857D01*
X125191571Y-112442047D01*
X125191571Y-112632523D01*
X125153476Y-112708714D01*
X125115380Y-112746809D01*
X125039190Y-112784904D01*
X124848714Y-112784904D01*
X124772523Y-112746809D01*
X124734428Y-112708714D01*
%TO.C,R9*%
X170554666Y-103739904D02*
X170288000Y-103358952D01*
X170097523Y-103739904D02*
X170097523Y-102939904D01*
X170402285Y-102939904D01*
X170478476Y-102978000D01*
X170516571Y-103016095D01*
X170554666Y-103092285D01*
X170554666Y-103206571D01*
X170516571Y-103282761D01*
X170478476Y-103320857D01*
X170402285Y-103358952D01*
X170097523Y-103358952D01*
X170935619Y-103739904D02*
X171088000Y-103739904D01*
X171164190Y-103701809D01*
X171202285Y-103663714D01*
X171278476Y-103549428D01*
X171316571Y-103397047D01*
X171316571Y-103092285D01*
X171278476Y-103016095D01*
X171240380Y-102978000D01*
X171164190Y-102939904D01*
X171011809Y-102939904D01*
X170935619Y-102978000D01*
X170897523Y-103016095D01*
X170859428Y-103092285D01*
X170859428Y-103282761D01*
X170897523Y-103358952D01*
X170935619Y-103397047D01*
X171011809Y-103435142D01*
X171164190Y-103435142D01*
X171240380Y-103397047D01*
X171278476Y-103358952D01*
X171316571Y-103282761D01*
%TO.C,R5*%
X171570666Y-113010904D02*
X171304000Y-112629952D01*
X171113523Y-113010904D02*
X171113523Y-112210904D01*
X171418285Y-112210904D01*
X171494476Y-112249000D01*
X171532571Y-112287095D01*
X171570666Y-112363285D01*
X171570666Y-112477571D01*
X171532571Y-112553761D01*
X171494476Y-112591857D01*
X171418285Y-112629952D01*
X171113523Y-112629952D01*
X172294476Y-112210904D02*
X171913523Y-112210904D01*
X171875428Y-112591857D01*
X171913523Y-112553761D01*
X171989714Y-112515666D01*
X172180190Y-112515666D01*
X172256380Y-112553761D01*
X172294476Y-112591857D01*
X172332571Y-112668047D01*
X172332571Y-112858523D01*
X172294476Y-112934714D01*
X172256380Y-112972809D01*
X172180190Y-113010904D01*
X171989714Y-113010904D01*
X171913523Y-112972809D01*
X171875428Y-112934714D01*
D13*
%TO.C,C8*%
X189126000Y-92969000D02*
X176126000Y-92969000D01*
X189126000Y-105969000D02*
X176126000Y-105969000D01*
X176126000Y-92969000D02*
X176126000Y-97969000D01*
X176126000Y-105969000D02*
X176126000Y-100969000D01*
X189126000Y-97969000D02*
X189126000Y-92969000D01*
X189126000Y-105969000D02*
X189126000Y-100969000D01*
%TO.C,J1*%
X110490000Y-110490000D02*
X118110000Y-110490000D01*
X110490000Y-95250000D02*
X118110000Y-95250000D01*
X111760000Y-95250000D02*
X111760000Y-110490000D01*
X110490000Y-95250000D02*
X110490000Y-110490000D01*
X118110000Y-95250000D02*
X118110000Y-110490000D01*
%TO.C,Q13*%
X130786000Y-112459000D02*
X131436000Y-112459000D01*
X130786000Y-109339000D02*
X131436000Y-109339000D01*
X130786000Y-109339000D02*
X129111000Y-109339000D01*
X130786000Y-112459000D02*
X130136000Y-112459000D01*
%TO.C,R18*%
X159666000Y-119861064D02*
X159666000Y-119406936D01*
X161136000Y-119861064D02*
X161136000Y-119406936D01*
%TO.C,Q10*%
X142343000Y-108141000D02*
X144018000Y-108141000D01*
X142343000Y-105021000D02*
X141693000Y-105021000D01*
X142343000Y-105021000D02*
X142993000Y-105021000D01*
X142343000Y-108141000D02*
X141693000Y-108141000D01*
%TO.C,Q2*%
X129770000Y-108014000D02*
X129120000Y-108014000D01*
X129770000Y-108014000D02*
X131445000Y-108014000D01*
X129770000Y-104894000D02*
X129120000Y-104894000D01*
X129770000Y-104894000D02*
X130420000Y-104894000D01*
%TO.C,Q23*%
X167823000Y-90369000D02*
X167823000Y-91879000D01*
X160852000Y-95010000D02*
X171092000Y-95010000D01*
X160852000Y-90369000D02*
X171092000Y-90369000D01*
X171092000Y-90369000D02*
X171092000Y-95010000D01*
X164122000Y-90369000D02*
X164122000Y-91879000D01*
X160852000Y-91879000D02*
X171092000Y-91879000D01*
X160852000Y-90369000D02*
X160852000Y-95010000D01*
%TO.C,R1*%
X145926000Y-106808064D02*
X145926000Y-106353936D01*
X147396000Y-106808064D02*
X147396000Y-106353936D01*
%TO.C,Q3*%
X133707000Y-108014000D02*
X135382000Y-108014000D01*
X133707000Y-104894000D02*
X134357000Y-104894000D01*
X133707000Y-108014000D02*
X133057000Y-108014000D01*
X133707000Y-104894000D02*
X133057000Y-104894000D01*
%TO.C,R20*%
X176455564Y-119915000D02*
X176001436Y-119915000D01*
X176455564Y-121385000D02*
X176001436Y-121385000D01*
%TO.C,R11*%
X175741000Y-105944936D02*
X175741000Y-106399064D01*
X174271000Y-105944936D02*
X174271000Y-106399064D01*
%TO.C,J3*%
X118110000Y-111760000D02*
X110490000Y-111760000D01*
X110490000Y-121920000D02*
X118110000Y-121920000D01*
X118110000Y-121920000D02*
X118110000Y-111760000D01*
X110490000Y-111760000D02*
X110490000Y-121920000D01*
X111760000Y-121920000D02*
X111760000Y-111760000D01*
%TO.C,Q14*%
X134850000Y-109339000D02*
X133175000Y-109339000D01*
X134850000Y-112459000D02*
X134200000Y-112459000D01*
X134850000Y-109339000D02*
X135500000Y-109339000D01*
X134850000Y-112459000D02*
X135500000Y-112459000D01*
%TO.C,R13*%
X133021400Y-114527064D02*
X133021400Y-114072936D01*
X134491400Y-114527064D02*
X134491400Y-114072936D01*
%TO.C,C2*%
X123520000Y-108478748D02*
X123520000Y-109001252D01*
X122050000Y-108478748D02*
X122050000Y-109001252D01*
%TO.C,C4*%
X139526000Y-91318000D02*
X139526000Y-96318000D01*
X152526000Y-104318000D02*
X152526000Y-99318000D01*
X139526000Y-104318000D02*
X152526000Y-104318000D01*
X139526000Y-99318000D02*
X139526000Y-104318000D01*
X152526000Y-91318000D02*
X152526000Y-96318000D01*
X139526000Y-91318000D02*
X152526000Y-91318000D01*
%TO.C,Q12*%
X148046000Y-115189000D02*
X148046000Y-114539000D01*
X151166000Y-115189000D02*
X151166000Y-113514000D01*
X151166000Y-115189000D02*
X151166000Y-115839000D01*
X148046000Y-115189000D02*
X148046000Y-115839000D01*
%TO.C,C3*%
X122030252Y-105211000D02*
X121507748Y-105211000D01*
X122030252Y-106681000D02*
X121507748Y-106681000D01*
%TO.C,R6*%
X171677000Y-109500936D02*
X171677000Y-109955064D01*
X170207000Y-109500936D02*
X170207000Y-109955064D01*
%TO.C,C7*%
X176126000Y-119558000D02*
X189126000Y-119558000D01*
X176126000Y-106558000D02*
X189126000Y-106558000D01*
X176126000Y-106558000D02*
X176126000Y-111558000D01*
X189126000Y-119558000D02*
X189126000Y-114558000D01*
X176126000Y-114558000D02*
X176126000Y-119558000D01*
X189126000Y-106558000D02*
X189126000Y-111558000D01*
%TO.C,Q8*%
X125960000Y-111570000D02*
X127635000Y-111570000D01*
X125960000Y-108450000D02*
X126610000Y-108450000D01*
X125960000Y-111570000D02*
X125310000Y-111570000D01*
X125960000Y-108450000D02*
X125310000Y-108450000D01*
%TO.C,Q1*%
X125833000Y-104894000D02*
X126483000Y-104894000D01*
X125833000Y-108014000D02*
X125183000Y-108014000D01*
X125833000Y-104894000D02*
X125183000Y-104894000D01*
X125833000Y-108014000D02*
X127508000Y-108014000D01*
%TO.C,R14*%
X139268000Y-119000064D02*
X139268000Y-118545936D01*
X137798000Y-119000064D02*
X137798000Y-118545936D01*
%TO.C,R17*%
X134901000Y-119000064D02*
X134901000Y-118545936D01*
X136371000Y-119000064D02*
X136371000Y-118545936D01*
%TO.C,C1*%
X135254000Y-104191000D02*
X135254000Y-99191000D01*
X122254000Y-91191000D02*
X135254000Y-91191000D01*
X122254000Y-99191000D02*
X122254000Y-104191000D01*
X135254000Y-91191000D02*
X135254000Y-96191000D01*
X122254000Y-91191000D02*
X122254000Y-96191000D01*
X122254000Y-104191000D02*
X135254000Y-104191000D01*
%TO.C,Q15*%
X125960000Y-115534000D02*
X126610000Y-115534000D01*
X125960000Y-115534000D02*
X124285000Y-115534000D01*
X125960000Y-118654000D02*
X126610000Y-118654000D01*
X125960000Y-118654000D02*
X125310000Y-118654000D01*
%TO.C,Q16*%
X140117000Y-113538000D02*
X140117000Y-112888000D01*
X136997000Y-113538000D02*
X136997000Y-112888000D01*
X140117000Y-113538000D02*
X140117000Y-114188000D01*
X136997000Y-113538000D02*
X136997000Y-115213000D01*
%TO.C,Q5*%
X172101000Y-127762500D02*
X172101000Y-123121500D01*
X172101000Y-126252500D02*
X161861000Y-126252500D01*
X168831000Y-127762500D02*
X168831000Y-126252500D01*
X172101000Y-123121500D02*
X161861000Y-123121500D01*
X161861000Y-127762500D02*
X161861000Y-123121500D01*
X165130000Y-127762500D02*
X165130000Y-126252500D01*
X172101000Y-127762500D02*
X161861000Y-127762500D01*
%TO.C,R19*%
X180011564Y-121385000D02*
X179557436Y-121385000D01*
X180011564Y-119915000D02*
X179557436Y-119915000D01*
%TO.C,Q18*%
X143596800Y-113030000D02*
X143596800Y-113680000D01*
X140476800Y-113030000D02*
X140476800Y-112380000D01*
X140476800Y-113030000D02*
X140476800Y-114705000D01*
X143596800Y-113030000D02*
X143596800Y-112380000D01*
%TO.C,R12*%
X132283000Y-114072936D02*
X132283000Y-114527064D01*
X130813000Y-114072936D02*
X130813000Y-114527064D01*
%TO.C,R3*%
X127584000Y-113338936D02*
X127584000Y-113793064D01*
X126114000Y-113338936D02*
X126114000Y-113793064D01*
%TO.C,R4*%
X175741000Y-109500936D02*
X175741000Y-109955064D01*
X174271000Y-109500936D02*
X174271000Y-109955064D01*
%TO.C,Q17*%
X155103000Y-117983000D02*
X155103000Y-116308000D01*
X151983000Y-117983000D02*
X151983000Y-118633000D01*
X155103000Y-117983000D02*
X155103000Y-118633000D01*
X151983000Y-117983000D02*
X151983000Y-117333000D01*
%TO.C,Q22*%
X164038000Y-101298000D02*
X167638000Y-101298000D01*
X165838000Y-96847999D02*
G75*
G03*
X163999522Y-101286478I0J-2600001D01*
G01*
X167676478Y-101286478D02*
G75*
G03*
X165838000Y-96848000I-1838478J1838478D01*
G01*
%TO.C,Q7*%
X136997000Y-108613000D02*
X136997000Y-109263000D01*
X140117000Y-108613000D02*
X140117000Y-109263000D01*
X136997000Y-108613000D02*
X136997000Y-107963000D01*
X140117000Y-108613000D02*
X140117000Y-106938000D01*
%TO.C,Q20*%
X131004000Y-117983000D02*
X131004000Y-119658000D01*
X134124000Y-117983000D02*
X134124000Y-118633000D01*
X131004000Y-117983000D02*
X131004000Y-117333000D01*
X134124000Y-117983000D02*
X134124000Y-117333000D01*
%TO.C,Q6*%
X145772000Y-108577000D02*
X146422000Y-108577000D01*
X145772000Y-111697000D02*
X145122000Y-111697000D01*
X145772000Y-111697000D02*
X147447000Y-111697000D01*
X145772000Y-108577000D02*
X145122000Y-108577000D01*
%TO.C,R8*%
X168175000Y-105944936D02*
X168175000Y-106399064D01*
X169645000Y-105944936D02*
X169645000Y-106399064D01*
%TO.C,Q9*%
X151166000Y-111252000D02*
X151166000Y-111902000D01*
X151166000Y-111252000D02*
X151166000Y-110602000D01*
X148046000Y-111252000D02*
X148046000Y-112927000D01*
X148046000Y-111252000D02*
X148046000Y-110602000D01*
%TO.C,R10*%
X172211000Y-105944936D02*
X172211000Y-106399064D01*
X173681000Y-105944936D02*
X173681000Y-106399064D01*
%TO.C,Q19*%
X125960000Y-119034000D02*
X124285000Y-119034000D01*
X125960000Y-122154000D02*
X126610000Y-122154000D01*
X125960000Y-119034000D02*
X126610000Y-119034000D01*
X125960000Y-122154000D02*
X125310000Y-122154000D01*
%TO.C,R15*%
X183464064Y-121385000D02*
X183009936Y-121385000D01*
X183464064Y-119915000D02*
X183009936Y-119915000D01*
%TO.C,Q11*%
X145772000Y-115126000D02*
X145122000Y-115126000D01*
X145772000Y-115126000D02*
X147447000Y-115126000D01*
X145772000Y-112006000D02*
X146422000Y-112006000D01*
X145772000Y-112006000D02*
X145122000Y-112006000D01*
%TO.C,C6*%
X141827748Y-110364000D02*
X142350252Y-110364000D01*
X141827748Y-108894000D02*
X142350252Y-108894000D01*
%TO.C,JP1*%
X192548000Y-118748000D02*
X192548000Y-115948000D01*
X194548000Y-115948000D02*
X194548000Y-118748000D01*
X194548000Y-118748000D02*
X192548000Y-118748000D01*
X192548000Y-115948000D02*
X194548000Y-115948000D01*
%TO.C,Q21*%
X157226000Y-116832000D02*
X156576000Y-116832000D01*
X157226000Y-116832000D02*
X157876000Y-116832000D01*
X157226000Y-119952000D02*
X156576000Y-119952000D01*
X157226000Y-119952000D02*
X158901000Y-119952000D01*
%TO.C,Q4*%
X169162000Y-112450000D02*
X165562000Y-112450000D01*
X167362000Y-116900001D02*
G75*
G03*
X169200478Y-112461522I0J2600001D01*
G01*
X165523522Y-112461522D02*
G75*
G03*
X167362000Y-116900000I1838478J-1838478D01*
G01*
%TO.C,J2*%
X191770000Y-114300000D02*
X199390000Y-114300000D01*
X199390000Y-114300000D02*
X199390000Y-104140000D01*
X191770000Y-104140000D02*
X191770000Y-114300000D01*
X193040000Y-114300000D02*
X193040000Y-104140000D01*
X199390000Y-104140000D02*
X191770000Y-104140000D01*
%TO.C,R2*%
X148085000Y-106808064D02*
X148085000Y-106353936D01*
X149555000Y-106808064D02*
X149555000Y-106353936D01*
%TO.C,R16*%
X141681000Y-118545936D02*
X141681000Y-119000064D01*
X140211000Y-118545936D02*
X140211000Y-119000064D01*
%TO.C,R7*%
X168175000Y-109500936D02*
X168175000Y-109955064D01*
X169645000Y-109500936D02*
X169645000Y-109955064D01*
%TO.C,C5*%
X122050000Y-112034748D02*
X122050000Y-112557252D01*
X123520000Y-112034748D02*
X123520000Y-112557252D01*
%TO.C,R9*%
X170207000Y-105944936D02*
X170207000Y-106399064D01*
X171677000Y-105944936D02*
X171677000Y-106399064D01*
%TO.C,R5*%
X172239000Y-109500936D02*
X172239000Y-109955064D01*
X173709000Y-109500936D02*
X173709000Y-109955064D01*
%TD*%
%LPC*%
D14*
%TO.C,RV1*%
X182509000Y-122809000D03*
X180009000Y-125309000D03*
X177509000Y-122809000D03*
%TD*%
D15*
%TO.C,C8*%
X187126000Y-99469000D03*
X178126000Y-99469000D03*
%TD*%
D16*
%TO.C,J1*%
X114300000Y-97790000D03*
D17*
X114300000Y-102870000D03*
X114300000Y-107950000D03*
%TD*%
D18*
%TO.C,Q13*%
X129848500Y-109949000D03*
X129848500Y-111849000D03*
X131723500Y-110899000D03*
%TD*%
D19*
%TO.C,R18*%
X160401000Y-120546500D03*
X160401000Y-118721500D03*
%TD*%
D20*
%TO.C,Q10*%
X143280500Y-107531000D03*
X143280500Y-105631000D03*
X141405500Y-106581000D03*
%TD*%
%TO.C,Q2*%
X130707500Y-107404000D03*
X130707500Y-105504000D03*
X128832500Y-106454000D03*
%TD*%
D21*
%TO.C,Q23*%
X168512000Y-93639000D03*
X165972000Y-93639000D03*
D22*
X163432000Y-93639000D03*
%TD*%
D19*
%TO.C,R1*%
X146661000Y-107493500D03*
X146661000Y-105668500D03*
%TD*%
D20*
%TO.C,Q3*%
X134644500Y-107404000D03*
X134644500Y-105504000D03*
X132769500Y-106454000D03*
%TD*%
D23*
%TO.C,R20*%
X177141000Y-120650000D03*
X175316000Y-120650000D03*
%TD*%
D24*
%TO.C,R11*%
X175006000Y-105259500D03*
X175006000Y-107084500D03*
%TD*%
D16*
%TO.C,J3*%
X114300000Y-114300000D03*
D17*
X114300000Y-119380000D03*
%TD*%
D25*
%TO.C,H4*%
X109117000Y-125730000D03*
%TD*%
%TO.C,H3*%
X198223000Y-92484000D03*
%TD*%
D18*
%TO.C,Q14*%
X133912500Y-109949000D03*
X133912500Y-111849000D03*
X135787500Y-110899000D03*
%TD*%
D19*
%TO.C,R13*%
X133756400Y-115212500D03*
X133756400Y-113387500D03*
%TD*%
D26*
%TO.C,C2*%
X122785000Y-107790000D03*
X122785000Y-109690000D03*
%TD*%
D15*
%TO.C,C4*%
X141526000Y-97818000D03*
X150526000Y-97818000D03*
%TD*%
D27*
%TO.C,Q12*%
X150556000Y-114251500D03*
X148656000Y-114251500D03*
X149606000Y-116126500D03*
%TD*%
D28*
%TO.C,C3*%
X122719000Y-105946000D03*
X120819000Y-105946000D03*
%TD*%
D24*
%TO.C,R6*%
X170942000Y-108815500D03*
X170942000Y-110640500D03*
%TD*%
D15*
%TO.C,C7*%
X178126000Y-113058000D03*
X187126000Y-113058000D03*
%TD*%
D20*
%TO.C,Q8*%
X126897500Y-110960000D03*
X126897500Y-109060000D03*
X125022500Y-110010000D03*
%TD*%
%TO.C,Q1*%
X126770500Y-107404000D03*
X126770500Y-105504000D03*
X124895500Y-106454000D03*
%TD*%
D19*
%TO.C,R14*%
X138533000Y-119685500D03*
X138533000Y-117860500D03*
%TD*%
%TO.C,R17*%
X135636000Y-119685500D03*
X135636000Y-117860500D03*
%TD*%
D15*
%TO.C,C1*%
X124254000Y-97691000D03*
X133254000Y-97691000D03*
%TD*%
D18*
%TO.C,Q15*%
X125022500Y-116144000D03*
X125022500Y-118044000D03*
X126897500Y-117094000D03*
%TD*%
D29*
%TO.C,Q16*%
X137607000Y-114475500D03*
X139507000Y-114475500D03*
X138557000Y-112600500D03*
%TD*%
D22*
%TO.C,Q5*%
X169521000Y-124492500D03*
D21*
X166981000Y-124492500D03*
X164441000Y-124492500D03*
%TD*%
D23*
%TO.C,R19*%
X180697000Y-120650000D03*
X178872000Y-120650000D03*
%TD*%
D29*
%TO.C,Q18*%
X141086800Y-113967500D03*
X142986800Y-113967500D03*
X142036800Y-112092500D03*
%TD*%
D24*
%TO.C,R12*%
X131548000Y-113387500D03*
X131548000Y-115212500D03*
%TD*%
%TO.C,R3*%
X126849000Y-112653500D03*
X126849000Y-114478500D03*
%TD*%
%TO.C,R4*%
X175006000Y-108815500D03*
X175006000Y-110640500D03*
%TD*%
D27*
%TO.C,Q17*%
X154493000Y-117045500D03*
X152593000Y-117045500D03*
X153543000Y-118920500D03*
%TD*%
D30*
%TO.C,Q22*%
X164568000Y-99448000D03*
D31*
X165838000Y-99448000D03*
X167108000Y-99448000D03*
%TD*%
D27*
%TO.C,Q7*%
X139507000Y-107675500D03*
X137607000Y-107675500D03*
X138557000Y-109550500D03*
%TD*%
D29*
%TO.C,Q20*%
X131614000Y-118920500D03*
X133514000Y-118920500D03*
X132564000Y-117045500D03*
%TD*%
D20*
%TO.C,Q6*%
X146709500Y-111087000D03*
X146709500Y-109187000D03*
X144834500Y-110137000D03*
%TD*%
D25*
%TO.C,H2*%
X198120000Y-125730000D03*
%TD*%
D24*
%TO.C,R8*%
X168910000Y-105259500D03*
X168910000Y-107084500D03*
%TD*%
D29*
%TO.C,Q9*%
X148656000Y-112189500D03*
X150556000Y-112189500D03*
X149606000Y-110314500D03*
%TD*%
D24*
%TO.C,R10*%
X172946000Y-105259500D03*
X172946000Y-107084500D03*
%TD*%
D18*
%TO.C,Q19*%
X125022500Y-119644000D03*
X125022500Y-121544000D03*
X126897500Y-120594000D03*
%TD*%
D23*
%TO.C,R15*%
X184149500Y-120650000D03*
X182324500Y-120650000D03*
%TD*%
D20*
%TO.C,Q11*%
X146709500Y-114516000D03*
X146709500Y-112616000D03*
X144834500Y-113566000D03*
%TD*%
D32*
%TO.C,C6*%
X141139000Y-109629000D03*
X143039000Y-109629000D03*
%TD*%
D33*
%TO.C,JP1*%
X193548000Y-116698000D03*
X193548000Y-117998000D03*
%TD*%
D20*
%TO.C,Q21*%
X158163500Y-119342000D03*
X158163500Y-117442000D03*
X156288500Y-118392000D03*
%TD*%
D30*
%TO.C,Q4*%
X168632000Y-114300000D03*
D31*
X167362000Y-114300000D03*
X166092000Y-114300000D03*
%TD*%
D25*
%TO.C,H1*%
X109220000Y-92484000D03*
%TD*%
D16*
%TO.C,J2*%
X195580000Y-106680000D03*
D17*
X195580000Y-111760000D03*
%TD*%
D19*
%TO.C,R2*%
X148820000Y-107493500D03*
X148820000Y-105668500D03*
%TD*%
D24*
%TO.C,R16*%
X140946000Y-117860500D03*
X140946000Y-119685500D03*
%TD*%
%TO.C,R7*%
X168910000Y-108815500D03*
X168910000Y-110640500D03*
%TD*%
D26*
%TO.C,C5*%
X122785000Y-111346000D03*
X122785000Y-113246000D03*
%TD*%
D24*
%TO.C,R9*%
X170942000Y-105259500D03*
X170942000Y-107084500D03*
%TD*%
%TO.C,R5*%
X172974000Y-108815500D03*
X172974000Y-110640500D03*
%TD*%
M02*
